<?xml version="1.0" encoding="UTF-8"?>
<svg width="55px" height="50px" viewBox="0 0 55 50" version="1.1" xmlns="http://www.w3.org/2000/svg" xmlns:xlink="http://www.w3.org/1999/xlink">
    <title>adwords</title>
    <g id="Free-Strategy-Form" stroke="none" stroke-width="1" fill="none" fill-rule="evenodd">
        <g id="Startegy-Session-Form---Step-3" transform="translate(-561.000000, -340.000000)" fill-rule="nonzero">
            <g id="adwords" transform="translate(561.000000, 340.000000)">
                <path d="M32.2688173,1.45510334 C27.4680969,-1.31666856 21.3391718,0.324992123 18.5669604,5.12659143 L1.3617148,34.926765 C-3.07830605,42.6170367 4.03669222,51.9374328 12.644369,49.630626 C15.2323303,48.9371337 17.3953187,47.2774545 18.7349499,44.9571338 L35.9400856,15.1568503 C38.705595,10.3672267 37.0585507,4.22050284 32.2688173,1.45510334 L32.2688173,1.45510334 Z" id="Path" fill="#F4DC4D"></path>
                <path d="M19.7370639,37.3458578 C18.3023961,31.9915082 12.8079637,28.8181656 7.45229571,30.2532728 C-1.15845738,32.5605191 -2.65355299,44.1904688 5.03320289,48.6286219 C12.70216,53.0563374 22.0567254,46.0033052 19.7370639,37.3458578 Z" id="Path" fill="#A0ED83"></path>
                <path d="M53.3590262,34.926765 L36.1537806,5.12659143 C34.8142593,2.80627072 32.6511609,1.14659155 30.0631997,0.453099227 C21.452886,-1.85447669 14.3425023,7.47009447 18.7805455,15.1569602 L35.9857911,44.9572437 C38.7567939,49.7568653 44.8851697,51.4014925 49.6876479,48.6287318 C54.4773814,45.8632224 56.1244257,39.7166084 53.3590262,34.926765 Z" id="Path" fill="#86BFF2"></path>
                <path d="M19.7370639,37.3458578 C18.3023961,31.9915082 12.8079637,28.8181656 7.45229571,30.2532728 C-1.15845738,32.5605191 -2.65355299,44.1904688 5.03320289,48.6286219 C12.70216,53.0563374 22.0567254,46.0033052 19.7370639,37.3458578 Z" id="Path" fill="#A0ED83"></path>
            </g>
        </g>
    </g>
</svg>