<?xml version="1.0" encoding="UTF-8"?>
<svg width="46px" height="50px" viewBox="0 0 46 50" version="1.1" xmlns="http://www.w3.org/2000/svg" xmlns:xlink="http://www.w3.org/1999/xlink">
    <title>affiliate</title>
    <g id="Free-Strategy-Form" stroke="none" stroke-width="1" fill="none" fill-rule="evenodd">
        <g id="Startegy-Session-Form---Step-3" transform="translate(-311.000000, -471.000000)" fill-rule="nonzero">
            <g id="affiliate" transform="translate(311.000000, 471.000000)">
                <path d="M24.9054687,39.515332 L22.7719727,41.6488281 C22.1823242,42.2384766 21.2280273,42.2384766 20.6384766,41.6488281 C20.0488281,41.0591797 20.0488281,40.1048828 20.6384766,39.515332 L22.7719727,37.3818359 C23.3605469,36.7932617 23.3605469,35.8369141 22.7719727,35.2483398 L20.8103516,33.2867188 C20.2207031,32.6970703 20.2207031,31.7427734 20.8103516,31.1532227 C21.4,30.5635742 22.3542969,30.5635742 22.9438477,31.1532227 L24.9054687,33.1148438 C26.6703125,34.8794922 26.6703125,37.7504883 24.9054687,39.515332 Z" id="Path" fill="#713708"></path>
                <path d="M28.1057617,49.1162109 L28.1057617,49.1162109 C26.9274414,50.2945312 25.0169922,50.2945312 23.8387695,49.1162109 L13.1710938,38.4485352 L17.4380859,34.1814453 L28.1057617,44.8491211 C29.2841797,46.0274414 29.2841797,47.9378906 28.1057617,49.1162109 Z" id="Path" fill="#994C0F"></path>
                <path d="M13.0856445,25.5618164 L19.699707,32.1758789 L19.5716797,36.3149414 L12.1042969,43.7823242 C10.3334961,45.553125 7.43183594,45.5105469 5.66103516,43.7395508 L1.39394531,39.4724609 C-0.355566406,37.7229492 -0.334277344,34.8853516 1.43671875,33.1145508 L8.90410156,25.647168 L13.0856445,25.5618164 Z" id="Path" fill="#FE318F"></path>
                <path d="M16.3713867,28.8476562 L19.699707,32.1759766 L19.5716797,36.3150391 L12.1042969,43.7824219 C10.3334961,45.5532227 7.43183594,45.5106445 5.66103516,43.7396484 L3.57011719,41.6487305 L16.3713867,28.8476562 Z" id="Path" fill="#FD0F7F"></path>
                <g id="Group" transform="translate(30.273438, 0.000000)" fill="#1BD9DE">
                    <path d="M1.56191406,6.03496199 C0.729589844,6.0359375 0.053515625,5.35986328 0.053515625,4.5265625 L0.0525390201,1.50859375 C0.05234375,0.675097656 0.727441406,-1.05662356e-06 1.5609375,-1.05662356e-06 C2.39326172,-0.0009765625 3.06933594,0.675097656 3.06933594,1.50839844 L3.0703125,4.52636719 C3.07041016,5.35986328 2.39541016,6.03496199 1.56191406,6.03496199 Z" id="Path"></path>
                    <path d="M13.6308594,15.0869141 L10.6128906,15.0859375 C9.77949219,15.0859375 9.10332031,14.4098633 9.10449067,13.5775391 C9.10449067,12.7441406 9.77958984,12.0691406 10.6128906,12.0691406 L13.6308594,12.0701172 C14.4642578,12.0701172 15.1404297,12.7461914 15.1392593,13.5785156 C15.1392593,14.4118164 14.4642578,15.0869141 13.6308594,15.0869141 Z" id="Path"></path>
                    <path d="M11.7003906,3.24511719 C12.2977539,3.84248047 12.2978516,4.78125 11.7003906,5.37861328 L8.50009766,8.57890625 C7.90263672,9.17636719 6.96386719,9.17626953 6.36660156,8.57890625 C5.76914063,7.98144531 5.76914063,7.04277344 6.36660156,6.44541016 L9.56689453,3.24511719 C10.1642578,2.64765625 11.1029297,2.64765625 11.7003906,3.24511719 Z" id="Path"></path>
                </g>
                <path d="M23.8387695,6.44541016 L38.7735352,21.3801758 C39.200293,21.8069336 39.7335937,26.3085938 40.2882812,26.394043 L36.0853516,27.2688477 C29.8553711,28.50625 23.9455078,31.9413086 19.9344727,35.9523437 L19.5717773,36.3150391 L8.90390625,25.6472656 L9.26660156,25.2845703 C13.4911133,21.0600586 16.605957,15.4701172 17.8860352,9.06962891 L18.7607422,4.69589844 L23.8387695,6.44541016 Z" id="Path" fill="#CAE8F9"></path>
                <path d="M12.1041992,33.1146484 C12.7015625,33.7120117 12.7016602,34.6507813 12.1041992,35.2481445 L9.97070312,37.3817383 C9.37324219,37.9791992 8.43447266,37.9791016 7.83720703,37.3817383 C7.23974609,36.7842773 7.23974609,35.8456055 7.83720703,35.2482422 L9.97070312,33.1147461 C10.5681641,32.5172852 11.5068359,32.5172852 12.1041992,33.1146484 Z" id="Path" fill="#E1E4FB"></path>
                <path d="M31.3061523,13.912793 L38.7735352,21.3801758 C39.200293,21.8069336 39.7335938,26.3085937 40.2882812,26.394043 L36.0853516,27.2688477 C29.8553711,28.50625 23.9455078,31.9413086 19.9344727,35.9523438 L19.5717773,36.3150391 L14.2378906,30.9811523 L31.3061523,13.912793 Z" id="Path" fill="#B7E0F6"></path>
                <path d="M12.1041992,33.1146484 C12.7015625,33.7120117 12.7016602,34.6507813 12.1041992,35.2481445 L9.97070312,37.3817383 C9.37324219,37.9791992 8.43447266,37.9791016 7.83720703,37.3817383 L12.1041992,33.1146484 Z" id="Path" fill="#C5C9F7"></path>
                <path d="M23.8387695,2.17841797 L43.040625,21.3802734 C44.2140625,22.5537109 44.2140625,24.4739258 43.040625,25.6473633 C42.9125977,25.7753906 42.7418945,25.8606445 42.5710937,25.9459961 C41.8883789,26.4155273 41.0777344,26.5861328 40.2881836,26.394043 C39.7335937,26.3087891 39.2001953,26.0741211 38.7734375,25.6473633 L19.571582,6.44541016 C19.0807617,5.95458984 18.8461914,5.3359375 18.7607422,4.69589844 C18.6754883,4.05585938 18.8036133,3.415625 19.1235352,2.83974609 C19.2728516,2.60498047 19.3794922,2.37041016 19.571582,2.17832031 C20.7450195,1.00498047 22.665332,1.00498047 23.8387695,2.17841797 Z" id="Path" fill="#FE318F"></path>
                <path d="M33.4396484,11.7792969 L43.0405273,21.3801758 C44.2139648,22.5536133 44.2139648,24.4738281 43.0405273,25.6472656 C42.9125,25.775293 42.7417969,25.8605469 42.5709961,25.9458984 C41.8882813,26.4154297 41.0776367,26.5860352 40.2880859,26.3939453 C39.7334961,26.3086914 39.2000977,26.0740234 38.7733398,25.6472656 L29.1724609,16.0463867 L33.4396484,11.7792969 Z" id="Path" fill="#FD0F7F"></path>
            </g>
        </g>
    </g>
</svg>