<?xml version="1.0" encoding="UTF-8"?>
<svg width="100px" height="100px" viewBox="0 0 100 100" version="1.1" xmlns="http://www.w3.org/2000/svg" xmlns:xlink="http://www.w3.org/1999/xlink">
    <title>7919F41E-42F7-4E20-85C4-8C741D52CFC3</title>
    <g id="Main-Pages" stroke="none" stroke-width="1" fill="none" fill-rule="evenodd">
        <g id="Careers-Page" transform="translate(-671.000000, -1298.000000)" fill="#427FE0" fill-rule="nonzero">
            <g id="What-we-offer" transform="translate(101.000000, 748.000000)">
                <g id="Group" transform="translate(51.000000, 550.000000)">
                    <g id="icn_career_progression" transform="translate(519.000000, 0.000000)">
                        <path d="M88.2162109,2.9296875 C88.2162109,1.31171875 86.9044922,0 85.2865234,0 C83.6685547,0 82.3568359,1.31171875 82.3568359,2.9296875 L82.3568359,4.8828125 L62.2201172,4.8828125 C60.5464844,4.8828125 59.6480469,6.85039063 60.7441406,8.11503906 L66.40625,14.6484375 L60.7439453,21.1818359 C59.6478516,22.4466797 60.5462891,24.4140625 62.2199219,24.4140625 L82.3566406,24.4140625 L82.3566406,40.625 L88.2162109,40.625 L88.2162109,2.9296875 Z" id="Path"></path>
                        <path d="M28.4505859,83.3984375 C28.4505859,82.3197266 27.5761719,81.4453125 26.4974609,81.4453125 L0,81.4453125 L0,100 L28.4505859,100 L28.4505859,83.3984375 Z" id="Path"></path>
                        <path d="M71.5494141,48.4375 L71.5494141,100 L100,100 L100,46.484375 L73.5025391,46.484375 C72.4240234,46.484375 71.5494141,47.3587891 71.5494141,48.4375 L71.5494141,48.4375 Z" id="Path"></path>
                        <path d="M63.7369141,64.2578125 L36.2630859,64.2578125 C35.184375,64.2578125 34.3099609,65.1322266 34.3099609,66.2109375 L34.3099609,83.3984375 L34.3099609,100 L65.6902344,100 L65.6902344,66.2109375 C65.6902344,65.1322266 64.815625,64.2578125 63.7369141,64.2578125 L63.7369141,64.2578125 Z" id="Path"></path>
                        <circle id="Oval" cx="14.2253906" cy="35.3289063" r="8.7890625"></circle>
                        <path d="M16.6951172,47.0703125 L11.7552734,47.0703125 C7.64765625,47.0703125 4.24179688,50.2509766 3.9609375,54.3490234 L2.64921875,73.4994141 C2.57207031,74.6279297 3.46679688,75.5859375 4.59804688,75.5859375 L23.8525391,75.5859375 C24.9837891,75.5859375 25.8783203,74.6279297 25.8011719,73.4994141 L24.4894531,54.3490234 C24.2087891,50.2509766 20.8027344,47.0703125 16.6951172,47.0703125 Z" id="Path"></path>
                    </g>
                </g>
            </g>
        </g>
    </g>
</svg>