<?xml version="1.0" encoding="UTF-8"?>
<svg width="83px" height="100px" viewBox="0 0 83 100" version="1.1" xmlns="http://www.w3.org/2000/svg" xmlns:xlink="http://www.w3.org/1999/xlink">
    <title>A817941C-9207-4016-9FAF-692D16C36487</title>
    <g id="Main-Pages" stroke="none" stroke-width="1" fill="none" fill-rule="evenodd">
        <g id="Careers-Page" transform="translate(-292.000000, -867.000000)" fill-rule="nonzero">
            <g id="What-we-offer" transform="translate(101.000000, 748.000000)">
                <g id="Group" transform="translate(51.000000, 118.000000)">
                    <g id="icn_renumeration" transform="translate(140.000000, 1.000000)">
                        <path d="M48.3282353,66.4244706 C47.9548235,66.0155294 47.4823529,65.7096471 46.9941176,65.4548235 C45.9310588,64.9004706 44.7684706,64.5642353 43.6141176,64.2607059 L43.6141176,73.2056471 C45.4877647,72.9938824 47.6388235,72.3138824 48.6225882,70.5647059 L48.6225882,70.5647059 C49.0922353,69.7291765 49.1856471,68.7025882 48.9943529,67.7724706 C48.8905882,67.2684706 48.6762353,66.8058824 48.3282353,66.4244706 Z" id="Path" fill="#427FE0"></path>
                        <path d="M48.6127059,70.5818824 C48.6164706,70.5755294 48.6185882,70.5715294 48.6225882,70.5647059 L48.6225882,70.5647059 C48.6192941,70.5703529 48.616,70.576 48.6127059,70.5818824 Z" id="Path" fill="#000000"></path>
                        <path d="M34.8256471,52.1251765 C34.5035294,52.5955294 34.3014118,53.1298824 34.2456471,53.6978824 C34.1898824,54.2670588 34.2211765,54.9002353 34.4374118,55.436 C34.6432941,55.9465882 35.0745882,56.3235294 35.5197647,56.6270588 C36.0192941,56.9668235 36.5687059,57.2322353 37.1282353,57.4571765 C37.5976471,57.6461176 38.1256471,57.8268235 38.6948235,58.0014118 L38.6948235,49.9072941 C37.2569412,50.2141176 35.6858824,50.8691765 34.8256471,52.1251765 Z" id="Path" fill="#427FE0"></path>
                        <path d="M48.6597647,70.4985882 C48.648,70.5195294 48.6352941,70.5414118 48.6228235,70.5644706 L48.6228235,70.5644706 C48.6374118,70.5376471 48.6489412,70.5178824 48.6597647,70.4985882 Z" id="Path" fill="#000000"></path>
                        <path d="M48.7068235,70.4148235 C48.7098824,70.4091765 48.7103529,70.4087059 48.7068235,70.4148235 L48.7068235,70.4148235 Z" id="Path" fill="#000000"></path>
                        <path d="M46.7654118,21.7574118 C54.3722353,15.3672941 59.4550588,0.971294118 56.3270588,0.341647059 C52.1708235,-0.495294118 43.1454118,3.17458824 38.7830588,3.82117647 C32.5957647,4.56823529 25.8569412,-2.88823529 22.0743529,1.268 C18.9988235,4.64729412 24.2792941,16.9367059 32.5407059,22.2905882 C7.89317647,34.4044706 -26.7505882,95.2171765 33.6872941,99.6296471 C117.313412,105.735294 75.4388235,33.5621176 46.7654118,21.7574118 Z M53.9472941,69.7171765 C53.6901176,72.088 52.4336471,74.232 50.5555294,75.6875294 C48.5724706,77.2244706 46.0851765,77.9392941 43.6138824,78.1395294 L43.6138824,80.7590588 C43.6138824,81.46 43.3077647,82.1378824 42.7830588,82.6018824 C42.0618824,83.24 41.0021176,83.3974118 40.1268235,82.9941176 C39.2625882,82.5964706 38.6948235,81.7101176 38.6948235,80.7590588 L38.6948235,77.896 C38.2710588,77.8155294 37.8503529,77.7197647 37.4345882,77.6056471 C35.1249412,76.9710588 32.9825882,75.7341176 31.4176471,73.904 C30.6381176,72.9917647 30.0025882,71.9567059 29.5630588,70.8392941 C29.4482353,70.5472941 29.3458824,70.2498824 29.2562353,69.9491765 C29.1750588,69.6769412 29.0912941,69.4002353 29.0623529,69.1164706 C29.0136471,68.6404706 29.108,68.1548235 29.3298824,67.7308235 C29.7858824,66.8585882 30.7468235,66.3317647 31.728,66.4192941 C32.6936471,66.5049412 33.54,67.1750588 33.844,68.0955294 C33.9376471,68.3790588 34.0011765,68.6696471 34.1063529,68.9501176 C34.2105882,69.2287059 34.3364706,69.4995294 34.4844706,69.7574118 C34.7767059,70.2651765 35.1428235,70.7334118 35.5644706,71.1397647 C36.4336471,71.9771765 37.5407059,72.5214118 38.6948235,72.8451765 L38.6948235,63.1129412 C36.4381176,62.5287059 34.1087059,61.7741176 32.2451765,60.3251765 C31.3395294,59.6207059 30.5710588,58.7454118 30.0677647,57.7094118 C29.5367059,56.616 29.3167059,55.3978824 29.3077647,54.188 C29.2985882,52.9595294 29.532,51.7418824 30.0444706,50.6225882 C30.5244706,49.5745882 31.2155294,48.6336471 32.0628235,47.8536471 C33.8745882,46.1861176 36.2811765,45.256 38.6950588,44.9143529 L38.6950588,44.7002353 L38.6950588,42.1950588 C38.6950588,41.4943529 39.0011765,40.8162353 39.5258824,40.3522353 C40.2472941,39.7143529 41.3065882,39.5567059 42.1821176,39.96 C43.0461176,40.3578824 43.6141176,41.244 43.6141176,42.1950588 L43.6141176,44.7002353 L43.6141176,44.8995294 C43.9357647,44.94 44.2564706,44.9884706 44.5755294,45.0463529 C46.9458824,45.4752941 49.2642353,46.4541176 50.9976471,48.1630588 C51.8188235,48.9724706 52.4910588,49.9369412 52.9637647,50.9887059 C53.0957647,51.2821176 53.2112941,51.5823529 53.3112941,51.8884706 C53.4044706,52.1738824 53.4981176,52.4677647 53.5425882,52.7656471 C53.6136471,53.2411765 53.5411765,53.7324706 53.3376471,54.1675294 C52.9207059,55.0588235 51.9856471,55.6263529 51.0018824,55.5842353 C50.0352941,55.5421176 49.1595294,54.9127059 48.8134118,54.0091765 C48.7103529,53.7404706 48.6588235,53.456 48.5536471,53.188 C48.4475294,52.9167059 48.3101176,52.6578824 48.1517647,52.4134118 C47.844,51.9381176 47.4451765,51.5305882 46.9898824,51.1948235 C46.004,50.4668235 44.8082353,50.0875294 43.6134118,49.8755294 L43.6134118,59.1889412 C45.0334118,59.5289412 46.4545882,59.8997647 47.8150588,60.4362353 C49.8712941,61.2470588 51.8197647,62.4903529 52.9421176,64.4508235 C52.768,64.1454118 52.5985882,63.8477647 52.948,64.4609412 C53.2910588,65.0632941 53.1272941,64.7762353 52.9550588,64.4743529 C53.848,66.048 54.1414118,67.9296471 53.9472941,69.7171765 Z" id="Shape" fill="#427FE0"></path>
                        <path d="M48.5865882,70.628 C48.5722353,70.6536471 48.5597647,70.6762353 48.5498824,70.6934118 C48.5583529,70.6785882 48.5710588,70.6562353 48.5865882,70.628 Z" id="Path" fill="#000000"></path>
                    </g>
                </g>
            </g>
        </g>
    </g>
</svg>