<?xml version="1.0" encoding="UTF-8"?>
<svg width="99px" height="99px" viewBox="0 0 99 99" version="1.1" xmlns="http://www.w3.org/2000/svg" xmlns:xlink="http://www.w3.org/1999/xlink">
    <title>icn_international</title>
    <g id="SEO-Pages" stroke="none" stroke-width="1" fill="none" fill-rule="evenodd">
        <g id="SEO---Enterprise" transform="translate(-508.000000, -3569.000000)" fill="#427FE0" fill-rule="nonzero">
            <g id="What-we-offer" transform="translate(88.000000, 3363.000000)">
                <g id="icn_international" transform="translate(420.000000, 206.000000)">
                    <path d="M89.859375,21.775 L88.390625,22.240625 L80.56875,22.9375 L78.359375,26.465625 L76.75625,25.95625 L70.53125,20.34375 L69.628125,17.425 L68.41875,14.3125 L64.50625,10.803125 L59.890625,9.9 L59.784375,12.0125 L64.30625,16.425 L66.51875,19.03125 L64.03125,20.33125 L62.00625,19.734375 L58.971875,18.46875 L59.075,16.021875 L55.09375,14.384375 L53.771875,20.1375 L49.759375,21.046875 L50.15625,24.25625 L55.384375,25.2625 L56.2875,20.134375 L60.603125,20.771875 L62.609375,21.946875 L65.828125,21.946875 L68.03125,26.359375 L73.871875,32.284375 L73.44375,34.5875 L68.734375,33.9875 L60.596875,38.096875 L54.7375,45.125 L53.975,48.2375 L51.871875,48.2375 L47.953125,46.43125 L44.146875,48.2375 L45.09375,52.253125 L46.75,50.34375 L49.6625,50.253125 L49.459375,53.859375 L51.871875,54.565625 L54.28125,57.271875 L58.215625,56.165625 L62.709375,56.875 L67.928125,58.278125 L70.534375,58.584375 L74.953125,63.6 L83.48125,68.615625 L77.965625,79.153125 L72.14375,81.859375 L69.934375,87.88125 L61.509375,93.50625 L60.6125,96.75 C82.15,91.5625 98.171875,72.215625 98.171875,49.084375 C98.165625,38.98125 95.103125,29.578125 89.859375,21.775 Z" id="Path"></path>
                    <path d="M54.734375,74.740625 L51.159375,68.1125 L54.440625,61.275 L51.159375,60.29375 L47.475,56.59375 L39.3125,54.7625 L36.603125,49.09375 L36.603125,52.459375 L35.409375,52.459375 L28.375,42.921875 L28.375,35.0875 L23.21875,26.703125 L15.03125,28.1625 L9.515625,28.1625 L6.740625,26.34375 L10.28125,23.5375 L6.75,24.353125 C2.49375,31.621875 0.0125,40.05625 0.0125,49.090625 C0.0125,76.19375 21.984375,98.175 49.090625,98.175 C51.178125,98.175 53.225,97.990625 55.25,97.746875 L54.7375,91.8 C54.7375,91.8 56.990625,82.96875 56.990625,82.66875 C56.9875,82.365625 54.734375,74.740625 54.734375,74.740625 Z" id="Path"></path>
                    <path d="M18.25,15.828125 L26.96875,14.6125 L30.9875,12.409375 L35.509375,13.7125 L42.734375,13.3125 L45.209375,9.421875 L48.81875,10.015625 L57.584375,9.19375 L60,6.53125 L63.40625,4.25625 L68.225,4.98125 L69.98125,4.715625 C63.634375,1.728125 56.571875,0 49.0875,0 C33.853125,0 20.23125,6.94375 11.2375,17.846875 L11.2625,17.846875 L18.25,15.828125 Z M51.1625,4.88125 L56.175,2.121875 L59.39375,3.98125 L54.734375,7.528125 L50.284375,7.975 L48.28125,6.675 L51.1625,4.88125 Z M36.315625,5.284375 L38.528125,6.20625 L41.425,5.284375 L43.003125,8.01875 L36.315625,9.775 L33.0999977,7.89375 C33.096875,7.89375 36.24375,5.86875 36.315625,5.284375 Z" id="Shape"></path>
                </g>
            </g>
        </g>
    </g>
</svg>