<?xml version="1.0" encoding="UTF-8"?>
<svg width="84px" height="100px" viewBox="0 0 84 100" version="1.1" xmlns="http://www.w3.org/2000/svg" xmlns:xlink="http://www.w3.org/1999/xlink">
    <title>53655A0D-BF30-4F4E-A80D-81B4198CB399</title>
    <g id="Main-Pages" stroke="none" stroke-width="1" fill="none" fill-rule="evenodd">
        <g id="Careers-Page" transform="translate(-285.000000, -1301.000000)" fill="#427FE0" fill-rule="nonzero">
            <g id="icn_development" transform="translate(285.000000, 1301.000000)">
                <circle id="Oval" cx="41.9921875" cy="16.6015625" r="16.6015625"></circle>
                <path d="M54.1912109,35.4521484 C50.6761719,37.7347656 46.4865234,39.0625 41.9921875,39.0625 C37.4978516,39.0625 33.3082031,37.7347656 29.7931641,35.4521484 C25.9074219,36.9371094 22.3046875,39.1279297 19.1720703,41.9396484 L41.9921875,50.4972656 L64.8123047,41.9396484 C61.6796875,39.1279297 58.0769531,36.9369141 54.1912109,35.4521484 Z" id="Path"></path>
                <path d="M77.1484375,60.546875 L75.1953125,60.546875 C73.5773437,60.546875 72.265625,61.8585938 72.265625,63.4765625 L72.265625,71.2890625 C72.265625,72.9070313 73.5773437,74.21875 75.1953125,74.21875 L77.1484375,74.21875 C80.9238281,74.21875 83.984375,71.1582031 83.984375,67.3828125 C83.984375,63.6074219 80.9238281,60.546875 77.1484375,60.546875 Z" id="Path"></path>
                <path d="M9.0734375,45.7570312 C8.28359375,46.3044922 7.8125,47.2041016 7.8125,48.1650391 L7.8125,54.6875 L8.7890625,54.6875 C13.6353516,54.6875 17.578125,58.6302734 17.578125,63.4765625 L17.578125,71.2890625 C17.578125,76.1353516 13.6353516,80.078125 8.7890625,80.078125 L7.8125,80.078125 L7.8125,86.2509766 C7.8125,87.4722656 8.57011719,88.5654297 9.71347656,88.9941406 L39.0625,100 L39.0625,55.65625 L11.7708984,45.421875 C10.8710938,45.0841797 9.86308594,45.209375 9.0734375,45.7570312 Z" id="Path"></path>
                <path d="M66.40625,71.2890625 L66.40625,63.4765625 C66.40625,58.6302734 70.3490234,54.6875 75.1953125,54.6875 L76.171875,54.6875 L76.171875,48.1650391 C76.171875,47.2041016 75.7007813,46.3044922 74.9109375,45.7570312 C74.1210938,45.209375 73.1128906,45.0841797 72.2134766,45.421875 L44.921875,55.65625 L44.921875,100 L74.2708984,88.9941406 C75.4142578,88.5654297 76.171875,87.4722656 76.171875,86.2509766 L76.171875,80.078125 L75.1953125,80.078125 C70.3490234,80.078125 66.40625,76.1353516 66.40625,71.2890625 L66.40625,71.2890625 Z" id="Path"></path>
                <path d="M11.71875,71.2890625 L11.71875,63.4765625 C11.71875,61.8585938 10.4070313,60.546875 8.7890625,60.546875 L6.8359375,60.546875 C3.06054688,60.546875 0,63.6074219 0,67.3828125 C0,71.1582031 3.06054688,74.21875 6.8359375,74.21875 L8.7890625,74.21875 C10.4070313,74.21875 11.71875,72.9070313 11.71875,71.2890625 Z" id="Path"></path>
            </g>
        </g>
    </g>
</svg>