<?xml version="1.0" encoding="UTF-8"?>
<svg width="100px" height="100px" viewBox="0 0 100 100" version="1.1" xmlns="http://www.w3.org/2000/svg" xmlns:xlink="http://www.w3.org/1999/xlink">
    <title>F06EE4D4-D4DE-4F40-ADDA-B6842FF5921C</title>
    <g id="Main-Pages" stroke="none" stroke-width="1" fill="none" fill-rule="evenodd">
        <g id="Careers-Page" transform="translate(-670.000000, -866.000000)" fill="#427FE0" fill-rule="nonzero">
            <g id="What-we-offer" transform="translate(101.000000, 748.000000)">
                <g id="Group" transform="translate(51.000000, 118.000000)">
                    <g id="icn_talented_team" transform="translate(518.000000, 0.000000)">
                        <path d="M29.4988281,64.2253906 C29.4988281,58.2267578 24.6185547,53.3464844 18.6199219,53.3464844 C4.1875,53.9441406 4.19160156,74.5089844 18.6199219,75.1042969 C24.61875,75.1042969 29.4988281,70.2240234 29.4988281,64.2253906 Z" id="Path"></path>
                        <path d="M92.259375,64.2253906 C92.259375,58.2267578 87.3791016,53.3464844 81.3804688,53.3464844 C66.9480469,53.9441406 66.9521484,74.5089844 81.3804688,75.1042969 C87.3791016,75.1042969 92.259375,70.2240234 92.259375,64.2253906 Z" id="Path"></path>
                        <path d="M60.8791016,64.2253906 C60.8791016,58.2267578 55.9988281,53.3464844 50.0001953,53.3464844 C35.5677734,53.9441406 35.571875,74.5089844 50.0001953,75.1042969 C55.9988281,75.1042969 60.8791016,70.2240234 60.8791016,64.2253906 Z" id="Path"></path>
                        <path d="M30.2890625,79.2261719 C18.3576172,69.4515625 -0.07265625,78.1669922 -2.00051372e-05,93.7242187 L-2.00051372e-05,97.0703125 C-2.00051372e-05,98.6882812 1.31191406,100 2.92988281,100 L26.025,100 C25.6998047,99.0830078 25.5210937,98.0974609 25.5210937,97.0703125 L25.5210937,93.7240234 C25.5210937,88.3021484 27.2941406,83.2873047 30.2890625,79.2261719 L30.2890625,79.2261719 Z" id="Path"></path>
                        <path d="M81.3804688,75.1042969 C76.9660156,75.1042969 72.90625,76.6496094 69.7113281,79.2261719 C72.7064453,83.2873047 74.4792969,88.3021484 74.4792969,93.7240234 L74.4792969,97.0703125 C74.4792969,98.0972656 74.3005859,99.0830078 73.9753906,100 L97.0705078,100 C98.6884766,100 100.000195,98.6882812 100.000195,97.0703125 L100.000195,93.7240234 C100.000195,83.4570312 91.6474609,75.1042969 81.3804688,75.1042969 Z" id="Path"></path>
                        <path d="M50.0001953,75.1042969 C39.7332031,75.1042969 31.3804687,83.4572266 31.3804687,93.7240234 L31.3804687,97.0703125 C31.3804687,98.6882812 32.6921875,100 34.3101562,100 L65.6904297,100 C67.3083984,100 68.6201172,98.6882812 68.6201172,97.0703125 L68.6201172,93.7240234 C68.6201172,83.4570312 60.2671875,75.1042969 50.0001953,75.1042969 Z" id="Path"></path>
                        <path d="M26.9677734,0.858203125 C25.8238281,-0.285742188 23.96875,-0.2859375 22.8246094,0.858203125 C21.6804688,2.00234375 21.6804687,3.85722656 22.8246094,5.00136719 L25.9625,8.13945312 C27.1068359,9.28378906 28.9617187,9.28320312 30.1056641,8.13945312 C31.2498047,6.9953125 31.2498047,5.14042969 30.1056641,3.99628906 L26.9677734,0.858203125 Z" id="Path"></path>
                        <path d="M25.9623047,25.9623047 L22.8244141,29.1003906 C21.6804688,30.2445313 21.6804688,32.0994141 22.8244141,33.2435547 C23.9689453,34.3878906 25.8238281,34.3873047 26.9675781,33.2435547 L30.1054688,30.1054687 C31.2494141,28.9613281 31.2494141,27.1064453 30.1054688,25.9623047 C28.9613281,24.8181641 27.1066406,24.8181641 25.9623047,25.9623047 Z" id="Path"></path>
                        <path d="M19.046875,19.9804688 L23.4847656,19.9804688 C27.371875,19.8255859 27.3689453,14.2744141 23.4847656,14.1210938 L19.046875,14.1210938 C15.1597656,14.2759766 15.1626953,19.8271484 19.046875,19.9804688 L19.046875,19.9804688 Z" id="Path"></path>
                        <path d="M74.0378906,8.13945313 L77.1757812,5.00136719 C78.3197266,3.85722656 78.3197266,2.00234375 77.1757812,0.858203125 C76.0316406,-0.285742188 74.1765625,-0.285742188 73.0326172,0.858203125 L69.8945312,3.99628906 C68.7505859,5.14042969 68.7505859,6.9953125 69.8945312,8.13945313 C71.0386719,9.28320312 72.8935547,9.28378906 74.0378906,8.13945313 L74.0378906,8.13945313 Z" id="Path"></path>
                        <path d="M73.0326172,33.2435547 C74.1763672,34.3873047 76.03125,34.3880859 77.1757812,33.2435547 C78.3199219,32.0994141 78.3199219,30.2445313 77.1757812,29.1003906 L74.0378906,25.9623047 C72.89375,24.8181641 71.0388672,24.8181641 69.8947266,25.9623047 C68.7505859,27.1064453 68.7505859,28.9613281 69.8947266,30.1054687 L73.0326172,33.2435547 Z" id="Path"></path>
                        <path d="M73.5859375,17.0507812 C73.5859375,18.66875 74.8976562,19.9804688 76.515625,19.9804688 L80.9535156,19.9804688 C84.840625,19.8255859 84.8376953,14.2744141 80.9535156,14.1210938 L76.515625,14.1210938 C74.8976562,14.1210938 73.5859375,15.4328125 73.5859375,17.0507812 Z" id="Path"></path>
                        <path d="M40.7945312,37.4480469 C41.3017578,49.6636719 58.7035156,49.6542969 59.2060547,37.4480469 L59.2060547,37.0314453 L40.7945312,37.0314453 L40.7945312,37.4480469 Z" id="Path"></path>
                        <path d="M40.7945313,31.1720703 L59.2060547,31.1720703 C59.2060547,29.3015625 59.9365234,27.5193359 61.2142578,26.1519531 C70.5623047,16.4119141 63.5066406,-0.0357421875 50,0.000136519272 C36.4939453,-0.0357421875 29.4375,16.4140625 38.7861328,26.1519531 C40.0638672,27.5193359 40.7945313,29.3015625 40.7945313,31.1720703 Z" id="Path"></path>
                    </g>
                </g>
            </g>
        </g>
    </g>
</svg>