<?xml version="1.0" encoding="UTF-8"?>
<svg width="116px" height="126px" viewBox="0 0 116 126" version="1.1" xmlns="http://www.w3.org/2000/svg" xmlns:xlink="http://www.w3.org/1999/xlink">
    <title>icn_map_pin</title>
    <defs>
        <filter x="-26.1%" y="-91.2%" width="152.2%" height="282.5%" filterUnits="objectBoundingBox" id="filter-1">
            <feGaussianBlur stdDeviation="6.61551339" in="SourceGraphic"></feGaussianBlur>
        </filter>
    </defs>
    <g id="Design" stroke="none" stroke-width="1" fill="none" fill-rule="evenodd">
        <g id="Contact-Us---Thankyou-Message" transform="translate(-662.000000, -1441.000000)">
            <g id="icn_map_pin" transform="translate(680.000000, 1441.000000)">
                <path d="M14.9763053,84.1225994 L71.4168176,84.1225994 C75.0526089,84.1225994 78,87.0699905 78,90.7057818 C78,91.4702532 77.8668463,92.228883 77.6065083,92.9476603 C75.687999,98.2445482 70.6576442,101.772721 65.0240219,101.772721 L38.2933239,101.772721 L38.2933239,101.772721 L30.9316201,105.877401 L23.0954509,101.772721 L8.5835096,101.772721 C4.94771838,101.772721 2.00032724,98.82533 2.00032724,95.1895388 C2.00032724,94.4250673 2.13348096,93.6664376 2.39381891,92.9476603 C4.31232822,87.6507723 9.34268306,84.1225994 14.9763053,84.1225994 Z" id="Rectangle-22" fill="#000000" opacity="0.35009058" filter="url(#filter-1)"></path>
                <path d="M3,-5.68434189e-14 L77,-5.68434189e-14 C78.6568542,-5.7147778e-14 80,1.34314575 80,3 L80,73 C80,74.6568542 78.6568542,76 77,76 L54.175813,76 C53.102754,76 52.111407,76.573133 51.5759722,77.5030604 L43.4450979,91.6245247 C42.618361,93.0603771 40.78417,93.5541628 39.3483176,92.7274259 C38.9140328,92.4773728 38.5493059,92.1225131 38.287439,91.6952479 L29.5458348,77.4323373 C29.0004365,76.5424586 28.0317329,76 26.9880167,76 L3,76 C1.34314575,76 -6.90252123e-15,74.6568542 -7.10542736e-15,73 L-7.10542736e-15,3 C-7.30833348e-15,1.34314575 1.34314575,-5.65390597e-14 3,-5.68434189e-14 Z" id="Rectangle-22" fill="#427FE0"></path>
                <path d="M38.5799373,49.76875 C37.7492163,47.284375 36.7523511,44.46875 36.7523511,44.46875 C36.0877743,42.48125 34.5924765,40.825 32.4326019,40.1625 L22.630094,36.85 L20.968652,36.353125 C18.6426332,35.525 18.6426332,32.378125 20.8025078,31.55 C21.799373,31.21875 22.4639498,30.8875 22.4639498,30.8875 L56.0250784,17.96875 C56.0250784,17.96875 56.3573668,17.803125 56.6896552,17.803125 C58.3510972,17.140625 59.846395,18.796875 59.1818182,20.453125 L58.8495298,21.28125 C58.8495298,21.28125 53.200627,36.1875 49.8777429,44.46875 C48.5485893,48.44375 39.9090909,53.74375 38.5799373,49.76875 L38.5799373,49.76875 Z M36.7523511,54.903125 L39.7429467,63.68125 C40.2413793,65.171875 41.5705329,66 42.8996865,66 C44.2288401,66 45.5579937,65.3375 46.0564263,63.846875 L63.8338558,17.6375 C64,17.30625 64,16.809375 64,16.3125 C64,14.490625 62.5047022,13 60.677116,13 C60.3448276,13 59.846395,13 59.5141066,13.165625 L13.1598746,30.8875 C11.6645768,31.384375 11,32.709375 11,34.034375 C11,35.359375 11.830721,36.684375 13.3260188,37.18125 L22.1316614,40.1625 C28.6112853,42.48125 34.5924765,48.44375 36.7523511,54.903125 Z" id="Shape" fill="#FFFFFF" fill-rule="nonzero"></path>
            </g>
        </g>
    </g>
</svg>