<?xml version="1.0" encoding="UTF-8"?>
<svg width="100px" height="100px" viewBox="0 0 100 100" version="1.1" xmlns="http://www.w3.org/2000/svg" xmlns:xlink="http://www.w3.org/1999/xlink">
    <title>87EF79DC-E855-43EE-A3A1-3D7DA067FC5F</title>
    <g id="Main-Pages" stroke="none" stroke-width="1" fill="none" fill-rule="evenodd">
        <g id="Careers-Page" transform="translate(-1056.000000, -866.000000)" fill="#427FE0" fill-rule="nonzero">
            <g id="icn_positive_culture" transform="translate(1056.000000, 866.000000)">
                <path d="M50,0 C22.3857625,0 0,22.3857625 0,50 C0,77.6142375 22.3857625,100 50,100 C77.6142375,100 100,77.6142375 100,50 C99.9690007,22.398613 77.601387,0.0309992784 50,0 Z M29.1666667,29.1666667 C36.0670134,29.1744165 41.6589168,34.7663199 41.6666667,41.6666667 L33.3333333,41.6666667 C33.3333333,39.3654802 31.4678531,37.5 29.1666667,37.5 C26.8654802,37.5 25,39.3654802 25,41.6666667 L16.6666667,41.6666667 C16.6744165,34.7663199 22.2663199,29.1744165 29.1666667,29.1666667 L29.1666667,29.1666667 Z M50,83.3333333 C36.1993065,83.3178337 25.0154996,72.1340268 25,58.3333333 C25,56.0321469 26.8654802,54.1666667 29.1666667,54.1666667 L70.8333333,54.1666667 C73.1345198,54.1666667 75,56.0321469 75,58.3333333 C74.9845004,72.1340268 63.8006935,83.3178337 50,83.3333333 L50,83.3333333 Z M75,41.6666667 C75,39.3654802 73.1345198,37.5 70.8333333,37.5 C68.5321469,37.5 66.6666667,39.3654802 66.6666667,41.6666667 L58.3333333,41.6666667 C58.3333333,34.7631073 63.929774,29.1666667 70.8333333,29.1666667 C77.7368927,29.1666667 83.3333333,34.7631073 83.3333333,41.6666667 L75,41.6666667 Z" id="Shape"></path>
            </g>
        </g>
    </g>
</svg>