<?xml version="1.0" encoding="UTF-8"?>
<svg width="308px" height="257px" viewBox="0 0 308 257" version="1.1" xmlns="http://www.w3.org/2000/svg" xmlns:xlink="http://www.w3.org/1999/xlink">
    <title>img-awards-seo</title>
    <g id="Main-Pages" stroke="none" stroke-width="1" fill="none" fill-rule="evenodd">
        <g id="Home---FPA---Mobile" transform="translate(-34.000000, -596.000000)" fill="#FFFFFF">
            <g id="img-awards-seo" transform="translate(34.000000, 596.000000)">
                <path d="M132.1,75.2 C132.1,75.1 132.1,75.1 132.2,75 C132.9,71.9 133.4,68.8 133.8,65.6 C136.2,65.8 139.6,62.9 142.3,59.1 C144.5,55.9 146.4,51.8 146.5,49.1 C140.3,50.3 136.4,53.9 134.6,57.5 C134.7,54.2 134.7,50.9 134.4,47.6 C134.5,47.8 134.7,48 134.9,48.2 C137.1,47.8 139.4,44.4 140.6,40.3 C141.6,37 142.3,32.9 141.6,30.6 C136.5,33.3 134.1,37.4 133.4,41 C132.8,37.9 132,34.9 131,32 C133,31.2 134.6,27.6 135.1,23.4 C135.5,20 135.4,16 134.4,13.8 C129.8,17.5 128.2,22.2 128.4,25.9 C127.2,23.5 125.8,21.2 124.2,19 C125.7,17.8 126.1,14.3 125.4,10.6 C124.9,7.6 123.7,4.2 122.3,2.6 C119.4,6.8 119.3,11 120.3,14.2 C119,12.8 117.6,11.4 116,10.1 C115.9,8.3 114,5.9 111.3,4 C109,2.3 106,0.8 104,0.6 C105.3,7.9 111,11.1 114.4,10.8 C115.4,10.7 115.5,10.7 116.1,10.5 C116.1,10.5 116.1,10.4 116.1,10.4 C117.8,11.9 119.3,13.5 120.7,15.1 C121.1,16 121.6,16.8 122.1,17.4 C119.7,16 116.1,15.3 112.1,16.7 C113.1,18.4 115.8,20.2 118.3,21.4 C121.4,22.9 124.5,23.4 125.9,22.4 C125.9,22.3 125.9,22.2 125.9,22.2 C126.9,23.8 127.8,25.5 128.7,27.2 C128.9,28.5 129.3,29.6 129.9,30.4 C130.2,30.8 130.3,31.1 130.5,31.3 C131.8,34.8 132.8,38.5 133.5,42.3 C133.4,43.9 133.6,45.3 134,46.4 C134.1,47.4 134.2,48.5 134.2,49.6 C133.4,46.2 129.6,41.7 122.8,41.1 C123.1,43.2 125,46.1 127,48.4 C129.4,51.2 132.4,53.1 134.2,52.6 C134.2,52.5 134.3,52.4 134.3,52.3 C134.3,54.5 134.3,56.6 134.1,58.9 C133.5,60.5 133.3,62.1 133.4,63.4 C133.5,63.9 133.5,64.2 133.5,64.5 C133.4,64.9 133.4,65.3 133.3,65.8 C133.3,65.7 133.3,65.7 133.3,65.6 C133.4,61.9 129.7,55.8 121.6,54.7 C121.8,56.9 123.7,60.1 125.6,62.6 C128,65.6 131,67.8 133,67.5 C133,67.4 133,67.4 133.1,67.4 C132.7,69.9 132.2,72.4 131.6,75 C131.1,77.1 130.4,79.2 129.6,81.1 C130,77.3 127.9,71.6 121.4,68.4 C120.9,70.6 121.6,74.3 122.7,77.4 C124,80.9 126,83.9 127.9,84.4 C125.9,88.1 123.3,91.3 120.3,94.3 C121.8,90.8 121.3,84.5 115.6,79.7 C114.6,81.7 114.4,85.5 114.7,88.7 C115.1,92.3 116.3,95.4 117.8,96.6 C114.5,99.5 110.7,102.1 106.7,104.4 C109.5,101.8 111.6,95.7 108.2,89 C106.5,90.5 104.8,93.8 103.9,96.9 C102.7,100.6 102.7,104.4 104.1,105.8 C100.6,107.7 96.9,109.3 93.2,110.8 C96,108.3 98.2,103.1 96.2,96.8 C94.2,97.9 92,101 90.6,103.8 C88.9,107.1 88.2,110.6 89.1,112.3 C83.9,114.2 78.7,115.7 73.9,116.9 C69.1,115.7 63.9,114.2 58.7,112.3 C59.6,110.5 58.8,107 57.2,103.8 C55.7,100.9 53.5,97.9 51.6,96.8 C49.6,103.2 51.8,108.3 54.6,110.8 C50.9,109.3 47.2,107.7 43.7,105.8 C45.1,104.3 45,100.6 43.9,96.9 C42.9,93.8 41.3,90.5 39.6,89 C36.1,95.7 38.3,101.8 41.1,104.4 C37.1,102.1 33.4,99.5 30,96.6 C31.6,95.4 32.8,92.2 33.1,88.7 C33.4,85.5 33.2,81.7 32.2,79.7 C26.5,84.5 26,90.8 27.5,94.3 C24.5,91.3 21.9,88 19.9,84.4 C21.8,83.8 23.9,80.9 25.1,77.4 C26.2,74.4 26.9,70.7 26.4,68.4 C19.9,71.6 17.8,77.3 18.2,81.1 C17.4,79.2 16.7,77.1 16.2,75 C15.6,72.4 15.1,69.9 14.7,67.4 C14.7,67.4 14.7,67.5 14.8,67.5 C16.7,67.8 19.8,65.7 22.2,62.6 C24.2,60.1 26,56.9 26.2,54.7 C18.1,55.8 14.4,61.9 14.5,65.6 C14.5,65.7 14.5,65.8 14.5,65.8 C14.4,65.4 14.4,65 14.3,64.5 C14.3,64.2 14.4,63.9 14.4,63.4 C14.6,62.1 14.3,60.5 13.7,58.9 C13.6,56.7 13.5,54.5 13.5,52.3 C13.5,52.4 13.6,52.5 13.6,52.6 C15.4,53 18.4,51.1 20.8,48.4 C22.8,46.1 24.7,43.2 25,41.1 C18.2,41.7 14.4,46.1 13.6,49.6 C13.7,48.5 13.7,47.5 13.8,46.4 C14.3,45.3 14.5,43.9 14.3,42.3 C14.9,38.5 15.9,34.8 17.3,31.3 C17.5,31.1 17.6,30.8 17.9,30.4 C18.5,29.6 18.9,28.4 19.1,27.2 C19.9,25.5 20.8,23.8 21.9,22.2 C21.9,22.3 21.9,22.3 21.9,22.4 C23.3,23.4 26.5,22.9 29.5,21.4 C32,20.2 34.6,18.4 35.7,16.7 C31.7,15.3 28.1,16 25.7,17.4 C26.2,16.8 26.7,16 27.1,15.1 C28.5,13.5 30.1,11.9 31.7,10.4 C31.7,10.4 31.7,10.5 31.7,10.5 C32.2,10.8 32.4,10.8 33.4,10.8 C36.8,11.1 42.5,7.9 43.8,0.6 C41.8,0.7 38.8,2.3 36.5,4 C33.8,5.9 31.8,8.4 31.8,10.1 C30.3,11.4 28.8,12.8 27.5,14.2 C28.5,11.1 28.3,6.8 25.5,2.6 C24,4.2 22.9,7.6 22.4,10.6 C21.7,14.3 22.1,17.8 23.6,19 C22,21.2 20.6,23.5 19.4,25.9 C19.6,22.2 18.1,17.5 13.4,13.8 C12.4,16 12.3,20 12.7,23.4 C13.2,27.6 14.8,31.2 16.8,32 C15.7,34.9 14.9,37.9 14.4,41 C13.7,37.4 11.3,33.3 6.2,30.6 C5.6,33 6.2,37 7.2,40.3 C8.5,44.4 10.8,47.8 12.9,48.2 C13.1,48 13.3,47.8 13.4,47.6 C13.1,50.9 13.1,54.2 13.2,57.5 C11.3,53.9 7.5,50.3 1.3,49.1 C1.4,51.8 3.3,55.9 5.5,59.1 C8.1,63 11.5,65.8 14,65.6 C14.4,68.7 15,71.9 15.6,75 C15.6,75.1 15.6,75.1 15.7,75.2 C13.1,71.7 8,68.5 0.7,69.2 C1.5,71.8 4.5,75.1 7.5,77.6 C11.2,80.6 15.3,82.4 17.6,81.5 C17.6,81.4 17.6,81.3 17.6,81.3 C18.8,84.1 20.3,86.7 22.2,89.2 C18.7,87 13.3,85.9 7.1,88.3 C8.6,90.6 12.5,92.9 16,94.4 C20.4,96.3 24.9,96.8 26.8,95.3 C26.8,94.9 26.7,94.6 26.6,94.3 C29.1,96.9 32,99.3 35.1,101.5 C30.9,100.6 25.1,101.6 20.1,106.4 C22.4,107.9 26.9,108.6 30.7,108.6 C35.4,108.6 39.6,107.4 40.9,105.4 C43.6,107 46.4,108.5 49.3,109.9 C45,109.8 39.5,111.7 35.4,117.3 C37.9,118.4 42.4,118.3 46.3,117.6 C50.9,116.8 54.8,114.9 55.8,112.7 C60.4,114.6 65.3,116.3 70.3,117.7 C66.3,118.6 62.6,119.4 59.5,119.9 L60.3,121.6 C64.9,120.8 69.5,119.8 74,118.7 C78.5,119.9 83.1,120.9 87.7,121.6 L88.5,119.9 C85.4,119.3 81.7,118.6 77.7,117.7 C82.7,116.3 87.5,114.6 92.2,112.7 C93.2,114.9 97.1,116.8 101.7,117.6 C105.5,118.2 110.1,118.3 112.6,117.3 C108.5,111.7 102.9,109.8 98.6,109.9 C101.5,108.5 104.4,107 107,105.4 C108.3,107.4 112.6,108.6 117.2,108.6 C121.1,108.6 125.5,107.9 127.8,106.4 C122.8,101.5 117,100.6 112.8,101.5 C115.9,99.2 118.8,96.8 121.3,94.3 C121.2,94.6 121.1,94.9 121.1,95.3 C123,96.8 127.5,96.3 131.9,94.4 C135.5,92.9 139.3,90.5 140.8,88.3 C134.6,85.9 129.2,87 125.7,89.2 C127.6,86.7 129.1,84 130.3,81.3 C130.3,81.4 130.3,81.5 130.3,81.5 C132.5,82.4 136.7,80.7 140.4,77.6 C143.4,75.1 146.4,71.8 147.2,69.2 C139.8,68.5 134.7,71.7 132.1,75.2 Z" id="Path"></path>
                <path d="M124.1,34.3 C126.9,36.4 130,37.6 131.6,36.8 C131.7,36.2 131.6,36.1 131.4,35.1 C130.6,31.8 126,27.3 118.7,28.3 C119.5,30.2 121.8,32.6 124.1,34.3 Z" id="Path"></path>
                <g id="Group" transform="translate(33.000000, 24.000000)" fill-rule="nonzero">
                    <path d="M13,0.9 C14.9,0.9 16,1.8 16.7,2.9 L15.1,3.8 C14.7,3.2 13.9,2.7 13,2.7 C11.4,2.7 10.2,4 10.2,5.7 C10.2,7.4 11.4,8.7 13,8.7 C13.8,8.7 14.6,8.4 14.9,8 L14.9,6.9 L12.5,6.9 L12.5,5.3 L16.8,5.3 L16.8,8.7 C15.9,9.7 14.6,10.4 13,10.4 C10.4,10.4 8.2,8.6 8.2,5.7 C8.2,2.7 10.4,0.9 13,0.9 Z" id="Path"></path>
                    <path d="M21.7,6.8 L20.3,6.8 L20.3,10 L18.4,10 L18.4,1 L22.6,1 C24.5,1 25.6,2.2 25.6,3.9 C25.6,5.5 24.6,6.3 23.6,6.6 L25.6,10 L23.4,10 L21.7,6.8 Z M22.3,2.7 L20.3,2.7 L20.3,5.2 L22.3,5.2 C23.1,5.2 23.7,4.7 23.7,4 C23.6,3.2 23.1,2.7 22.3,2.7 Z" id="Shape"></path>
                    <path d="M31.3,0.9 C34,0.9 36,2.8 36,5.6 C36,8.3 34,10.3 31.3,10.3 C28.6,10.3 26.6,8.4 26.6,5.6 C26.6,2.8 28.6,0.9 31.3,0.9 Z M31.3,2.6 C29.6,2.6 28.6,3.9 28.6,5.6 C28.6,7.3 29.7,8.6 31.3,8.6 C33,8.6 34,7.3 34,5.6 C34.1,3.9 33,2.6 31.3,2.6 Z" id="Shape"></path>
                    <polygon id="Path" points="42.4 3.9 40.8 10 38.8 10 36.2 1 38.3 1 39.9 7.5 41.6 1 43.1 1 44.8 7.5 46.4 1 48.6 1 46 10 44 10"></polygon>
                    <polygon id="Path" points="49.5 1 51.4 1 51.4 10 49.5 10"></polygon>
                    <polygon id="Path" points="55.1 4 55.1 10 53.2 10 53.2 1 55.2 1 59.4 6.8 59.4 1 61.3 1 61.3 10 59.4 10"></polygon>
                    <path d="M67.4,0.9 C69.3,0.9 70.4,1.8 71.1,2.9 L69.5,3.8 C69.1,3.2 68.3,2.7 67.4,2.7 C65.8,2.7 64.6,4 64.6,5.7 C64.6,7.4 65.8,8.7 67.4,8.7 C68.2,8.7 69,8.4 69.3,8 L69.3,6.9 L66.9,6.9 L66.9,5.3 L71.2,5.3 L71.2,8.7 C70.3,9.7 69,10.4 67.4,10.4 C64.8,10.4 62.6,8.6 62.6,5.7 C62.6,2.7 64.8,0.9 67.4,0.9 Z" id="Path"></path>
                    <path d="M0.5,17.2 L5.2,17.2 C6.9,17.2 7.8,18.3 7.8,19.5 C7.8,20.6 7.1,21.4 6.2,21.6 C7.2,21.7 7.9,22.7 7.9,23.8 C7.9,25.2 7,26.2 5.3,26.2 L0.4,26.2 L0.4,17.2 L0.5,17.2 Z M4.8,20.8 C5.4,20.8 5.9,20.4 5.9,19.8 C5.9,19.2 5.5,18.8 4.8,18.8 L2.4,18.8 L2.4,20.8 L4.8,20.8 Z M4.9,24.6 C5.6,24.6 6.1,24.2 6.1,23.5 C6.1,22.9 5.7,22.4 4.9,22.4 L2.4,22.4 L2.4,24.5 L4.9,24.5 L4.9,24.6 Z" id="Shape"></path>
                    <path d="M9.4,17.2 L11.3,17.2 L11.3,22.5 C11.3,23.8 12,24.6 13.4,24.6 C14.8,24.6 15.5,23.7 15.5,22.5 L15.5,17.2 L17.4,17.2 L17.4,22.6 C17.4,24.8 16.1,26.4 13.4,26.4 C10.6,26.4 9.4,24.9 9.4,22.6 L9.4,17.2 Z" id="Path"></path>
                    <path d="M19.7,23.5 C20.3,24.2 21.3,24.7 22.6,24.7 C23.7,24.7 24.2,24.2 24.2,23.7 C24.2,23 23.4,22.8 22.4,22.6 C20.9,22.3 19,21.9 19,19.8 C19,18.3 20.3,17.1 22.4,17.1 C23.8,17.1 25,17.5 25.9,18.4 L24.8,19.8 C24.1,19.1 23.1,18.8 22.2,18.8 C21.3,18.8 20.9,19.2 20.9,19.7 C20.9,20.3 21.7,20.5 22.7,20.7 C24.2,21 26.1,21.5 26.1,23.5 C26.1,25.1 24.9,26.4 22.5,26.4 C20.8,26.4 19.5,25.8 18.7,25 L19.7,23.5 Z" id="Path"></path>
                    <polygon id="Path" points="27.3 17.2 29.2 17.2 29.2 26.2 27.3 26.2"></polygon>
                    <polygon id="Path" points="33 20.2 33 26.2 31 26.2 31 17.2 33 17.2 37.2 23 37.2 17.2 39.1 17.2 39.1 26.2 37.2 26.2"></polygon>
                    <polygon id="Path" points="40.9 17.2 47.3 17.2 47.3 18.8 42.8 18.8 42.8 20.8 47.2 20.8 47.2 22.4 42.8 22.4 42.8 24.5 47.3 24.5 47.3 26.2 40.9 26.2"></polygon>
                    <path d="M49.2,23.5 C49.8,24.2 50.8,24.7 52.1,24.7 C53.2,24.7 53.7,24.2 53.7,23.7 C53.7,23 52.9,22.8 51.9,22.6 C50.4,22.3 48.5,21.9 48.5,19.8 C48.5,18.3 49.8,17.1 51.9,17.1 C53.3,17.1 54.5,17.5 55.4,18.4 L54.3,19.8 C53.6,19.1 52.6,18.8 51.7,18.8 C50.8,18.8 50.4,19.2 50.4,19.7 C50.4,20.3 51.2,20.5 52.2,20.7 C53.7,21 55.6,21.5 55.6,23.5 C55.6,25.1 54.4,26.4 52,26.4 C50.3,26.4 49,25.8 48.2,25 L49.2,23.5 Z" id="Path"></path>
                    <path d="M57.3,23.5 C57.9,24.2 58.9,24.7 60.2,24.7 C61.3,24.7 61.8,24.2 61.8,23.7 C61.8,23 61,22.8 60,22.6 C58.5,22.3 56.6,21.9 56.6,19.8 C56.6,18.3 57.9,17.1 60,17.1 C61.4,17.1 62.6,17.5 63.5,18.4 L62.4,19.8 C61.7,19.1 60.7,18.8 59.8,18.8 C58.9,18.8 58.5,19.2 58.5,19.7 C58.5,20.3 59.3,20.5 60.3,20.7 C61.8,21 63.7,21.5 63.7,23.5 C63.7,25.1 62.5,26.4 60.1,26.4 C58.4,26.4 57.1,25.8 56.3,25 L57.3,23.5 Z" id="Path"></path>
                    <polygon id="Path" points="65 17.2 71.4 17.2 71.4 18.8 66.9 18.8 66.9 20.8 71.3 20.8 71.3 22.4 66.9 22.4 66.9 24.5 71.4 24.5 71.4 26.2 65 26.2"></polygon>
                    <path d="M73.3,23.5 C73.9,24.2 74.9,24.7 76.2,24.7 C77.3,24.7 77.8,24.2 77.8,23.7 C77.8,23 77,22.8 76,22.6 C74.5,22.3 72.6,21.9 72.6,19.8 C72.6,18.3 73.9,17.1 76,17.1 C77.4,17.1 78.6,17.5 79.5,18.4 L78.4,19.8 C77.7,19.1 76.7,18.8 75.8,18.8 C74.9,18.8 74.5,19.2 74.5,19.7 C74.5,20.3 75.3,20.5 76.3,20.7 C77.8,21 79.7,21.5 79.7,23.5 C79.7,25.1 78.5,26.4 76.1,26.4 C74.4,26.4 73.1,25.8 72.3,25 L73.3,23.5 Z" id="Path"></path>
                    <path d="M20.6,33.3 C23.3,33.3 25.3,35.2 25.3,38 C25.3,40.7 23.3,42.7 20.6,42.7 C17.9,42.7 15.9,40.8 15.9,38 C15.9,35.2 17.9,33.3 20.6,33.3 Z M20.6,35 C18.9,35 17.9,36.3 17.9,38 C17.9,39.7 19,41 20.6,41 C22.3,41 23.3,39.7 23.3,38 C23.4,36.3 22.3,35 20.6,35 Z" id="Shape"></path>
                    <polygon id="Path" points="28.6 36.4 28.6 42.4 26.7 42.4 26.7 33.4 28.7 33.4 32.9 39.2 32.9 33.4 34.8 33.4 34.8 42.4 32.9 42.4"></polygon>
                    <polygon id="Path" points="36.5 33.4 38.4 33.4 38.4 40.7 42.2 40.7 42.2 42.4 36.5 42.4"></polygon>
                    <polygon id="Path" points="43.6 33.4 45.5 33.4 45.5 42.4 43.6 42.4"></polygon>
                    <polygon id="Path" points="49.2 36.4 49.2 42.4 47.3 42.4 47.3 33.4 49.3 33.4 53.5 39.2 53.5 33.4 55.4 33.4 55.4 42.4 53.5 42.4"></polygon>
                    <polygon id="Path" points="57.1 33.4 63.5 33.4 63.5 35 59 35 59 37 63.4 37 63.4 38.6 59 38.6 59 40.7 63.5 40.7 63.5 42.4 57.1 42.4"></polygon>
                </g>
                <g id="Group" transform="translate(58.000000, 76.000000)" fill-rule="nonzero">
                    <path d="M3.8,0.3 C5,0.3 5.8,0.8 6.3,1.6 L5.6,2 C5.2,1.5 4.6,1.1 3.9,1.1 C2.6,1.1 1.6,2.1 1.6,3.5 C1.6,4.9 2.6,5.9 3.9,5.9 C4.6,5.9 5.2,5.6 5.5,5.3 L5.5,4.2 L3.5,4.2 L3.5,3.4 L6.5,3.4 L6.5,5.7 C5.9,6.4 5,6.8 3.9,6.8 C2.1,6.8 0.6,5.5 0.6,3.5 C0.6,1.6 2,0.3 3.8,0.3 Z" id="Path"></path>
                    <path d="M7.3,4.5 C7.3,3.2 8.2,2.1 9.6,2.1 C11,2.1 11.9,3.2 11.9,4.5 C11.9,5.8 11,6.9 9.6,6.9 C8.2,6.9 7.3,5.8 7.3,4.5 Z M11.1,4.5 C11.1,3.6 10.6,2.9 9.7,2.9 C8.8,2.9 8.3,3.7 8.3,4.5 C8.3,5.4 8.8,6.2 9.7,6.2 C10.6,6.1 11.1,5.3 11.1,4.5 Z" id="Shape"></path>
                    <path d="M12.7,4.5 C12.7,3.2 13.6,2.1 15,2.1 C16.4,2.1 17.3,3.2 17.3,4.5 C17.3,5.8 16.4,6.9 15,6.9 C13.6,6.9 12.7,5.8 12.7,4.5 Z M16.5,4.5 C16.5,3.6 16,2.9 15.1,2.9 C14.2,2.9 13.7,3.7 13.7,4.5 C13.7,5.4 14.2,6.2 15.1,6.2 C16,6.1 16.5,5.3 16.5,4.5 Z" id="Shape"></path>
                    <path d="M18.8,7.3 C19.2,7.7 19.6,7.9 20.3,7.9 C21,7.9 21.7,7.6 21.7,6.6 L21.7,6 C21.3,6.5 20.8,6.8 20.2,6.8 C19,6.8 18.2,5.9 18.2,4.4 C18.2,2.9 19.1,2 20.2,2 C20.8,2 21.3,2.3 21.7,2.8 L21.7,2.1 L22.6,2.1 L22.6,6.5 C22.6,8.1 21.4,8.5 20.3,8.5 C19.5,8.5 19,8.3 18.4,7.8 L18.8,7.3 Z M21.7,3.5 C21.5,3.1 20.9,2.8 20.4,2.8 C19.5,2.8 19,3.5 19,4.4 C19,5.4 19.5,6 20.4,6 C20.9,6 21.4,5.7 21.7,5.3 L21.7,3.5 Z" id="Shape"></path>
                    <polygon id="Path" points="23.9 0.4 24.8 0.4 24.8 6.7 23.9 6.7"></polygon>
                    <path d="M28.2,2.1 C29.6,2.1 30.4,3.2 30.4,4.6 L30.4,4.8 L26.8,4.8 C26.9,5.6 27.4,6.2 28.4,6.2 C28.9,6.2 29.4,6 29.8,5.7 L30.2,6.3 C29.7,6.7 29.1,7 28.4,7 C27,7 26,6 26,4.6 C25.9,3.1 26.8,2.1 28.2,2.1 Z M26.8,4.1 L29.6,4.1 C29.6,3.5 29.2,2.7 28.2,2.7 C27.3,2.8 26.8,3.5 26.8,4.1 Z" id="Shape"></path>
                    <path d="M5.7,17.4 C8.1,15.6 9.2,14.6 9.2,13.6 C9.2,12.9 8.6,12.5 8,12.5 C7.2,12.5 6.7,12.8 6.3,13.3 L5.7,12.7 C6.2,12 7.1,11.7 8,11.7 C9.1,11.7 10.2,12.3 10.2,13.6 C10.2,14.8 9,15.9 7.3,17.3 L10.3,17.3 L10.3,18.1 L5.8,18.1 L5.8,17.4 L5.7,17.4 Z" id="Path"></path>
                    <path d="M13.8,11.7 C15.6,11.7 16.3,13.4 16.3,15 C16.3,16.6 15.6,18.3 13.8,18.3 C12,18.3 11.3,16.6 11.3,15 C11.3,13.4 12,11.7 13.8,11.7 Z M13.8,12.6 C12.7,12.6 12.3,13.8 12.3,15 C12.3,16.2 12.7,17.4 13.8,17.4 C14.9,17.4 15.3,16.2 15.3,15 C15.3,13.8 14.9,12.6 13.8,12.6 Z" id="Shape"></path>
                    <polygon id="Path" points="18.4 13.1 17.4 14.2 16.8 13.6 18.5 11.9 19.3 11.9 19.3 18.2 18.3 18.2 18.3 13.1"></polygon>
                    <path d="M22,14.9 C21.3,14.7 20.6,14.2 20.6,13.4 C20.6,12.2 21.8,11.7 22.9,11.7 C24,11.7 25.1,12.2 25.1,13.4 C25.1,14.2 24.5,14.7 23.7,14.9 C24.5,15.1 25.2,15.7 25.2,16.6 C25.2,17.7 24.1,18.3 22.9,18.3 C21.6,18.3 20.5,17.7 20.5,16.6 C20.5,15.7 21.2,15.1 22,14.9 Z M22.9,15.3 C22.5,15.3 21.5,15.7 21.5,16.4 C21.5,17 22.1,17.4 22.9,17.4 C23.6,17.4 24.3,17 24.3,16.4 C24.3,15.7 23.3,15.4 22.9,15.3 Z M22.9,12.6 C22.2,12.6 21.6,13 21.6,13.6 C21.6,14.3 22.5,14.5 22.9,14.6 C23.3,14.5 24.2,14.3 24.2,13.6 C24.2,12.9 23.6,12.6 22.9,12.6 Z" id="Shape"></path>
                </g>
                <path d="M176,35.1 C175.8,36 175.7,36.2 175.8,36.8 C177.4,37.5 180.5,36.4 183.3,34.3 C185.6,32.6 187.9,30.2 188.6,28.3 C181.5,27.4 176.8,31.9 176,35.1 Z" id="Path"></path>
                <path d="M15,35.1 C14.8,36 14.7,36.2 14.8,36.8 C16.4,37.5 19.5,36.4 22.3,34.3 C24.6,32.6 26.9,30.2 27.6,28.3 C20.5,27.4 15.8,31.9 15,35.1 Z" id="Path"></path>
                <path d="M292.1,75.2 C292.1,75.1 292.1,75.1 292.2,75 C292.9,71.9 293.4,68.8 293.8,65.6 C296.2,65.8 299.6,62.9 302.3,59.1 C304.5,55.9 306.4,51.8 306.5,49.1 C300.3,50.3 296.4,53.9 294.6,57.5 C294.7,54.2 294.7,50.9 294.4,47.6 C294.5,47.8 294.7,48 294.9,48.2 C297.1,47.8 299.4,44.4 300.6,40.3 C301.6,37 302.3,32.9 301.6,30.6 C296.5,33.3 294.1,37.4 293.4,41 C292.8,37.9 292,34.9 291,32 C293,31.2 294.6,27.6 295.1,23.4 C295.5,20 295.4,16 294.4,13.8 C289.8,17.5 288.2,22.2 288.4,25.9 C287.2,23.5 285.8,21.2 284.2,19 C285.7,17.8 286.1,14.3 285.4,10.6 C284.9,7.6 283.7,4.2 282.3,2.6 C279.4,6.8 279.3,11 280.3,14.2 C279,12.8 277.6,11.4 276,10.1 C275.9,8.3 274,5.9 271.3,4 C269,2.3 266,0.8 264,0.6 C265.3,7.9 271,11.1 274.4,10.8 C275.4,10.7 275.5,10.7 276.1,10.5 C276.1,10.5 276.1,10.4 276.1,10.4 C277.8,11.9 279.3,13.5 280.7,15.1 C281.1,16 281.6,16.8 282.1,17.4 C279.7,16 276.1,15.3 272.1,16.7 C273.1,18.4 275.8,20.2 278.3,21.4 C281.4,22.9 284.5,23.4 285.9,22.4 C285.9,22.3 285.9,22.2 285.9,22.2 C286.9,23.8 287.8,25.5 288.7,27.2 C288.9,28.5 289.3,29.6 289.9,30.4 C290.2,30.8 290.3,31.1 290.5,31.3 C291.8,34.8 292.8,38.5 293.5,42.3 C293.4,43.9 293.6,45.3 294,46.4 C294.1,47.4 294.2,48.5 294.2,49.6 C293.4,46.2 289.6,41.7 282.8,41.1 C283.1,43.2 285,46.1 287,48.4 C289.4,51.2 292.4,53.1 294.2,52.6 C294.2,52.5 294.3,52.4 294.3,52.3 C294.3,54.5 294.3,56.6 294.1,58.9 C293.5,60.5 293.3,62.1 293.4,63.4 C293.5,63.9 293.5,64.2 293.5,64.5 C293.4,64.9 293.4,65.3 293.3,65.8 C293.3,65.7 293.3,65.7 293.3,65.6 C293.4,61.9 289.7,55.8 281.6,54.7 C281.8,56.9 283.7,60.1 285.6,62.6 C288,65.6 291,67.8 293,67.5 C293,67.4 293,67.4 293.1,67.4 C292.7,69.9 292.2,72.4 291.6,75 C291.1,77.1 290.4,79.2 289.6,81.1 C290,77.3 287.9,71.6 281.4,68.4 C280.9,70.6 281.6,74.3 282.7,77.4 C284,80.9 286,83.9 287.9,84.4 C285.9,88.1 283.3,91.3 280.3,94.3 C281.8,90.8 281.3,84.5 275.6,79.7 C274.6,81.7 274.4,85.5 274.7,88.7 C275.1,92.3 276.3,95.4 277.8,96.6 C274.5,99.5 270.7,102.1 266.7,104.4 C269.5,101.8 271.6,95.7 268.2,89 C266.5,90.5 264.8,93.8 263.9,96.9 C262.7,100.6 262.7,104.4 264.1,105.8 C260.6,107.7 256.9,109.3 253.2,110.8 C256,108.3 258.2,103.1 256.2,96.8 C254.2,97.9 252,101 250.6,103.8 C248.9,107.1 248.2,110.6 249.1,112.3 C243.9,114.2 238.7,115.7 233.9,116.9 C229.1,115.7 223.9,114.2 218.7,112.3 C219.6,110.5 218.8,107 217.2,103.8 C215.7,100.9 213.5,97.9 211.6,96.8 C209.6,103.2 211.8,108.3 214.6,110.8 C210.9,109.3 207.2,107.7 203.7,105.8 C205.1,104.3 205,100.6 203.9,96.9 C202.9,93.8 201.3,90.5 199.6,89 C196.1,95.7 198.3,101.8 201.1,104.4 C197.1,102.1 193.4,99.5 190,96.6 C191.6,95.4 192.8,92.2 193.1,88.7 C193.4,85.5 193.2,81.7 192.2,79.7 C186.5,84.5 186,90.8 187.5,94.3 C184.5,91.3 181.9,88 179.9,84.4 C181.8,83.8 183.9,80.9 185.1,77.4 C186.2,74.4 186.9,70.7 186.4,68.4 C179.9,71.6 177.8,77.3 178.2,81.1 C177.4,79.2 176.7,77.1 176.2,75 C175.6,72.4 175.1,69.9 174.7,67.4 C174.7,67.4 174.7,67.5 174.8,67.5 C176.7,67.8 179.8,65.7 182.2,62.6 C184.2,60.1 186,56.9 186.2,54.7 C178.1,55.8 174.4,61.9 174.5,65.6 C174.5,65.7 174.5,65.8 174.5,65.8 C174.4,65.4 174.4,65 174.3,64.5 C174.3,64.2 174.4,63.9 174.4,63.4 C174.6,62.1 174.3,60.5 173.7,58.9 C173.6,56.7 173.5,54.5 173.5,52.3 C173.5,52.4 173.6,52.5 173.6,52.6 C175.4,53 178.4,51.1 180.8,48.4 C182.8,46.1 184.7,43.2 185,41.1 C178.2,41.7 174.4,46.1 173.6,49.6 C173.7,48.5 173.7,47.5 173.8,46.4 C174.3,45.3 174.5,43.9 174.3,42.3 C174.9,38.5 175.9,34.8 177.3,31.3 C177.5,31.1 177.6,30.8 177.9,30.4 C178.5,29.6 178.9,28.4 179.1,27.2 C179.9,25.5 180.8,23.8 181.9,22.2 C181.9,22.3 181.9,22.3 181.9,22.4 C183.3,23.4 186.5,22.9 189.5,21.4 C192,20.2 194.6,18.4 195.7,16.7 C191.7,15.3 188.1,16 185.7,17.4 C186.2,16.8 186.7,16 187.1,15.1 C188.5,13.5 190.1,11.9 191.7,10.4 C191.7,10.4 191.7,10.5 191.7,10.5 C192.2,10.8 192.4,10.8 193.4,10.8 C196.8,11.1 202.5,7.9 203.8,0.6 C201.8,0.7 198.8,2.3 196.5,4 C193.8,5.9 191.8,8.4 191.8,10.1 C190.3,11.4 188.8,12.8 187.5,14.2 C188.5,11.1 188.3,6.8 185.5,2.6 C184,4.2 182.9,7.6 182.4,10.6 C181.7,14.3 182.1,17.8 183.6,19 C182,21.2 180.6,23.5 179.4,25.9 C179.6,22.2 178.1,17.5 173.4,13.8 C172.4,16 172.3,20 172.7,23.4 C173.2,27.6 174.8,31.2 176.8,32 C175.7,34.9 174.9,37.9 174.4,41 C173.7,37.4 171.3,33.3 166.2,30.6 C165.6,33 166.2,37 167.2,40.3 C168.5,44.4 170.8,47.8 172.9,48.2 C173.1,48 173.3,47.8 173.4,47.6 C173.1,50.9 173.1,54.2 173.2,57.5 C171.3,53.9 167.5,50.3 161.3,49.1 C161.4,51.8 163.3,55.9 165.5,59.1 C168.1,63 171.5,65.8 174,65.6 C174.4,68.7 175,71.9 175.6,75 C175.6,75.1 175.6,75.1 175.7,75.2 C173.1,71.7 168,68.5 160.7,69.2 C161.5,71.8 164.5,75.1 167.5,77.6 C171.2,80.6 175.3,82.4 177.6,81.5 C177.6,81.4 177.6,81.3 177.6,81.3 C178.8,84.1 180.3,86.7 182.2,89.2 C178.7,87 173.3,85.9 167.1,88.3 C168.6,90.6 172.5,92.9 176,94.4 C180.4,96.3 184.9,96.8 186.8,95.3 C186.8,94.9 186.7,94.6 186.6,94.3 C189.1,96.9 192,99.3 195.1,101.5 C190.9,100.6 185.1,101.6 180.1,106.4 C182.4,107.9 186.9,108.6 190.7,108.6 C195.4,108.6 199.6,107.4 200.9,105.4 C203.6,107 206.4,108.5 209.3,109.9 C205,109.8 199.5,111.7 195.4,117.3 C197.9,118.4 202.4,118.3 206.3,117.6 C210.9,116.8 214.8,114.9 215.8,112.7 C220.4,114.6 225.3,116.3 230.3,117.7 C226.3,118.6 222.6,119.4 219.5,119.9 L220.3,121.6 C224.9,120.8 229.5,119.8 234,118.7 C238.5,119.9 243.1,120.9 247.7,121.6 L248.5,119.9 C245.4,119.3 241.7,118.6 237.7,117.7 C242.7,116.3 247.5,114.6 252.2,112.7 C253.2,114.9 257.1,116.8 261.7,117.6 C265.5,118.2 270.1,118.3 272.6,117.3 C268.5,111.7 262.9,109.8 258.6,109.9 C261.5,108.5 264.4,107 267,105.4 C268.3,107.4 272.6,108.6 277.2,108.6 C281.1,108.6 285.5,107.9 287.8,106.4 C282.8,101.5 277,100.6 272.8,101.5 C275.9,99.2 278.8,96.8 281.3,94.3 C281.2,94.6 281.1,94.9 281.1,95.3 C283,96.8 287.5,96.3 291.9,94.4 C295.5,92.9 299.3,90.5 300.8,88.3 C294.6,85.9 289.2,87 285.7,89.2 C287.6,86.7 289.1,84 290.3,81.3 C290.3,81.4 290.3,81.5 290.3,81.5 C292.5,82.4 296.7,80.7 300.4,77.6 C303.4,75.1 306.4,71.8 307.2,69.2 C299.8,68.5 294.7,71.7 292.1,75.2 Z" id="Path"></path>
                <path d="M284.1,34.3 C286.9,36.4 290,37.6 291.6,36.8 C291.7,36.2 291.6,36.1 291.4,35.1 C290.6,31.8 286,27.3 278.7,28.3 C279.5,30.2 281.8,32.6 284.1,34.3 Z" id="Path"></path>
                <g id="Group" transform="translate(206.000000, 24.000000)" fill-rule="nonzero">
                    <path d="M11.4,1 L16.1,1 C17.8,1 18.7,2.1 18.7,3.3 C18.7,4.4 18,5.2 17.1,5.4 C18.1,5.5 18.8,6.5 18.8,7.6 C18.8,9 17.9,10 16.2,10 L11.3,10 L11.3,1 L11.4,1 Z M15.7,4.6 C16.3,4.6 16.8,4.2 16.8,3.6 C16.8,3 16.4,2.6 15.7,2.6 L13.3,2.6 L13.3,4.6 L15.7,4.6 Z M15.7,8.4 C16.4,8.4 16.9,8 16.9,7.3 C16.9,6.7 16.5,6.2 15.7,6.2 L13.2,6.2 L13.2,8.3 L15.7,8.3 L15.7,8.4 Z" id="Shape"></path>
                    <polygon id="Path" points="20.3 1 26.7 1 26.7 2.6 22.2 2.6 22.2 4.6 26.6 4.6 26.6 6.2 22.2 6.2 22.2 8.3 26.7 8.3 26.7 10 20.3 10"></polygon>
                    <path d="M28.6,7.3 C29.2,8 30.2,8.5 31.5,8.5 C32.6,8.5 33.1,8 33.1,7.5 C33.1,6.8 32.3,6.6 31.3,6.4 C29.8,6.1 27.9,5.7 27.9,3.6 C27.9,2.1 29.2,0.9 31.3,0.9 C32.7,0.9 33.9,1.3 34.8,2.2 L33.7,3.6 C33,2.9 32,2.6 31.1,2.6 C30.2,2.6 29.8,3 29.8,3.5 C29.8,4.1 30.6,4.3 31.6,4.5 C33.1,4.8 35,5.3 35,7.3 C35,8.9 33.8,10.2 31.4,10.2 C29.7,10.2 28.4,9.6 27.6,8.8 L28.6,7.3 Z" id="Path"></path>
                    <polygon id="Path" points="38.3 2.7 35.7 2.7 35.7 1 42.9 1 42.9 2.7 40.3 2.7 40.3 10 38.4 10 38.4 2.7"></polygon>
                    <polygon id="Path" points="20.9 17.2 22.8 17.2 22.8 26.2 20.9 26.2"></polygon>
                    <polygon id="Path" points="26.5 20.2 26.5 26.2 24.6 26.2 24.6 17.2 26.6 17.2 30.8 23 30.8 17.2 32.7 17.2 32.7 26.2 30.8 26.2"></polygon>
                    <path d="M1.6,39.7 C2.2,40.4 3.2,40.9 4.5,40.9 C5.6,40.9 6.1,40.4 6.1,39.9 C6.1,39.2 5.3,39 4.3,38.8 C2.8,38.5 0.9,38.1 0.9,36 C0.9,34.5 2.2,33.3 4.3,33.3 C5.7,33.3 6.9,33.7 7.8,34.6 L6.7,36 C6,35.3 5,35 4.1,35 C3.2,35 2.8,35.4 2.8,35.9 C2.8,36.5 3.6,36.7 4.6,36.9 C6.1,37.2 8,37.7 8,39.7 C8,41.3 6.8,42.6 4.4,42.6 C2.7,42.6 1.4,42 0.6,41.2 L1.6,39.7 Z" id="Path"></path>
                    <polygon id="Path" points="9.3 33.4 15.7 33.4 15.7 35 11.2 35 11.2 37 15.6 37 15.6 38.6 11.2 38.6 11.2 40.7 15.7 40.7 15.7 42.4 9.3 42.4"></polygon>
                    <path d="M22.9,40.9 L18.9,40.9 L18.3,42.5 L16.2,42.5 L19.7,33.5 L22.1,33.5 L25.6,42.5 L23.5,42.5 L22.9,40.9 Z M19.4,39.2 L22.4,39.2 L20.9,35.1 L19.4,39.2 Z" id="Shape"></path>
                    <path d="M29.7,39.2 L28.3,39.2 L28.3,42.4 L26.4,42.4 L26.4,33.4 L30.6,33.4 C32.5,33.4 33.6,34.6 33.6,36.3 C33.6,37.9 32.6,38.7 31.6,39 L33.6,42.4 L31.4,42.4 L29.7,39.2 Z M30.3,35.1 L28.3,35.1 L28.3,37.6 L30.3,37.6 C31.1,37.6 31.7,37.1 31.7,36.4 C31.7,35.6 31.1,35.1 30.3,35.1 Z" id="Shape"></path>
                    <path d="M34.6,37.9 C34.6,35.1 36.7,33.2 39.3,33.2 C41.4,33.2 42.5,34.3 43.1,35.4 L41.5,36.2 C41.1,35.5 40.3,34.9 39.3,34.9 C37.7,34.9 36.5,36.2 36.5,37.9 C36.5,39.6 37.7,40.9 39.3,40.9 C40.3,40.9 41.1,40.3 41.5,39.6 L43.1,40.4 C42.5,41.5 41.3,42.6 39.3,42.6 C36.7,42.6 34.6,40.7 34.6,37.9 Z" id="Path"></path>
                    <polygon id="Path" points="50.5 38.7 46.2 38.7 46.2 42.5 44.3 42.5 44.3 33.5 46.2 33.5 46.2 37 50.5 37 50.5 33.5 52.4 33.5 52.4 42.5 50.5 42.5"></polygon>
                </g>
                <g id="Group" transform="translate(213.000000, 76.000000)" fill-rule="nonzero">
                    <polygon id="Path" points="2.3 1.3 0.3 1.3 0.3 0.5 5.2 0.5 5.2 1.3 3.2 1.3 3.2 6.8 2.2 6.8 2.2 1.3"></polygon>
                    <path d="M4.9,4.5 C4.9,3.2 5.8,2.1 7.2,2.1 C8.6,2.1 9.5,3.2 9.5,4.5 C9.5,5.8 8.6,6.9 7.2,6.9 C5.7,6.9 4.9,5.8 4.9,4.5 Z M8.6,4.5 C8.6,3.6 8.1,2.9 7.2,2.9 C6.3,2.9 5.8,3.7 5.8,4.5 C5.8,5.4 6.3,6.2 7.2,6.2 C8.1,6.1 8.6,5.3 8.6,4.5 Z" id="Shape"></path>
                    <path d="M10.6,8.5 L10.6,2.2 L11.5,2.2 L11.5,2.9 C11.8,2.4 12.4,2.1 13,2.1 C14.2,2.1 15,3 15,4.5 C15,6 14.2,6.9 13,6.9 C12.4,6.9 11.9,6.6 11.5,6.1 L11.5,8.5 L10.6,8.5 L10.6,8.5 Z M12.7,2.8 C12.2,2.8 11.7,3.1 11.4,3.5 L11.4,5.4 C11.6,5.8 12.2,6.1 12.7,6.1 C13.6,6.1 14.1,5.4 14.1,4.4 C14.1,3.5 13.6,2.8 12.7,2.8 Z" id="Shape"></path>
                    <path d="M18.7,5.1 C19.1,5.6 19.8,6 20.7,6 C21.7,6 22.1,5.5 22.1,5 C22.1,4.3 21.4,4.1 20.6,3.9 C19.6,3.6 18.4,3.3 18.4,2 C18.4,1 19.3,0.2 20.6,0.2 C21.6,0.2 22.3,0.5 22.9,1.1 L22.3,1.8 C21.8,1.3 21.1,1.1 20.5,1.1 C19.8,1.1 19.3,1.5 19.3,2 C19.3,2.6 20,2.8 20.8,3 C21.8,3.3 23,3.6 23,4.9 C23,5.9 22.3,6.8 20.6,6.8 C19.5,6.8 18.6,6.4 18.1,5.8 L18.7,5.1 Z" id="Path"></path>
                    <polygon id="Path" points="24.1 0.4 28.4 0.4 28.4 1.2 25.1 1.2 25.1 3.1 28.3 3.1 28.3 4 25.1 4 25.1 6 28.4 6 28.4 6.8 24.1 6.8"></polygon>
                    <path d="M32.5,0.3 C34.4,0.3 35.7,1.7 35.7,3.6 C35.7,5.5 34.4,6.9 32.5,6.9 C30.6,6.9 29.3,5.5 29.3,3.6 C29.3,1.7 30.6,0.3 32.5,0.3 Z M32.5,1.2 C31.1,1.2 30.3,2.2 30.3,3.6 C30.3,5 31.2,6 32.5,6 C33.8,6 34.7,5 34.7,3.6 C34.7,2.2 33.8,1.2 32.5,1.2 Z" id="Shape"></path>
                    <path d="M36.8,5.5 C37.1,5.8 37.7,6.2 38.3,6.2 C38.9,6.2 39.3,5.9 39.3,5.5 C39.3,5 38.8,4.9 38.2,4.8 C37.4,4.6 36.5,4.4 36.5,3.4 C36.5,2.7 37.1,2 38.2,2 C39,2 39.6,2.3 39.9,2.7 L39.5,3.3 C39.2,3 38.7,2.7 38.1,2.7 C37.5,2.7 37.2,2.9 37.2,3.3 C37.2,3.7 37.7,3.8 38.3,4 C39.1,4.2 40,4.4 40,5.5 C40,6.3 39.4,6.9 38.1,6.9 C37.3,6.9 36.7,6.7 36.2,6.2 L36.8,5.5 Z" id="Path"></path>
                    <path d="M10.6,17.4 C13,15.6 14.1,14.6 14.1,13.6 C14.1,12.9 13.5,12.5 12.9,12.5 C12.1,12.5 11.6,12.8 11.2,13.3 L10.6,12.7 C11.1,12 12,11.7 12.9,11.7 C14,11.7 15.1,12.3 15.1,13.6 C15.1,14.8 13.9,15.9 12.2,17.3 L15.2,17.3 L15.2,18.1 L10.7,18.1 L10.7,17.4 L10.6,17.4 Z" id="Path"></path>
                    <path d="M18.6,11.7 C20.4,11.7 21.1,13.4 21.1,15 C21.1,16.6 20.4,18.3 18.6,18.3 C16.8,18.3 16.1,16.6 16.1,15 C16.2,13.4 16.9,11.7 18.6,11.7 Z M18.6,12.6 C17.5,12.6 17.1,13.8 17.1,15 C17.1,16.2 17.5,17.4 18.6,17.4 C19.7,17.4 20.1,16.2 20.1,15 C20.1,13.8 19.8,12.6 18.6,12.6 Z" id="Shape"></path>
                    <polygon id="Path" points="23.3 13.1 22.3 14.2 21.7 13.6 23.4 11.9 24.2 11.9 24.2 18.2 23.2 18.2 23.2 13.1"></polygon>
                    <path d="M26.9,14.9 C26.2,14.7 25.5,14.2 25.5,13.4 C25.5,12.2 26.7,11.7 27.8,11.7 C28.9,11.7 30,12.2 30,13.4 C30,14.2 29.4,14.7 28.6,14.9 C29.4,15.1 30.1,15.7 30.1,16.6 C30.1,17.7 29,18.3 27.8,18.3 C26.5,18.3 25.4,17.7 25.4,16.6 C25.4,15.7 26.1,15.1 26.9,14.9 Z M27.8,15.3 C27.4,15.3 26.4,15.7 26.4,16.4 C26.4,17 27,17.4 27.8,17.4 C28.5,17.4 29.2,17 29.2,16.4 C29.1,15.7 28.1,15.4 27.8,15.3 Z M27.8,12.6 C27.1,12.6 26.5,13 26.5,13.6 C26.5,14.3 27.4,14.5 27.8,14.6 C28.2,14.5 29.1,14.3 29.1,13.6 C29,12.9 28.5,12.6 27.8,12.6 Z" id="Shape"></path>
                </g>
                <path d="M16.1,170.2 C15.9,171.1 15.8,171.3 15.9,171.9 C17.5,172.6 20.6,171.5 23.4,169.4 C25.7,167.7 28,165.3 28.7,163.4 C21.5,162.4 16.8,166.9 16.1,170.2 Z" id="Path"></path>
                <path d="M132.1,210.2 C132.1,210.1 132.1,210.1 132.2,210 C132.9,206.9 133.4,203.8 133.8,200.6 C136.2,200.8 139.6,197.9 142.3,194.1 C144.5,190.9 146.4,186.8 146.5,184.1 C140.3,185.3 136.4,188.9 134.6,192.5 C134.7,189.2 134.7,185.9 134.4,182.6 C134.5,182.8 134.7,183 134.9,183.2 C137.1,182.8 139.4,179.4 140.6,175.3 C141.6,172 142.3,167.9 141.6,165.6 C136.5,168.3 134.1,172.4 133.4,176 C132.8,172.9 132,169.9 131,167 C133,166.2 134.6,162.6 135.1,158.4 C135.5,155 135.4,151 134.4,148.8 C129.8,152.5 128.2,157.2 128.4,160.9 C127.2,158.5 125.8,156.2 124.2,154 C125.7,152.8 126.1,149.3 125.4,145.6 C124.9,142.6 123.7,139.2 122.3,137.6 C119.4,141.8 119.3,146 120.3,149.2 C119,147.8 117.6,146.4 116,145.1 C115.9,143.3 114,140.9 111.3,139 C109,137.3 106,135.8 104,135.6 C105.3,142.9 111,146.1 114.4,145.8 C115.4,145.7 115.5,145.7 116.1,145.5 C116.1,145.5 116.1,145.4 116.1,145.4 C117.8,146.9 119.3,148.5 120.7,150.1 C121.1,151 121.6,151.8 122.1,152.4 C119.7,151 116.1,150.3 112.1,151.7 C113.1,153.4 115.8,155.2 118.3,156.4 C121.4,157.9 124.5,158.4 125.9,157.4 C125.9,157.3 125.9,157.2 125.9,157.2 C126.9,158.8 127.8,160.5 128.7,162.2 C128.9,163.5 129.3,164.6 129.9,165.4 C130.2,165.8 130.3,166.1 130.5,166.3 C131.8,169.8 132.8,173.5 133.5,177.3 C133.4,178.9 133.6,180.3 134,181.4 C134.1,182.4 134.2,183.5 134.2,184.6 C133.4,181.2 129.6,176.7 122.8,176.1 C123.1,178.2 125,181.1 127,183.4 C129.4,186.2 132.4,188.1 134.2,187.6 C134.2,187.5 134.3,187.4 134.3,187.3 C134.3,189.5 134.3,191.6 134.1,193.9 C133.5,195.5 133.3,197.1 133.4,198.4 C133.5,198.9 133.5,199.2 133.5,199.5 C133.4,199.9 133.4,200.3 133.3,200.8 C133.3,200.7 133.3,200.7 133.3,200.6 C133.4,196.9 129.7,190.8 121.6,189.7 C121.8,191.9 123.7,195.1 125.6,197.6 C128,200.6 131,202.8 133,202.5 C133,202.4 133,202.4 133.1,202.4 C132.7,204.9 132.2,207.4 131.6,210 C131.1,212.1 130.4,214.2 129.6,216.1 C130,212.3 127.9,206.6 121.4,203.4 C120.9,205.6 121.6,209.3 122.7,212.4 C124,215.9 126,218.9 127.9,219.4 C125.9,223.1 123.3,226.3 120.3,229.3 C121.8,225.8 121.3,219.5 115.6,214.7 C114.6,216.7 114.4,220.5 114.7,223.7 C115.1,227.3 116.3,230.4 117.8,231.6 C114.5,234.5 110.7,237.1 106.7,239.4 C109.5,236.8 111.6,230.7 108.2,224 C106.5,225.5 104.8,228.8 103.9,231.9 C102.7,235.6 102.7,239.4 104.1,240.8 C100.6,242.7 96.9,244.3 93.2,245.8 C96,243.3 98.2,238.1 96.2,231.8 C94.2,232.9 92,236 90.6,238.8 C88.9,242.1 88.2,245.6 89.1,247.3 C83.9,249.2 78.7,250.7 73.9,251.9 C69.1,250.7 63.9,249.2 58.7,247.3 C59.6,245.5 58.8,242 57.2,238.8 C55.7,235.9 53.5,232.9 51.6,231.8 C49.6,238.2 51.8,243.3 54.6,245.8 C50.9,244.3 47.2,242.7 43.7,240.8 C45.1,239.3 45,235.6 43.9,231.9 C42.9,228.8 41.3,225.5 39.6,224 C36.1,230.7 38.3,236.8 41.1,239.4 C37.1,237.1 33.4,234.5 30,231.6 C31.6,230.4 32.8,227.2 33.1,223.7 C33.4,220.5 33.2,216.7 32.2,214.7 C26.5,219.5 26,225.8 27.5,229.3 C24.5,226.3 21.9,223 19.9,219.4 C21.8,218.8 23.9,215.9 25.1,212.4 C26.2,209.4 26.9,205.7 26.4,203.4 C19.9,206.6 17.8,212.3 18.2,216.1 C17.4,214.2 16.7,212.1 16.2,210 C15.6,207.4 15.1,204.9 14.7,202.4 C14.7,202.4 14.7,202.5 14.8,202.5 C16.7,202.8 19.8,200.7 22.2,197.6 C24.2,195.1 26,191.9 26.2,189.7 C18.1,190.8 14.4,196.9 14.5,200.6 C14.5,200.7 14.5,200.8 14.5,200.8 C14.4,200.4 14.4,200 14.3,199.5 C14.3,199.2 14.4,198.9 14.4,198.4 C14.6,197.1 14.3,195.5 13.7,193.9 C13.6,191.7 13.5,189.5 13.5,187.3 C13.5,187.4 13.6,187.5 13.6,187.6 C15.4,188 18.4,186.1 20.8,183.4 C22.8,181.1 24.7,178.2 25,176.1 C18.2,176.7 14.4,181.1 13.6,184.6 C13.7,183.5 13.7,182.5 13.8,181.4 C14.3,180.3 14.5,178.9 14.3,177.3 C14.9,173.5 15.9,169.8 17.3,166.3 C17.5,166.1 17.6,165.8 17.9,165.4 C18.5,164.6 18.9,163.4 19.1,162.2 C19.9,160.5 20.8,158.8 21.9,157.2 C21.9,157.3 21.9,157.3 21.9,157.4 C23.3,158.4 26.5,157.9 29.5,156.4 C32,155.2 34.6,153.4 35.7,151.7 C31.7,150.3 28.1,151 25.7,152.4 C26.2,151.8 26.7,151 27.1,150.1 C28.5,148.5 30.1,146.9 31.7,145.4 C31.7,145.4 31.7,145.5 31.7,145.5 C32.2,145.8 32.4,145.8 33.4,145.8 C36.8,146.1 42.5,142.9 43.8,135.6 C41.8,135.7 38.8,137.3 36.5,139 C33.8,140.9 31.8,143.4 31.8,145.1 C30.3,146.4 28.8,147.8 27.5,149.2 C28.5,146.1 28.3,141.8 25.5,137.6 C24,139.2 22.9,142.6 22.4,145.6 C21.7,149.3 22.1,152.8 23.6,154 C22,156.2 20.6,158.5 19.4,160.9 C19.6,157.2 18.1,152.5 13.4,148.8 C12.4,151 12.3,155 12.7,158.4 C13.2,162.6 14.8,166.2 16.8,167 C15.7,169.9 14.9,172.9 14.4,176 C13.7,172.4 11.3,168.3 6.2,165.6 C5.6,168 6.2,172 7.2,175.3 C8.5,179.4 10.8,182.8 12.9,183.2 C13.1,183 13.3,182.8 13.4,182.6 C13.1,185.9 13.1,189.2 13.2,192.5 C11.3,188.9 7.5,185.3 1.3,184.1 C1.4,186.8 3.3,190.9 5.5,194.1 C8.1,198 11.5,200.8 14,200.6 C14.4,203.7 15,206.9 15.6,210 C15.6,210.1 15.6,210.1 15.7,210.2 C13.1,206.7 8,203.5 0.7,204.2 C1.5,206.8 4.5,210.1 7.5,212.6 C11.2,215.6 15.3,217.4 17.6,216.5 C17.6,216.4 17.6,216.3 17.6,216.3 C18.8,219.1 20.3,221.7 22.2,224.2 C18.7,222 13.3,220.9 7.1,223.3 C8.6,225.6 12.5,227.9 16,229.4 C20.4,231.3 24.9,231.8 26.8,230.3 C26.8,229.9 26.7,229.6 26.6,229.3 C29.1,231.9 32,234.3 35.1,236.5 C30.9,235.6 25.1,236.6 20.1,241.4 C22.4,242.9 26.9,243.6 30.7,243.6 C35.4,243.6 39.6,242.4 40.9,240.4 C43.6,242 46.4,243.5 49.3,244.9 C45,244.8 39.5,246.7 35.4,252.3 C37.9,253.4 42.4,253.3 46.3,252.6 C50.9,251.8 54.8,249.9 55.8,247.7 C60.4,249.6 65.3,251.3 70.3,252.7 C66.3,253.6 62.6,254.4 59.5,254.9 L60.3,256.6 C64.9,255.8 69.5,254.8 74,253.7 C78.5,254.9 83.1,255.9 87.7,256.6 L88.5,254.9 C85.4,254.3 81.7,253.6 77.7,252.7 C82.7,251.3 87.5,249.6 92.2,247.7 C93.2,249.9 97.1,251.8 101.7,252.6 C105.5,253.2 110.1,253.3 112.6,252.3 C108.5,246.7 102.9,244.8 98.6,244.9 C101.5,243.5 104.4,242 107,240.4 C108.3,242.4 112.6,243.6 117.2,243.6 C121.1,243.6 125.5,242.9 127.8,241.4 C122.8,236.5 117,235.6 112.8,236.5 C115.9,234.2 118.8,231.8 121.3,229.3 C121.2,229.6 121.1,229.9 121.1,230.3 C123,231.8 127.5,231.3 131.9,229.4 C135.5,227.9 139.3,225.5 140.8,223.3 C134.6,220.9 129.2,222 125.7,224.2 C127.6,221.7 129.1,219 130.3,216.3 C130.3,216.4 130.3,216.5 130.3,216.5 C132.5,217.4 136.7,215.7 140.4,212.6 C143.4,210.1 146.4,206.8 147.2,204.2 C139.8,203.6 134.7,206.7 132.1,210.2 Z" id="Path"></path>
                <path d="M124.1,169.3 C126.9,171.4 130,172.6 131.6,171.8 C131.7,171.2 131.6,171.1 131.4,170.1 C130.6,166.8 126,162.3 118.7,163.3 C119.5,165.2 121.8,167.6 124.1,169.3 Z" id="Path"></path>
                <g id="Group" transform="translate(45.000000, 159.000000)" fill-rule="nonzero">
                    <path d="M7.3,8.5 L3.3,8.5 L2.7,10.1 L0.6,10.1 L4.1,1.1 L6.5,1.1 L10,10.1 L7.9,10.1 L7.3,8.5 Z M3.8,6.9 L6.8,6.9 L5.3,2.8 L3.8,6.9 Z" id="Shape"></path>
                    <path d="M14.7,0.9 C16.6,0.9 17.7,1.8 18.4,2.9 L16.8,3.8 C16.4,3.2 15.6,2.7 14.7,2.7 C13.1,2.7 11.9,4 11.9,5.7 C11.9,7.4 13.1,8.7 14.7,8.7 C15.5,8.7 16.3,8.4 16.6,8 L16.6,6.9 L14.2,6.9 L14.2,5.3 L18.5,5.3 L18.5,8.7 C17.6,9.7 16.3,10.4 14.7,10.4 C12.1,10.4 9.9,8.6 9.9,5.7 C9.9,2.7 12,0.9 14.7,0.9 Z" id="Path"></path>
                    <polygon id="Path" points="20 1.1 26.4 1.1 26.4 2.7 21.9 2.7 21.9 4.7 26.3 4.7 26.3 6.3 21.9 6.3 21.9 8.4 26.4 8.4 26.4 10.1 20 10.1"></polygon>
                    <polygon id="Path" points="29.8 4 29.8 10 27.9 10 27.9 1 29.9 1 34.1 6.8 34.1 1 36 1 36 10 34.1 10"></polygon>
                    <path d="M42.1,0.9 C44,0.9 45.1,1.8 45.8,2.9 L44.2,3.8 C43.8,3.2 43,2.7 42.1,2.7 C40.5,2.7 39.3,4 39.3,5.7 C39.3,7.4 40.5,8.7 42.1,8.7 C42.9,8.7 43.7,8.4 44,8 L44,6.9 L41.6,6.9 L41.6,5.3 L45.9,5.3 L45.9,8.7 C45,9.7 43.7,10.4 42.1,10.4 C39.5,10.4 37.3,8.6 37.3,5.7 C37.3,2.7 39.5,0.9 42.1,0.9 Z" id="Path"></path>
                    <polygon id="Path" points="49.7 6.4 46.2 1.1 48.4 1.1 50.6 4.7 52.8 1.1 55 1.1 51.6 6.4 51.6 10.1 49.7 10.1"></polygon>
                    <path d="M9.4,17.1 C12.1,17.1 14.1,19 14.1,21.8 C14.1,24.5 12.1,26.5 9.4,26.5 C6.7,26.5 4.7,24.6 4.7,21.8 C4.7,19.1 6.7,17.1 9.4,17.1 Z M9.4,18.8 C7.7,18.8 6.7,20.1 6.7,21.8 C6.7,23.5 7.8,24.8 9.4,24.8 C11.1,24.8 12.1,23.5 12.1,21.8 C12.2,20.1 11.1,18.8 9.4,18.8 Z" id="Shape"></path>
                    <polygon id="Path" points="15.5 17.3 21.9 17.3 21.9 18.9 17.4 18.9 17.4 20.9 21.8 20.9 21.8 22.5 17.4 22.5 17.4 26.3 15.5 26.3"></polygon>
                    <polygon id="Path" points="28.7 19 26.1 19 26.1 17.3 33.3 17.3 33.3 19 30.7 19 30.7 26.3 28.8 26.3 28.8 19"></polygon>
                    <polygon id="Path" points="40.7 22.5 36.4 22.5 36.4 26.3 34.5 26.3 34.5 17.3 36.4 17.3 36.4 20.8 40.7 20.8 40.7 17.3 42.6 17.3 42.6 26.3 40.7 26.3"></polygon>
                    <polygon id="Path" points="44.4 17.3 50.8 17.3 50.8 18.9 46.3 18.9 46.3 20.9 50.7 20.9 50.7 22.5 46.3 22.5 46.3 24.6 50.8 24.6 50.8 26.3 44.4 26.3"></polygon>
                    <polygon id="Path" points="14 38.8 10.5 33.5 12.7 33.5 14.9 37.1 17.1 33.5 19.3 33.5 15.9 38.8 15.9 42.5 14 42.5"></polygon>
                    <polygon id="Path" points="20.2 33.5 26.6 33.5 26.6 35.1 22.1 35.1 22.1 37.1 26.5 37.1 26.5 38.7 22.1 38.7 22.1 40.8 26.6 40.8 26.6 42.5 20.2 42.5"></polygon>
                    <path d="M33.8,40.9 L29.8,40.9 L29.2,42.5 L27.1,42.5 L30.6,33.5 L33,33.5 L36.5,42.5 L34.4,42.5 L33.8,40.9 Z M30.3,39.3 L33.3,39.3 L31.8,35.2 L30.3,39.3 Z" id="Shape"></path>
                    <path d="M40.6,39.3 L39.2,39.3 L39.2,42.5 L37.3,42.5 L37.3,33.5 L41.5,33.5 C43.4,33.5 44.5,34.7 44.5,36.4 C44.5,38 43.5,38.8 42.5,39.1 L44.5,42.5 L42.3,42.5 L40.6,39.3 Z M41.2,35.1 L39.2,35.1 L39.2,37.6 L41.2,37.6 C42,37.6 42.6,37.1 42.6,36.4 C42.6,35.6 42,35.1 41.2,35.1 Z" id="Shape"></path>
                </g>
                <g id="Group" transform="translate(42.000000, 211.000000)" fill-rule="nonzero">
                    <path d="M0.7,3.6 C0.7,1.7 2.1,0.3 4,0.3 C5.2,0.3 6,0.9 6.5,1.6 L5.7,2 C5.4,1.5 4.7,1.1 4,1.1 C2.7,1.1 1.7,2.1 1.7,3.5 C1.7,4.9 2.7,5.9 4,5.9 C4.8,5.9 5.4,5.5 5.7,5 L6.5,5.4 C6,6.1 5.2,6.7 4,6.7 C2.1,6.9 0.7,5.6 0.7,3.6 Z" id="Path"></path>
                    <path d="M10.2,6.3 C9.8,6.7 9.3,6.9 8.7,6.9 C7.9,6.9 7.1,6.4 7.1,5.4 C7.1,4.4 7.9,3.9 8.7,3.9 C9.3,3.9 9.9,4.1 10.2,4.5 L10.2,3.7 C10.2,3.1 9.7,2.8 9.1,2.8 C8.6,2.8 8.1,3 7.7,3.4 L7.3,2.8 C7.8,2.3 8.4,2 9.2,2 C10.2,2 11,2.4 11,3.6 L11,6.7 L10.1,6.7 L10.1,6.3 L10.2,6.3 Z M10.2,5 C9.9,4.7 9.5,4.5 9,4.5 C8.4,4.5 7.9,4.9 7.9,5.4 C7.9,5.9 8.3,6.3 9,6.3 C9.5,6.3 9.9,6.1 10.2,5.8 L10.2,5 Z" id="Shape"></path>
                    <path d="M18,3.7 C18,3.2 17.8,2.8 17.2,2.8 C16.7,2.8 16.3,3.1 16.1,3.5 L16.1,6.8 L15.2,6.8 L15.2,3.7 C15.2,3.2 15,2.8 14.4,2.8 C14,2.8 13.5,3.1 13.3,3.5 L13.3,6.8 L12.4,6.8 L12.4,2.2 L13.3,2.2 L13.3,2.8 C13.5,2.5 14.1,2 14.8,2 C15.5,2 15.9,2.4 16,2.9 C16.3,2.5 16.9,2 17.5,2 C18.3,2 18.8,2.5 18.8,3.4 L18.8,6.7 L18,6.7 L18,3.7 Z" id="Path"></path>
                    <path d="M20.2,8.6 L20.2,2.3 L21.1,2.3 L21.1,3 C21.4,2.5 22,2.2 22.6,2.2 C23.8,2.2 24.6,3.1 24.6,4.6 C24.6,6.1 23.8,7 22.6,7 C22,7 21.5,6.7 21.1,6.2 L21.1,8.6 L20.2,8.6 L20.2,8.6 Z M22.4,2.9 C21.9,2.9 21.4,3.2 21.1,3.6 L21.1,5.5 C21.3,5.9 21.9,6.2 22.4,6.2 C23.3,6.2 23.8,5.5 23.8,4.5 C23.7,3.6 23.2,2.9 22.4,2.9 Z" id="Shape"></path>
                    <path d="M28.6,6.3 C28.2,6.7 27.7,6.9 27.1,6.9 C26.3,6.9 25.5,6.4 25.5,5.4 C25.5,4.4 26.3,3.9 27.1,3.9 C27.7,3.9 28.3,4.1 28.6,4.5 L28.6,3.7 C28.6,3.1 28.1,2.8 27.5,2.8 C27,2.8 26.5,3 26.1,3.4 L25.7,2.8 C26.2,2.3 26.8,2 27.6,2 C28.6,2 29.4,2.4 29.4,3.6 L29.4,6.7 L28.5,6.7 L28.5,6.3 L28.6,6.3 Z M28.6,5 C28.3,4.7 27.9,4.5 27.4,4.5 C26.8,4.5 26.3,4.9 26.3,5.4 C26.3,5.9 26.7,6.3 27.4,6.3 C27.9,6.3 28.3,6.1 28.6,5.8 L28.6,5 Z" id="Shape"></path>
                    <path d="M30.6,0.9 C30.6,0.6 30.9,0.3 31.2,0.3 C31.5,0.3 31.8,0.5 31.8,0.9 C31.8,1.2 31.6,1.4 31.2,1.4 C30.9,1.4 30.6,1.2 30.6,0.9 Z M30.8,2.2 L31.7,2.2 L31.7,6.8 L30.8,6.8 L30.8,2.2 Z" id="Shape"></path>
                    <path d="M33.4,7.4 C33.8,7.8 34.2,8 34.9,8 C35.6,8 36.3,7.7 36.3,6.7 L36.3,6.1 C35.9,6.6 35.4,6.9 34.8,6.9 C33.6,6.9 32.8,6 32.8,4.5 C32.8,3 33.7,2.1 34.8,2.1 C35.4,2.1 35.9,2.4 36.3,2.9 L36.3,2.2 L37.2,2.2 L37.2,6.6 C37.2,8.2 36,8.6 34.9,8.6 C34.1,8.6 33.6,8.4 33,7.9 L33.4,7.4 Z M36.3,3.5 C36.1,3.1 35.5,2.8 35,2.8 C34.1,2.8 33.6,3.5 33.6,4.4 C33.6,5.4 34.1,6 35,6 C35.5,6 36,5.7 36.3,5.3 L36.3,3.5 Z" id="Shape"></path>
                    <path d="M41.6,3.9 C41.6,3.1 41.2,2.9 40.6,2.9 C40.1,2.9 39.6,3.2 39.3,3.6 L39.3,6.9 L38.4,6.9 L38.4,2.3 L39.3,2.3 L39.3,2.9 C39.6,2.5 40.2,2.1 40.9,2.1 C41.9,2.1 42.4,2.6 42.4,3.6 L42.4,6.8 L41.5,6.8 L41.5,3.9 L41.6,3.9 Z" id="Path"></path>
                    <path d="M50.3,5.5 L47.2,5.5 L46.7,6.8 L45.7,6.8 L48.2,0.5 L49.4,0.5 L51.9,6.8 L50.9,6.8 L50.3,5.5 Z M47.4,4.6 L50,4.6 L48.7,1.2 L47.4,4.6 Z" id="Shape"></path>
                    <path d="M52.6,5.6 C52.9,5.9 53.5,6.3 54.1,6.3 C54.7,6.3 55.1,6 55.1,5.6 C55.1,5.1 54.6,5 54,4.9 C53.2,4.7 52.3,4.5 52.3,3.5 C52.3,2.8 52.9,2.1 54,2.1 C54.8,2.1 55.4,2.4 55.7,2.8 L55.3,3.4 C55,3.1 54.5,2.8 53.9,2.8 C53.3,2.8 53,3 53,3.4 C53,3.8 53.5,3.9 54.1,4.1 C54.9,4.3 55.8,4.5 55.8,5.6 C55.8,6.4 55.2,7 53.9,7 C53.1,7 52.5,6.8 52,6.3 L52.6,5.6 Z" id="Path"></path>
                    <path d="M56.9,0.9 C56.9,0.6 57.2,0.3 57.5,0.3 C57.8,0.3 58.1,0.5 58.1,0.9 C58.1,1.2 57.9,1.4 57.5,1.4 C57.1,1.4 56.9,1.2 56.9,0.9 Z M57,2.2 L57.9,2.2 L57.9,6.8 L57,6.8 L57,2.2 Z" id="Shape"></path>
                    <path d="M62,6.3 C61.6,6.7 61.1,6.9 60.5,6.9 C59.7,6.9 58.9,6.4 58.9,5.4 C58.9,4.4 59.7,3.9 60.5,3.9 C61.1,3.9 61.7,4.1 62,4.5 L62,3.7 C62,3.1 61.5,2.8 60.9,2.8 C60.4,2.8 59.9,3 59.5,3.4 L59.1,2.8 C59.6,2.3 60.2,2 61,2 C62,2 62.8,2.4 62.8,3.6 L62.8,6.7 L62,6.7 L62,6.3 Z M62,5 C61.7,4.7 61.3,4.5 60.8,4.5 C60.2,4.5 59.7,4.9 59.7,5.4 C59.7,5.9 60.1,6.3 60.8,6.3 C61.3,6.3 61.7,6.1 62,5.8 L62,5 Z" id="Shape"></path>
                    <path d="M22.2,17.5 C24.6,15.7 25.7,14.7 25.7,13.7 C25.7,13 25.1,12.6 24.5,12.6 C23.7,12.6 23.2,12.9 22.8,13.4 L22.2,12.8 C22.7,12.1 23.6,11.8 24.5,11.8 C25.6,11.8 26.7,12.4 26.7,13.7 C26.7,14.9 25.5,16 23.8,17.4 L26.8,17.4 L26.8,18.2 L22.3,18.2 L22.3,17.5 L22.2,17.5 Z" id="Path"></path>
                    <path d="M30.2,11.8 C32,11.8 32.7,13.5 32.7,15.1 C32.7,16.7 32,18.4 30.2,18.4 C28.4,18.4 27.7,16.7 27.7,15.1 C27.8,13.5 28.5,11.8 30.2,11.8 Z M30.2,12.6 C29.1,12.6 28.7,13.8 28.7,15 C28.7,16.2 29.1,17.4 30.2,17.4 C31.3,17.4 31.7,16.2 31.7,15 C31.7,13.8 31.4,12.6 30.2,12.6 Z" id="Shape"></path>
                    <polygon id="Path" points="34.9 13.1 33.9 14.2 33.3 13.6 35 11.9 35.8 11.9 35.8 18.2 34.8 18.2 34.8 13.1"></polygon>
                    <path d="M38.5,14.9 C37.8,14.7 37.1,14.2 37.1,13.4 C37.1,12.2 38.3,11.7 39.4,11.7 C40.5,11.7 41.6,12.2 41.6,13.4 C41.6,14.2 41,14.7 40.2,14.9 C41,15.1 41.7,15.7 41.7,16.6 C41.7,17.7 40.6,18.3 39.4,18.3 C38.1,18.3 37,17.7 37,16.6 C37,15.8 37.7,15.2 38.5,14.9 Z M39.4,15.4 C39,15.4 38,15.8 38,16.5 C38,17.1 38.6,17.5 39.4,17.5 C40.1,17.5 40.8,17.1 40.8,16.5 C40.8,15.7 39.7,15.4 39.4,15.4 Z M39.4,12.6 C38.7,12.6 38.1,13 38.1,13.6 C38.1,14.3 39,14.5 39.4,14.6 C39.8,14.5 40.7,14.3 40.7,13.6 C40.6,13 40.1,12.6 39.4,12.6 Z" id="Shape"></path>
                </g>
                <path d="M176.3,170.5 C176.1,171.4 176,171.6 176.1,172.2 C177.7,172.9 180.8,171.8 183.6,169.7 C185.9,168 188.2,165.6 188.9,163.7 C181.8,162.7 177.1,167.2 176.3,170.5 Z" id="Path"></path>
                <path d="M292.4,210.5 C292.4,210.4 292.4,210.4 292.5,210.3 C293.2,207.2 293.7,204.1 294.1,200.9 C296.5,201.1 299.9,198.2 302.6,194.4 C304.8,191.2 306.7,187.1 306.8,184.4 C300.6,185.6 296.7,189.2 294.9,192.8 C295,189.5 295,186.2 294.7,182.9 C294.8,183.1 295,183.3 295.2,183.5 C297.4,183.1 299.7,179.7 300.9,175.6 C301.9,172.3 302.6,168.2 301.9,165.9 C296.8,168.6 294.4,172.7 293.7,176.3 C293.1,173.2 292.3,170.2 291.3,167.3 C293.3,166.5 294.9,162.9 295.4,158.7 C295.8,155.3 295.7,151.3 294.7,149.1 C290.1,152.8 288.5,157.5 288.7,161.2 C287.5,158.8 286.1,156.5 284.5,154.3 C286,153.1 286.4,149.6 285.7,145.9 C285.2,142.9 284,139.5 282.6,137.9 C279.7,142.1 279.6,146.3 280.6,149.5 C279.3,148.1 277.9,146.7 276.3,145.4 C276.2,143.6 274.3,141.2 271.6,139.3 C269,137.6 266,136.1 264,136 C265.3,143.3 271,146.5 274.4,146.2 C275.4,146.1 275.5,146.1 276.1,145.9 C276.1,145.9 276.1,145.8 276.1,145.8 C277.8,147.3 279.3,148.9 280.7,150.5 C281.1,151.4 281.6,152.2 282.1,152.8 C279.7,151.4 276.1,150.7 272.1,152.1 C273.1,153.8 275.8,155.6 278.3,156.8 C281.4,158.3 284.5,158.8 285.9,157.8 C285.9,157.7 285.9,157.6 285.9,157.6 C286.9,159.2 287.8,160.9 288.7,162.6 C288.9,163.9 289.3,165 289.9,165.8 C290.2,166.2 290.3,166.5 290.5,166.7 C291.8,170.2 292.8,173.9 293.5,177.7 C293.4,179.3 293.6,180.7 294,181.8 C294.1,182.8 294.2,183.9 294.2,185 C293.4,181.6 289.6,177.1 282.8,176.5 C283.1,178.6 285,181.5 287,183.8 C289.4,186.6 292.4,188.5 294.2,188 C294.2,187.9 294.3,187.8 294.3,187.7 C294.3,189.9 294.3,192 294.1,194.3 C293.5,195.9 293.3,197.5 293.4,198.8 C293.5,199.3 293.5,199.6 293.5,199.9 C293.4,200.3 293.4,200.7 293.3,201.2 C293.3,201.1 293.3,201.1 293.3,201 C293.4,197.3 289.7,191.2 281.6,190.1 C281.8,192.3 283.7,195.5 285.6,198 C288,201 291,203.2 293,202.9 C293,202.8 293,202.8 293.1,202.8 C292.7,205.3 292.2,207.8 291.6,210.4 C291.1,212.5 290.4,214.6 289.6,216.5 C290,212.7 287.9,207 281.4,203.8 C280.9,206 281.6,209.7 282.7,212.8 C284,216.3 286,219.3 287.9,219.8 C285.9,223.5 283.3,226.7 280.3,229.7 C281.8,226.2 281.3,219.9 275.6,215.1 C274.6,217.1 274.4,220.9 274.7,224.1 C275.1,227.7 276.3,230.8 277.8,232 C274.5,234.9 270.7,237.5 266.7,239.8 C269.5,237.2 271.6,231.1 268.2,224.4 C266.5,225.9 264.8,229.2 263.9,232.3 C262.7,236 262.7,239.8 264.1,241.2 C260.6,243.1 256.9,244.7 253.2,246.2 C256,243.7 258.2,238.5 256.2,232.2 C254.2,233.3 252,236.4 250.6,239.2 C248.9,242.5 248.2,246 249.1,247.7 C243.9,249.6 238.7,251.1 233.9,252.3 C229.1,251.1 223.9,249.6 218.7,247.7 C219.6,245.9 218.8,242.4 217.2,239.2 C215.7,236.3 213.5,233.3 211.6,232.2 C209.6,238.6 211.8,243.7 214.6,246.2 C210.9,244.7 207.2,243.1 203.7,241.2 C205.1,239.7 205,236 203.9,232.3 C202.9,229.2 201.3,225.9 199.6,224.4 C196.1,231.1 198.3,237.2 201.1,239.8 C197.1,237.5 193.4,234.9 190,232 C191.6,230.8 192.8,227.6 193.1,224.1 C193.4,220.9 193.2,217.1 192.2,215.1 C186.5,219.9 186,226.2 187.5,229.7 C184.5,226.7 181.9,223.4 179.9,219.8 C181.8,219.2 183.9,216.3 185.1,212.8 C186.2,209.8 186.9,206.1 186.4,203.8 C179.9,207 177.8,212.7 178.2,216.5 C177.4,214.6 176.7,212.5 176.2,210.4 C175.6,207.8 175.1,205.3 174.7,202.8 C174.7,202.8 174.7,202.9 174.8,202.9 C176.7,203.2 179.8,201.1 182.2,198 C184.2,195.5 186,192.3 186.2,190.1 C178.1,191.2 174.4,197.3 174.5,201 C174.5,201.1 174.5,201.2 174.5,201.2 C174.4,200.8 174.4,200.4 174.3,199.9 C174.3,199.6 174.4,199.3 174.4,198.8 C174.6,197.5 174.3,195.9 173.7,194.3 C173.6,192.1 173.5,189.9 173.5,187.7 C173.5,187.8 173.6,187.9 173.6,188 C175.4,188.4 178.4,186.5 180.8,183.8 C182.8,181.5 184.7,178.6 185,176.5 C178.2,177.1 174.4,181.5 173.6,185 C173.7,183.9 173.7,182.9 173.8,181.8 C174.3,180.7 174.5,179.3 174.3,177.7 C174.9,173.9 175.9,170.2 177.3,166.7 C177.5,166.5 177.6,166.2 177.9,165.8 C178.5,165 178.9,163.8 179.1,162.6 C179.9,160.9 180.8,159.2 181.9,157.6 C181.9,157.7 181.9,157.7 181.9,157.8 C183.3,158.8 186.5,158.3 189.5,156.8 C192,155.6 194.6,153.8 195.7,152.1 C191.7,150.7 188.1,151.4 185.7,152.8 C186.2,152.2 186.7,151.4 187.1,150.5 C188.5,148.9 190.1,147.3 191.7,145.8 C191.7,145.8 191.7,145.9 191.7,145.9 C192.2,146.2 192.4,146.2 193.4,146.2 C196.8,146.5 202.5,143.3 203.8,136 C201.8,136.1 198.8,137.7 196.5,139.4 C193.8,141.3 191.8,143.8 191.8,145.5 C190.3,146.8 188.8,148.2 187.5,149.6 C188.5,146.5 188.3,142.2 185.5,138 C184,139.6 182.9,143 182.4,146 C181.7,149.7 182.1,153.2 183.6,154.4 C182,156.6 180.6,158.9 179.4,161.3 C179.6,157.6 178.1,152.9 173.4,149.2 C172.4,151.4 172.3,155.4 172.7,158.8 C173.2,163 174.8,166.6 176.8,167.4 C175.7,170.3 174.9,173.3 174.4,176.4 C173.7,172.8 171.3,168.7 166.2,166 C165.6,168.4 166.2,172.4 167.2,175.7 C168.5,179.8 170.8,183.2 172.9,183.6 C173.1,183.4 173.3,183.2 173.4,183 C173.1,186.3 173.1,189.6 173.2,192.9 C171.3,189.3 167.5,185.7 161.3,184.5 C161.4,187.2 163.3,191.3 165.5,194.5 C168.1,198.4 171.5,201.2 174,201 C174.4,204.1 175,207.3 175.6,210.4 C175.6,210.5 175.6,210.5 175.7,210.6 C173.1,207.1 168,203.9 160.7,204.6 C161.5,207.2 164.5,210.5 167.5,213 C171.2,216 175.3,217.8 177.6,216.9 C177.6,216.8 177.6,216.7 177.6,216.7 C178.8,219.5 180.3,222.1 182.2,224.6 C178.7,222.4 173.3,221.3 167.1,223.7 C168.6,226 172.5,228.3 176,229.8 C180.4,231.7 184.9,232.2 186.8,230.7 C186.8,230.3 186.7,230 186.6,229.7 C189.1,232.3 192,234.7 195.1,236.9 C190.9,236 185.1,237 180.1,241.8 C182.4,243.3 186.9,244 190.7,244 C195.4,244 199.6,242.8 200.9,240.8 C203.6,242.4 206.4,243.9 209.3,245.3 C205,245.2 199.5,247.1 195.4,252.7 C197.9,253.8 202.4,253.7 206.3,253 C210.9,252.2 214.8,250.3 215.8,248.1 C220.4,250 225.3,251.7 230.3,253.1 C226.3,254 222.6,254.8 219.5,255.3 L220.3,257 C224.9,256.2 229.5,255.2 234,254.1 C238.5,255.3 243.1,256.3 247.7,257 L248.5,255.3 C245.4,254.7 241.7,254 237.7,253.1 C242.7,251.7 247.5,250 252.2,248.1 C253.2,250.3 257.1,252.2 261.7,253 C265.5,253.6 270.1,253.7 272.6,252.7 C268.5,247.1 262.9,245.2 258.6,245.3 C261.5,243.9 264.4,242.4 267,240.8 C268.3,242.8 272.6,244 277.2,244 C281.1,244 285.5,243.3 287.8,241.8 C282.8,236.9 277,236 272.8,236.9 C275.9,234.6 278.8,232.2 281.3,229.7 C281.2,230 281.1,230.3 281.1,230.7 C283,232.2 287.5,231.7 291.9,229.8 C295.5,228.3 299.3,225.9 300.8,223.7 C294.6,221.3 289.2,222.4 285.7,224.6 C287.6,222.1 289.1,219.4 290.3,216.7 C290.3,216.8 290.3,216.9 290.3,216.9 C292.5,217.8 296.7,216.1 300.4,213 C303.4,210.5 306.4,207.2 307.2,204.6 C300.1,203.9 295,207 292.4,210.5 Z" id="Path"></path>
                <path d="M284.4,169.6 C287.2,171.7 290.3,172.9 291.9,172.1 C292,171.5 291.9,171.4 291.7,170.4 C290.9,167.1 286.3,162.6 279,163.6 C279.7,165.5 282.1,167.9 284.4,169.6 Z" id="Path"></path>
                <g id="Group" transform="translate(190.000000, 160.000000)" fill-rule="nonzero">
                    <path d="M28.6,0.4 L33.3,0.4 C35,0.4 35.9,1.5 35.9,2.7 C35.9,3.8 35.2,4.6 34.3,4.8 C35.3,4.9 36,5.9 36,7 C36,8.4 35.1,9.4 33.4,9.4 L28.5,9.4 L28.5,0.4 L28.6,0.4 Z M32.9,4 C33.5,4 34,3.6 34,3 C34,2.4 33.6,2 32.9,2 L30.5,2 L30.5,4 L32.9,4 Z M33,7.7 C33.7,7.7 34.2,7.3 34.2,6.6 C34.2,6 33.8,5.5 33,5.5 L30.5,5.5 L30.5,7.6 L33,7.6 L33,7.7 Z" id="Shape"></path>
                    <polygon id="Path" points="37.5 0.4 43.9 0.4 43.9 2 39.4 2 39.4 4 43.8 4 43.8 5.6 39.4 5.6 39.4 7.7 43.9 7.7 43.9 9.4 37.5 9.4"></polygon>
                    <path d="M45.8,6.6 C46.4,7.3 47.4,7.8 48.7,7.8 C49.8,7.8 50.3,7.3 50.3,6.8 C50.3,6.1 49.5,5.9 48.5,5.7 C47,5.4 45.1,5 45.1,2.9 C45.1,1.4 46.4,0.2 48.5,0.2 C49.9,0.2 51.1,0.6 52,1.5 L50.9,2.9 C50.2,2.2 49.2,1.9 48.3,1.9 C47.4,1.9 47,2.3 47,2.8 C47,3.4 47.8,3.6 48.8,3.8 C50.3,4.1 52.2,4.6 52.2,6.6 C52.2,8.2 51,9.5 48.6,9.5 C46.9,9.5 45.6,8.9 44.8,8.1 L45.8,6.6 Z" id="Path"></path>
                    <polygon id="Path" points="55.5 2.1 52.9 2.1 52.9 0.4 60.1 0.4 60.1 2.1 57.5 2.1 57.5 9.4 55.6 9.4 55.6 2.1"></polygon>
                    <polygon id="Path" points="0.8 16.6 7.2 16.6 7.2 18.2 2.7 18.2 2.7 20.2 7.1 20.2 7.1 21.8 2.7 21.8 2.7 23.9 7.2 23.9 7.2 25.6 0.8 25.6"></polygon>
                    <polygon id="Path" points="8.1 21.6 11.3 21.6 11.3 23 8.1 23"></polygon>
                    <path d="M12.3,21.1 C12.3,18.3 14.4,16.4 17,16.4 C19.1,16.4 20.2,17.5 20.8,18.6 L19.2,19.4 C18.8,18.7 18,18.1 17,18.1 C15.4,18.1 14.2,19.4 14.2,21.1 C14.2,22.8 15.4,24.1 17,24.1 C18,24.1 18.8,23.5 19.2,22.8 L20.8,23.6 C20.2,24.7 19,25.8 17,25.8 C14.3,25.7 12.3,23.8 12.3,21.1 Z" id="Path"></path>
                    <path d="M26.2,16.4 C28.9,16.4 30.9,18.3 30.9,21.1 C30.9,23.8 28.9,25.8 26.2,25.8 C23.5,25.8 21.5,23.9 21.5,21.1 C21.5,18.4 23.5,16.4 26.2,16.4 Z M26.2,18.1 C24.5,18.1 23.5,19.4 23.5,21.1 C23.5,22.8 24.6,24.1 26.2,24.1 C27.9,24.1 28.9,22.8 28.9,21.1 C29,19.4 27.9,18.1 26.2,18.1 Z" id="Shape"></path>
                    <polygon id="Path" points="40.1 19.1 37.6 25.6 36.8 25.6 34.3 19.1 34.3 25.6 32.4 25.6 32.4 16.6 35.1 16.6 37.3 22.2 39.5 16.6 42.2 16.6 42.2 25.6 40.3 25.6 40.3 19.1"></polygon>
                    <polygon id="Path" points="51.7 19.1 49.2 25.6 48.4 25.6 45.9 19.1 45.9 25.6 44 25.6 44 16.6 46.7 16.6 48.9 22.2 51.1 16.6 53.8 16.6 53.8 25.6 51.9 25.6 51.9 19.1"></polygon>
                    <polygon id="Path" points="55.4 16.6 61.8 16.6 61.8 18.2 57.3 18.2 57.3 20.2 61.7 20.2 61.7 21.8 57.3 21.8 57.3 23.9 61.8 23.9 61.8 25.6 55.4 25.6"></polygon>
                    <path d="M66.6,22.3 L65.2,22.3 L65.2,25.5 L63.3,25.5 L63.3,16.5 L67.5,16.5 C69.4,16.5 70.5,17.7 70.5,19.4 C70.5,21 69.5,21.8 68.5,22.1 L70.5,25.5 L68.3,25.5 L66.6,22.3 Z M67.2,18.2 L65.2,18.2 L65.2,20.7 L67.2,20.7 C68,20.7 68.6,20.2 68.6,19.5 C68.5,18.7 67.9,18.2 67.2,18.2 Z" id="Shape"></path>
                    <path d="M71.5,21.1 C71.5,18.3 73.6,16.4 76.2,16.4 C78.3,16.4 79.4,17.5 80,18.6 L78.4,19.4 C78,18.7 77.2,18.1 76.2,18.1 C74.6,18.1 73.4,19.4 73.4,21.1 C73.4,22.8 74.6,24.1 76.2,24.1 C77.2,24.1 78,23.5 78.4,22.8 L80,23.6 C79.4,24.7 78.2,25.8 76.2,25.8 C73.6,25.7 71.5,23.8 71.5,21.1 Z" id="Path"></path>
                    <polygon id="Path" points="81.2 16.6 87.6 16.6 87.6 18.2 83.1 18.2 83.1 20.2 87.5 20.2 87.5 21.8 83.1 21.8 83.1 23.9 87.6 23.9 87.6 25.6 81.2 25.6"></polygon>
                    <path d="M9.5,37.3 C9.5,34.5 11.6,32.6 14.2,32.6 C16.3,32.6 17.4,33.7 18,34.8 L16.4,35.6 C16,34.9 15.2,34.3 14.2,34.3 C12.6,34.3 11.4,35.6 11.4,37.3 C11.4,39 12.6,40.3 14.2,40.3 C15.2,40.3 16,39.7 16.4,39 L18,39.8 C17.4,40.9 16.2,42 14.2,42 C11.6,41.9 9.5,40 9.5,37.3 Z" id="Path"></path>
                    <path d="M24.9,40.2 L20.9,40.2 L20.3,41.8 L18.2,41.8 L21.7,32.8 L24.1,32.8 L27.6,41.8 L25.5,41.8 L24.9,40.2 Z M21.4,38.6 L24.4,38.6 L22.9,34.5 L21.4,38.6 Z" id="Shape"></path>
                    <polygon id="Path" points="36.2 35.3 33.7 41.8 32.9 41.8 30.4 35.3 30.4 41.8 28.5 41.8 28.5 32.8 31.2 32.8 33.4 38.4 35.6 32.8 38.3 32.8 38.3 41.8 36.4 41.8 36.4 35.3"></polygon>
                    <path d="M39.9,32.8 L44.1,32.8 C46.1,32.8 47.1,34.1 47.1,35.7 C47.1,37.3 46,38.6 44.1,38.6 L41.8,38.6 L41.8,41.8 L39.9,41.8 L39.9,32.8 L39.9,32.8 Z M43.9,34.4 L41.9,34.4 L41.9,36.9 L43.9,36.9 C44.7,36.9 45.2,36.4 45.2,35.7 C45.2,34.9 44.6,34.4 43.9,34.4 Z" id="Shape"></path>
                    <path d="M53.1,40.2 L49.1,40.2 L48.5,41.8 L46.4,41.8 L49.9,32.8 L52.3,32.8 L55.8,41.8 L53.7,41.8 L53.1,40.2 Z M49.6,38.6 L52.6,38.6 L51.1,34.5 L49.6,38.6 Z" id="Shape"></path>
                    <polygon id="Path" points="56.6 32.8 58.5 32.8 58.5 41.8 56.6 41.8"></polygon>
                    <path d="M64.7,32.6 C66.6,32.6 67.7,33.5 68.4,34.6 L66.8,35.5 C66.4,34.9 65.6,34.4 64.7,34.4 C63.1,34.4 61.9,35.7 61.9,37.4 C61.9,39.1 63.1,40.4 64.7,40.4 C65.5,40.4 66.3,40.1 66.6,39.7 L66.6,38.6 L64.2,38.6 L64.2,37 L68.5,37 L68.5,40.4 C67.6,41.4 66.3,42.1 64.7,42.1 C62.1,42.1 59.9,40.3 59.9,37.4 C59.9,34.4 62,32.6 64.7,32.6 Z" id="Path"></path>
                    <polygon id="Path" points="71.9 35.7 71.9 41.7 70 41.7 70 32.7 72 32.7 76.2 38.5 76.2 32.7 78.1 32.7 78.1 41.7 76.2 41.7"></polygon>
                </g>
                <g id="Group" transform="translate(197.000000, 211.000000)" fill-rule="nonzero">
                    <path d="M5.4,5.8 L2.3,5.8 L1.8,7.1 L0.8,7.1 L3.3,0.8 L4.5,0.8 L7,7.1 L6,7.1 L5.4,5.8 Z M2.5,4.9 L5.1,4.9 L3.8,1.5 L2.5,4.9 Z" id="Shape"></path>
                    <path d="M7.7,5.9 C8,6.2 8.6,6.6 9.2,6.6 C9.8,6.6 10.2,6.3 10.2,5.9 C10.2,5.4 9.7,5.3 9.1,5.2 C8.3,5 7.4,4.8 7.4,3.8 C7.4,3.1 8,2.4 9.1,2.4 C9.9,2.4 10.5,2.7 10.8,3.1 L10.4,3.7 C10.1,3.4 9.6,3.1 9,3.1 C8.4,3.1 8.1,3.3 8.1,3.7 C8.1,4.1 8.6,4.2 9.2,4.4 C10,4.6 10.9,4.8 10.9,5.9 C10.9,6.7 10.3,7.3 9,7.3 C8.2,7.3 7.6,7.1 7.1,6.6 L7.7,5.9 Z" id="Path"></path>
                    <path d="M12,1.2 C12,0.9 12.3,0.6 12.6,0.6 C12.9,0.6 13.2,0.8 13.2,1.2 C13.2,1.5 13,1.7 12.6,1.7 C12.2,1.7 12,1.5 12,1.2 Z M12.1,2.5 L13,2.5 L13,7.1 L12.1,7.1 L12.1,2.5 Z" id="Shape"></path>
                    <path d="M17.2,6.6 C16.8,7 16.3,7.2 15.7,7.2 C14.9,7.2 14.1,6.7 14.1,5.7 C14.1,4.7 14.9,4.2 15.7,4.2 C16.3,4.2 16.9,4.4 17.2,4.8 L17.2,4 C17.2,3.4 16.7,3.1 16.1,3.1 C15.6,3.1 15.1,3.3 14.7,3.7 L14.3,3.1 C14.8,2.6 15.4,2.3 16.2,2.3 C17.2,2.3 18,2.7 18,3.9 L18,7 L17.1,7 L17.1,6.6 L17.2,6.6 Z M17.2,5.3 C16.9,5 16.5,4.8 16,4.8 C15.4,4.8 14.9,5.2 14.9,5.7 C14.9,6.2 15.3,6.6 16,6.6 C16.5,6.6 16.9,6.4 17.2,6.1 L17.2,5.3 Z" id="Shape"></path>
                    <polygon id="Path" points="21.9 0.8 26.2 0.8 26.2 1.6 22.9 1.6 22.9 3.5 26.1 3.5 26.1 4.3 22.9 4.3 22.9 6.3 26.2 6.3 26.2 7.1 21.9 7.1"></polygon>
                    <polygon id="Path" points="26.9 4.4 29.2 4.4 29.2 5.1 26.9 5.1"></polygon>
                    <path d="M32.2,2.4 C33.1,2.4 33.6,2.8 33.9,3.2 L33.3,3.7 C33,3.3 32.7,3.1 32.2,3.1 C31.3,3.1 30.7,3.8 30.7,4.7 C30.7,5.7 31.3,6.4 32.2,6.4 C32.7,6.4 33,6.2 33.3,5.8 L33.9,6.3 C33.6,6.7 33,7.1 32.2,7.1 C30.8,7.1 29.9,6.1 29.9,4.7 C29.8,3.4 30.8,2.4 32.2,2.4 Z" id="Path"></path>
                    <path d="M34.6,4.8 C34.6,3.5 35.5,2.4 36.9,2.4 C38.3,2.4 39.2,3.5 39.2,4.8 C39.2,6.1 38.3,7.2 36.9,7.2 C35.5,7.2 34.6,6.1 34.6,4.8 Z M38.3,4.8 C38.3,3.9 37.8,3.2 36.9,3.2 C36,3.2 35.5,4 35.5,4.8 C35.5,5.7 36,6.5 36.9,6.5 C37.8,6.5 38.3,5.7 38.3,4.8 Z" id="Shape"></path>
                    <path d="M45.9,4 C45.9,3.5 45.7,3.1 45.1,3.1 C44.6,3.1 44.2,3.4 44,3.8 L44,7.1 L43.1,7.1 L43.1,4 C43.1,3.5 42.9,3.1 42.3,3.1 C41.9,3.1 41.4,3.4 41.2,3.8 L41.2,7.1 L40.3,7.1 L40.3,2.5 L41.2,2.5 L41.2,3.1 C41.4,2.8 42,2.3 42.7,2.3 C43.4,2.3 43.8,2.7 43.9,3.2 C44.2,2.8 44.8,2.3 45.4,2.3 C46.2,2.3 46.7,2.8 46.7,3.7 L46.7,7 L45.8,7 L45.8,4 L45.9,4 Z" id="Path"></path>
                    <path d="M53.7,4 C53.7,3.5 53.5,3.1 52.9,3.1 C52.4,3.1 52,3.4 51.8,3.8 L51.8,7.1 L50.9,7.1 L50.9,4 C50.9,3.5 50.7,3.1 50.1,3.1 C49.7,3.1 49.2,3.4 49,3.8 L49,7.1 L48.1,7.1 L48.1,2.5 L49,2.5 L49,3.1 C49.2,2.8 49.8,2.3 50.5,2.3 C51.2,2.3 51.6,2.7 51.7,3.2 C52,2.8 52.6,2.3 53.2,2.3 C54,2.3 54.5,2.8 54.5,3.7 L54.5,7 L53.6,7 L53.6,4 L53.7,4 Z" id="Path"></path>
                    <path d="M57.9,2.4 C59.3,2.4 60.1,3.5 60.1,4.9 L60.1,5.1 L56.5,5.1 C56.6,5.9 57.1,6.5 58.1,6.5 C58.6,6.5 59.1,6.3 59.5,6 L59.9,6.6 C59.4,7 58.8,7.3 58.1,7.3 C56.7,7.3 55.7,6.3 55.7,4.9 C55.6,3.5 56.5,2.4 57.9,2.4 Z M56.5,4.5 L59.3,4.5 C59.3,3.9 58.9,3.1 57.9,3.1 C57,3.1 56.5,3.8 56.5,4.5 Z" id="Shape"></path>
                    <path d="M61.2,2.5 L62.1,2.5 L62.1,3.2 C62.5,2.7 63,2.4 63.6,2.4 L63.6,3.3 C63.5,3.3 63.4,3.3 63.3,3.3 C62.9,3.3 62.3,3.6 62.1,4 L62.1,7.2 L61.2,7.2 L61.2,2.5 Z" id="Path"></path>
                    <path d="M66.4,2.4 C67.3,2.4 67.8,2.8 68.1,3.2 L67.5,3.7 C67.2,3.3 66.9,3.1 66.4,3.1 C65.5,3.1 64.9,3.8 64.9,4.7 C64.9,5.7 65.5,6.4 66.4,6.4 C66.9,6.4 67.2,6.2 67.5,5.8 L68.1,6.3 C67.8,6.7 67.2,7.1 66.4,7.1 C65,7.1 64.1,6.1 64.1,4.7 C64.1,3.4 65.1,2.4 66.4,2.4 Z" id="Path"></path>
                    <path d="M71.1,2.4 C72.5,2.4 73.3,3.5 73.3,4.9 L73.3,5.1 L69.7,5.1 C69.8,5.9 70.3,6.5 71.3,6.5 C71.8,6.5 72.3,6.3 72.7,6 L73.1,6.6 C72.6,7 72,7.3 71.3,7.3 C69.9,7.3 68.9,6.3 68.9,4.9 C68.8,3.5 69.8,2.4 71.1,2.4 Z M69.7,4.5 L72.5,4.5 C72.5,3.9 72.1,3.1 71.1,3.1 C70.2,3.1 69.8,3.8 69.7,4.5 Z" id="Shape"></path>
                    <path d="M26.2,17.2 L23.1,17.2 L22.6,18.5 L21.6,18.5 L24.1,12.2 L25.3,12.2 L27.8,18.5 L26.8,18.5 L26.2,17.2 Z M23.4,16.3 L26,16.3 L24.7,12.9 L23.4,16.3 Z" id="Shape"></path>
                    <polygon id="Path" points="31.2 15 30.1 18.5 29.2 18.5 27.8 13.9 28.7 13.9 29.7 17.4 30.9 13.9 31.6 13.9 32.7 17.4 33.7 13.9 34.6 13.9 33.2 18.5 32.3 18.5"></polygon>
                    <path d="M38.2,18 C37.8,18.4 37.3,18.6 36.7,18.6 C35.9,18.6 35.1,18.1 35.1,17.1 C35.1,16.1 35.9,15.6 36.7,15.6 C37.3,15.6 37.9,15.8 38.2,16.2 L38.2,15.4 C38.2,14.8 37.7,14.5 37.1,14.5 C36.6,14.5 36.1,14.7 35.7,15.1 L35.3,14.5 C35.8,14 36.4,13.7 37.2,13.7 C38.2,13.7 39,14.1 39,15.3 L39,18.4 L38.1,18.4 L38.1,18 L38.2,18 Z M38.2,16.7 C37.9,16.4 37.5,16.2 37,16.2 C36.4,16.2 35.9,16.6 35.9,17.1 C35.9,17.6 36.3,18 37,18 C37.5,18 37.9,17.8 38.2,17.5 L38.2,16.7 Z" id="Shape"></path>
                    <path d="M40.5,13.9 L41.4,13.9 L41.4,14.6 C41.8,14.1 42.3,13.8 42.9,13.8 L42.9,14.7 C42.8,14.7 42.7,14.7 42.6,14.7 C42.2,14.7 41.6,15 41.4,15.4 L41.4,18.6 L40.5,18.6 L40.5,13.9 Z" id="Path"></path>
                    <path d="M46.9,17.8 C46.6,18.3 46,18.6 45.4,18.6 C44.2,18.6 43.3,17.7 43.3,16.2 C43.3,14.7 44.2,13.8 45.4,13.8 C46,13.8 46.5,14.1 46.9,14.6 L46.9,12.2 L47.8,12.2 L47.8,18.5 L46.9,18.5 L46.9,17.8 Z M46.9,15.2 C46.7,14.8 46.1,14.5 45.6,14.5 C44.7,14.5 44.2,15.2 44.2,16.2 C44.2,17.2 44.7,17.8 45.6,17.8 C46.1,17.8 46.6,17.5 46.9,17.1 L46.9,15.2 Z" id="Shape"></path>
                    <path d="M49.2,17.3 C49.5,17.6 50.1,18 50.7,18 C51.3,18 51.7,17.7 51.7,17.3 C51.7,16.8 51.2,16.7 50.6,16.6 C49.8,16.4 48.9,16.2 48.9,15.2 C48.9,14.5 49.5,13.8 50.6,13.8 C51.4,13.8 52,14.1 52.3,14.5 L51.9,15.1 C51.6,14.8 51.1,14.5 50.5,14.5 C49.9,14.5 49.6,14.7 49.6,15.1 C49.6,15.5 50.1,15.6 50.7,15.8 C51.5,16 52.4,16.2 52.4,17.3 C52.4,18.1 51.8,18.7 50.5,18.7 C49.7,18.7 49.1,18.5 48.6,18 L49.2,17.3 Z" id="Path"></path>
                </g>
            </g>
        </g>
    </g>
</svg>