<?xml version="1.0" encoding="UTF-8"?>
<svg width="219px" height="55px" viewBox="0 0 219 55" version="1.1" xmlns="http://www.w3.org/2000/svg" xmlns:xlink="http://www.w3.org/1999/xlink">
    <title>img_connect_with_linkedin</title>
    <g id="Symbols" stroke="none" stroke-width="1" fill="none" fill-rule="evenodd">
        <g id="Footer" transform="translate(-524.000000, -472.000000)" fill="#FFFFFF" fill-rule="nonzero">
            <g id="Group-2" transform="translate(524.000000, 472.000000)">
                <path d="M82.376,46.168 C84.504,46.168 85.68,45.034 86.352,43.872 L84.644,43.046 C84.252,43.816 83.412,44.404 82.376,44.404 C80.752,44.404 79.52,43.102 79.52,41.338 C79.52,39.574 80.752,38.272 82.376,38.272 C83.412,38.272 84.252,38.874 84.644,39.63 L86.352,38.79 C85.694,37.628 84.504,36.508 82.376,36.508 C79.646,36.508 77.476,38.468 77.476,41.338 C77.476,44.208 79.646,46.168 82.376,46.168 Z M90.636,46.168 C92.876,46.168 94.22,44.544 94.22,42.612 C94.22,40.694 92.876,39.07 90.636,39.07 C88.41,39.07 87.066,40.694 87.066,42.612 C87.066,44.544 88.41,46.168 90.636,46.168 Z M90.636,44.586 C89.53,44.586 88.914,43.676 88.914,42.612 C88.914,41.562 89.53,40.652 90.636,40.652 C91.742,40.652 92.372,41.562 92.372,42.612 C92.372,43.676 91.742,44.586 90.636,44.586 Z M97.314,46 L97.314,41.45 C97.608,41.044 98.154,40.652 98.854,40.652 C99.61,40.652 100.1,40.974 100.1,41.912 L100.1,46 L101.878,46 L101.878,41.226 C101.878,39.91 101.164,39.07 99.68,39.07 C98.574,39.07 97.748,39.602 97.314,40.12 L97.314,39.238 L95.536,39.238 L95.536,46 L97.314,46 Z M105.42,46 L105.42,41.45 C105.714,41.044 106.26,40.652 106.96,40.652 C107.716,40.652 108.206,40.974 108.206,41.912 L108.206,46 L109.984,46 L109.984,41.226 C109.984,39.91 109.27,39.07 107.786,39.07 C106.68,39.07 105.854,39.602 105.42,40.12 L105.42,39.238 L103.642,39.238 L103.642,46 L105.42,46 Z M114.926,46.168 C115.976,46.168 117.04,45.846 117.712,45.23 L116.928,44.082 C116.494,44.502 115.752,44.754 115.122,44.754 C113.974,44.754 113.288,44.04 113.176,43.186 L118.202,43.186 L118.202,42.794 C118.202,40.582 116.83,39.07 114.814,39.07 C112.756,39.07 111.314,40.652 111.314,42.612 C111.314,44.782 112.868,46.168 114.926,46.168 Z M116.48,41.982 L113.148,41.982 C113.232,41.31 113.708,40.484 114.814,40.484 C115.99,40.484 116.438,41.338 116.48,41.982 Z M122.64,46.168 C124.026,46.168 124.866,45.566 125.314,44.936 L124.152,43.858 C123.83,44.306 123.34,44.586 122.724,44.586 C121.646,44.586 120.89,43.788 120.89,42.612 C120.89,41.436 121.646,40.652 122.724,40.652 C123.34,40.652 123.83,40.904 124.152,41.38 L125.314,40.288 C124.866,39.672 124.026,39.07 122.64,39.07 C120.554,39.07 119.056,40.54 119.056,42.612 C119.056,44.698 120.554,46.168 122.64,46.168 Z M128.744,46.168 C129.486,46.168 129.962,45.972 130.228,45.734 L129.85,44.39 C129.752,44.488 129.5,44.586 129.234,44.586 C128.842,44.586 128.618,44.264 128.618,43.844 L128.618,40.792 L129.99,40.792 L129.99,39.238 L128.618,39.238 L128.618,37.39 L126.826,37.39 L126.826,39.238 L125.706,39.238 L125.706,40.792 L126.826,40.792 L126.826,44.32 C126.826,45.524 127.498,46.168 128.744,46.168 Z M137.872,46 L139.3,41.394 L140.728,46 L142.618,46 L144.676,39.238 L142.828,39.238 L141.568,43.788 L140.084,39.238 L138.502,39.238 L137.018,43.788 L135.758,39.238 L133.91,39.238 L135.968,46 L137.872,46 Z M146.44,38.244 C147.028,38.244 147.504,37.768 147.504,37.18 C147.504,36.592 147.028,36.116 146.44,36.116 C145.866,36.116 145.376,36.592 145.376,37.18 C145.376,37.768 145.866,38.244 146.44,38.244 Z M147.336,46 L147.336,39.238 L145.558,39.238 L145.558,46 L147.336,46 Z M151.368,46.168 C152.11,46.168 152.586,45.972 152.852,45.734 L152.474,44.39 C152.376,44.488 152.124,44.586 151.858,44.586 C151.466,44.586 151.242,44.264 151.242,43.844 L151.242,40.792 L152.614,40.792 L152.614,39.238 L151.242,39.238 L151.242,37.39 L149.45,37.39 L149.45,39.238 L148.33,39.238 L148.33,40.792 L149.45,40.792 L149.45,44.32 C149.45,45.524 150.122,46.168 151.368,46.168 Z M155.61,46 L155.61,41.45 C155.918,41.044 156.464,40.652 157.15,40.652 C157.92,40.652 158.41,40.946 158.41,41.884 L158.41,46 L160.188,46 L160.188,41.198 C160.188,39.882 159.474,39.07 157.99,39.07 C156.884,39.07 156.044,39.602 155.61,40.12 L155.61,36.662 L153.832,36.662 L153.832,46 L155.61,46 Z M171.514,46 L171.514,44.25 L167.566,44.25 L167.566,36.662 L165.578,36.662 L165.578,46 L171.514,46 Z M173.74,38.244 C174.328,38.244 174.804,37.768 174.804,37.18 C174.804,36.592 174.328,36.116 173.74,36.116 C173.166,36.116 172.676,36.592 172.676,37.18 C172.676,37.768 173.166,38.244 173.74,38.244 Z M174.636,46 L174.636,39.238 L172.858,39.238 L172.858,46 L174.636,46 Z M178.178,46 L178.178,41.45 C178.472,41.044 179.018,40.652 179.718,40.652 C180.474,40.652 180.964,40.974 180.964,41.912 L180.964,46 L182.742,46 L182.742,41.226 C182.742,39.91 182.028,39.07 180.544,39.07 C179.438,39.07 178.612,39.602 178.178,40.12 L178.178,39.238 L176.4,39.238 L176.4,46 L178.178,46 Z M186.284,46 L186.284,44.264 L187.096,43.396 L188.888,46 L191.114,46 L188.356,42.304 L191.03,39.238 L188.846,39.238 L186.284,42.248 L186.284,36.662 L184.506,36.662 L184.506,46 L186.284,46 Z M195.174,46.168 C196.224,46.168 197.288,45.846 197.96,45.23 L197.176,44.082 C196.742,44.502 196,44.754 195.37,44.754 C194.222,44.754 193.536,44.04 193.424,43.186 L198.45,43.186 L198.45,42.794 C198.45,40.582 197.078,39.07 195.062,39.07 C193.004,39.07 191.562,40.652 191.562,42.612 C191.562,44.782 193.116,46.168 195.174,46.168 Z M196.728,41.982 L193.396,41.982 C193.48,41.31 193.956,40.484 195.062,40.484 C196.238,40.484 196.686,41.338 196.728,41.982 Z M202.3,46.168 C203.112,46.168 203.854,45.804 204.386,45.132 L204.386,46 L206.178,46 L206.178,36.662 L204.386,36.662 L204.386,40.106 C203.854,39.42 203.098,39.07 202.3,39.07 C200.578,39.07 199.304,40.414 199.304,42.626 C199.304,44.88 200.592,46.168 202.3,46.168 Z M202.846,44.586 C201.838,44.586 201.138,43.788 201.138,42.626 C201.138,41.45 201.838,40.652 202.846,40.652 C203.448,40.652 204.092,40.974 204.386,41.422 L204.386,43.816 C204.092,44.264 203.448,44.586 202.846,44.586 Z M209.972,46 L209.972,36.662 L207.984,36.662 L207.984,46 L209.972,46 Z M213.556,46 L213.556,41.45 C213.85,41.044 214.396,40.652 215.096,40.652 C215.852,40.652 216.342,40.974 216.342,41.912 L216.342,46 L218.12,46 L218.12,41.226 C218.12,39.91 217.406,39.07 215.922,39.07 C214.816,39.07 213.99,39.602 213.556,40.12 L213.556,39.238 L211.778,39.238 L211.778,46 L213.556,46 Z" id="ConnectwithLinkedIn"></path>
                <g id="linkedin-(1)">
                    <path d="M54.98625,55 L54.98625,54.9977083 L55,54.9977083 L55,34.8264583 C55,24.9585417 52.875625,17.3570833 41.339375,17.3570833 C35.7935417,17.3570833 32.071875,20.4004167 30.5525,23.285625 L30.3920833,23.285625 L30.3920833,18.2783333 L19.4539583,18.2783333 L19.4539583,54.9977083 L30.8435417,54.9977083 L30.8435417,36.815625 C30.8435417,32.0283333 31.7510417,27.3991667 37.6795833,27.3991667 C43.5210417,27.3991667 43.608125,32.8625 43.608125,37.1227083 L43.608125,55 L54.98625,55 Z" id="Path"></path>
                    <polygon id="Path" points="0.9075 18.280625 12.3108333 18.280625 12.3108333 55 0.9075 55"></polygon>
                    <path d="M6.60458333,0 C2.95854167,0 0,2.95854167 0,6.60458333 C0,10.250625 2.95854167,13.2710417 6.60458333,13.2710417 C10.250625,13.2710417 13.2091667,10.250625 13.2091667,6.60458333 C13.206875,2.95854167 10.2483333,0 6.60458333,0 Z" id="Path"></path>
                </g>
            </g>
        </g>
    </g>
</svg>