<svg width="136" height="31" viewBox="0 0 136 31" fill="none" xmlns="http://www.w3.org/2000/svg">
<path fill-rule="evenodd" clip-rule="evenodd" d="M30.7633 30.9487C31.0524 30.9487 31.3705 30.9487 31.6885 30.9196C33.3076 30.8034 37.5578 29.5538 40.3624 27.1128C40.0616 27.2614 39.7114 27.4497 39.3201 27.6601C37.4924 28.6431 34.7691 30.1076 32.0065 30.2513C31.7174 30.2803 31.4283 30.2803 31.1392 30.2803H31.1392C28.7394 30.2803 27.0335 29.641 27.0335 27.1419C27.0335 25.747 27.6985 23.7128 28.7105 21.6496C31.8331 15.3145 39.2637 5.57948 40.9984 5.57948C41.1719 5.57948 41.5478 5.57948 41.7502 5.9282C41.808 5.17265 40.2756 3.5453 39.495 3.5453C37.153 3.5453 23.8242 13.0188 17.0586 21.2718C20.9907 16.0991 27.554 7.00341 27.554 3.77778C27.554 1.39487 26.0794 0 23.3327 0C14.7166 0 0 11.188 0 15.8667C0 16.7385 0.578257 17.4649 1.47456 17.4649C2.16846 17.4649 3.90324 16.7675 3.90324 16.506C3.61411 16.5932 2.77563 16.7385 2.48651 16.7385C2.22629 16.7385 1.93716 16.5641 1.93716 16.2154C1.93716 14.3846 15.2082 0.726495 23.3327 0.726495C24.4025 0.726495 25.7614 0.958974 25.7614 2.32478C25.7614 4.44156 21.8964 10.0376 18.1318 15.4885C14.5575 20.6637 11.0736 25.7081 11.0736 27.5196C11.0736 28.0718 11.5073 28.5949 12.0278 28.5949C12.5771 28.5949 14.1095 28.1299 14.8612 27.1709C14.8951 27.1369 14.7705 27.1925 14.5773 27.2786L14.5772 27.2786L14.5772 27.2787L14.5772 27.2787C14.1101 27.487 13.2421 27.874 13.2421 27.6068C13.2421 25.9214 23.5062 14.1231 35.2159 7.35213C32.8739 9.9094 29.9537 14.0649 27.9298 17.959C26.3396 20.9812 25.2698 24.0615 25.2698 26.3572C25.2698 29.6991 27.6407 30.9487 30.7633 30.9487ZM40.9408 12.7283C41.2878 12.2343 42.6177 11.0429 43.1093 10.8394C43.3627 10.7236 43.5611 10.774 43.6605 10.7992C43.6858 10.8056 43.7047 10.8104 43.7164 10.8104C43.8321 10.8104 43.6586 10.3745 43.3984 10.0839C43.0225 9.64798 42.3864 9.06678 41.7214 9.15396C40.9697 9.38644 39.871 11.2753 39.8999 12.1181C39.9288 12.6411 40.536 13.2514 40.9408 12.7283ZM39.2449 20.9472C37.2194 22.8981 35.1561 24.6143 34.0882 24.7008C33.9725 24.7008 33.8858 24.7008 33.7412 24.6718C33.2786 24.5265 32.5558 23.8 32.5558 23.2769C32.5558 21.5914 36.7482 15.2564 38.5986 13.7743C38.7432 13.629 38.9166 13.6 39.0323 13.6C39.6973 13.6 40.8538 14.7624 40.8538 15.4889C40.8538 15.5554 40.8064 15.5362 40.7224 15.5022C40.6597 15.4768 40.5768 15.4432 40.4779 15.4307C39.2925 15.3145 35.3314 21.9401 34.9845 23.1316C36.5949 22.707 40.2544 19.3023 42.2209 17.4086C41.4883 18.1968 40.9075 18.9947 40.4721 19.7347C40.1408 20.0697 39.8023 20.4062 39.4618 20.7374L39.2449 20.9472ZM51.1856 18.982C48.3768 21.5061 44.3709 24.7009 41.5768 24.7009C40.6516 24.7009 39.6107 23.8291 39.4661 22.8992C39.4372 22.6667 39.4372 22.3761 39.524 22.0274C39.6384 21.4236 39.9509 20.6207 40.4721 19.7347C41.4053 18.7913 42.2825 17.8592 42.9934 17.0872C43.0801 17 42.9355 16.7675 42.7331 16.9128C42.5799 17.0618 42.4081 17.2283 42.2209 17.4086C42.3842 17.2329 42.5549 17.0578 42.7333 16.8838C45.1041 14.53 48.0243 13.0189 50.0771 13.0189C50.7421 13.0189 51.7252 14.0069 51.7252 14.4428C51.7252 15.5436 50.3174 16.6155 49.3634 17.3419L49.3543 17.3488C49.2965 17.4069 49.1519 17.3488 49.2098 17.2616C49.6724 16.7967 50.8578 14.5009 50.6265 14.2975C47.5328 14.3556 41.8659 20.9231 41.8659 22.9573C41.8659 23.4223 42.4442 23.4804 42.7044 23.4514C44.8614 23.2157 48.4635 20.5913 51.244 18.3831C51.2662 18.491 51.2925 18.6019 51.3205 18.7144C51.2761 18.8036 51.231 18.8928 51.1856 18.982ZM51.1856 18.982C51.9808 18.2674 52.68 17.6066 53.2286 17.0873C53.3154 17.0001 53.113 16.8838 53.0263 16.942C52.496 17.376 51.8923 17.8683 51.244 18.3831C51.1747 18.0452 51.1461 17.7362 51.2337 17.4939C51.4072 17.0289 51.9565 16.7965 52.5059 16.6802C54.5009 13.3093 56.5537 10.3452 58.4041 7.8751C59.8787 5.89903 61.1219 4.4751 62.0471 3.71955C62.5387 3.34177 62.9145 3.19647 63.1458 3.19647C64.8228 3.19647 65.9215 4.911 65.401 4.59134C64.6204 4.21356 63.5217 5.31784 61.8158 7.2939C61.6767 7.45918 61.3272 7.90257 60.9782 8.34909L60.8786 8.47651C60.4654 9.00582 60.0811 9.50245 60.0811 9.50245C58.3463 11.711 56.1778 15.0238 54.6454 17.4939C56.9296 15.0529 60.3991 12.3503 61.8158 12.3503C62.4519 12.3503 63.2036 13.5708 63.2036 14.1811C63.2036 16.3315 57.3054 20.0802 54.0961 19.7896C55.3393 23.0153 59.1558 27.4614 62.9434 27.4614C63.9554 27.4614 64.9673 27.1418 65.9215 26.4153C66.0082 26.3281 66.2395 26.3571 66.0949 26.5024C64.8806 27.6648 63.5217 28.1588 62.1339 28.1588C58.4041 28.1588 54.5009 24.5554 52.5348 21.1554C52.4129 21.3851 52.2634 21.6435 52.1067 21.9142L52.0051 22.09L51.9327 22.2159L51.8603 22.3427C51.1984 23.5077 50.5976 24.7395 51.5518 24.846C51.2048 24.9913 50.8868 24.8751 50.5976 24.7007C50.3952 24.6136 49.817 24.0033 49.5857 23.5383C49.5279 23.3059 49.5279 22.3469 50.4531 20.458C50.6265 20.0705 50.8257 19.6831 51.0249 19.2956C51.0786 19.1911 51.1324 19.0866 51.1856 18.982ZM54.0093 19.441C53.9515 19.3538 53.8937 19.1504 53.8358 18.8598C54.125 18.453 58.751 14.094 60.746 13.6C59.8786 15.3436 56.5537 19.0923 54.0093 19.441ZM103.392 16.7966C103.161 24.4975 82.5463 30.8906 73.6701 30.8906C73.0918 30.8906 72.5425 30.8616 72.0509 30.8035C69.709 30.5129 67.9453 29.612 68.0899 27.4325C68.3212 23.3641 77.9492 18.7727 80.0887 18.4821C80.1111 18.5046 80.0988 18.5097 79.9982 18.5513L79.998 18.5513L79.9978 18.5514L79.9964 18.552C79.9674 18.564 79.9311 18.579 79.8863 18.5983C76.8216 20.0223 69.2753 24.3812 69.0729 27.4906C69.0151 28.5658 71.1546 28.7402 71.9353 28.7983C72.2822 28.8274 72.6581 28.8274 73.034 28.8274C82.633 28.8274 101.253 20.865 101.687 15.8086C101.831 13.8616 98.4195 13.2223 96.3088 13.077C95.933 13.0479 95.586 13.0479 95.2101 13.0479C93.4754 13.0479 91.7406 13.3094 89.8902 13.7453C89.7167 13.9442 89.515 14.1737 89.2929 14.4262C87.4059 16.573 84.0498 20.3909 84.0498 21.3009C84.0498 21.3881 84.1654 21.4462 84.2811 21.4462C84.7148 21.4753 85.8713 21.0684 86.1893 20.9231C85.64 21.4462 84.2811 22.347 83.6739 22.347C83.1824 22.347 82.7487 22.1146 82.7776 21.359C82.8354 18.9471 90.3528 8.39834 95.3547 4.79492C95.8751 4.4462 96.3088 4.3009 96.5401 4.32996C98.1882 4.47526 99.2001 6.24791 98.7086 5.87013C98.3906 5.69578 97.899 5.87013 97.3786 6.21885C95.3673 7.67436 93.5301 9.70489 91.6132 11.8235C91.4634 11.989 91.3132 12.155 91.1623 12.3214C95.9908 10.7231 103.566 7.03253 104 4.7368C104.376 2.61544 100.154 1.7727 98.6219 1.68552C92.2032 1.27868 82.7487 6.33509 82.6041 9.24107C82.5463 9.85133 82.7487 10.4906 83.5872 10.665C83.5872 10.6941 83.298 10.8103 82.9511 10.8103C81.5633 10.8103 80.6959 9.93851 80.8694 8.51458C81.2452 5.34706 87.6928 0.668428 96.5401 0.668428C97.0345 0.668428 97.5288 0.694647 98.0479 0.722181L98.1303 0.726547C101.224 0.929966 105.33 2.38296 105.127 5.78296C104.896 9.82227 97.8701 11.9146 95.8173 12.3795C95.9553 12.3518 96.3303 12.377 96.7412 12.4046L96.8003 12.4086C99.2868 12.612 103.508 13.7163 103.392 16.7966ZM104.954 24.7009C108.034 24.7009 112.338 21.1403 115.044 18.6776C113.735 21.023 113.194 22.3719 113.194 22.9282C113.194 23.2081 113.238 23.2875 113.269 23.3419C113.273 23.3496 113.277 23.3568 113.281 23.364C113.454 23.7999 114.09 24.4102 114.321 24.5264C114.582 24.6717 114.871 24.788 115.247 24.6427C116.114 24.323 117.805 22.841 119.457 21.2354L119.687 21.0107C120.542 20.1716 121.376 19.3122 122.067 18.5783C120.719 20.985 120.162 22.3641 120.162 22.9282C120.162 23.2081 120.206 23.2875 120.237 23.3419C120.241 23.3496 120.245 23.3568 120.249 23.364C120.422 23.7999 121.058 24.4102 121.29 24.5264C121.55 24.6717 121.839 24.788 122.215 24.6427C123.082 24.323 124.774 22.841 126.425 21.2354L126.655 21.0107C128.225 19.471 129.722 17.863 130.397 17.0871C130.484 16.9999 130.368 16.7675 130.195 16.9128C129.951 17.1368 129.645 17.4253 129.295 17.755C127.191 19.7348 123.512 23.198 122.446 23.0735C123.14 21.2136 125.309 17.523 127.824 13.6871C129.27 11.5658 130.455 9.85124 131.698 8.25295C131.896 8.00855 132.109 7.73596 132.331 7.45165C132.476 7.26653 132.624 7.07645 132.775 6.88593L132.903 6.72489C133.974 5.38373 135.139 4.08494 135.862 4.41705C136.411 4.73671 135.255 3.05124 133.635 3.13842C133.375 3.13842 132.999 3.3709 132.566 3.71961C131.843 4.30081 131.033 5.23073 130.166 6.36406C128.662 8.34013 126.812 10.8683 125.019 13.6871C124.146 15.0607 123.408 16.2671 122.791 17.318C122.647 17.4528 122.492 17.5992 122.326 17.7549C120.223 19.7347 116.544 23.198 115.478 23.0735C116.172 21.2136 118.34 17.523 120.856 13.6871C122.301 11.5658 123.487 9.85124 124.73 8.25295C124.928 8.00849 125.141 7.73582 125.363 7.45143C125.508 7.26638 125.656 7.07637 125.807 6.88593L125.935 6.72489C127.005 5.38373 128.171 4.08494 128.893 4.41705C129.443 4.73671 128.286 3.05124 126.667 3.13842C126.407 3.13842 126.031 3.3709 125.597 3.71961C124.875 4.30081 124.065 5.23073 123.198 6.36406C121.694 8.34013 119.844 10.8683 118.051 13.6871C117.071 15.2287 116.261 16.5596 115.602 17.6966C112.597 20.1325 108.102 23.4223 106.197 23.4223C105.561 23.4223 105.301 23.2189 105.33 22.8702C105.416 22.1146 105.966 21.1847 106.486 20.5744C109.724 20.4873 115.276 16.3026 115.276 14.5009C115.276 13.6873 113.946 13.0189 113.512 13.0189C112.269 13.0189 109.696 13.9197 107.296 15.9249C105.474 17.465 104 19.2958 103.306 20.9522C103.074 21.5915 102.901 22.1727 102.901 22.8702C102.901 23.6548 104.058 24.7009 104.954 24.7009ZM115.602 17.6966C115.927 17.4333 116.234 17.18 116.519 16.942C116.606 16.8838 116.808 17.0291 116.721 17.1163L116.466 17.356L116.466 17.3561C116.073 17.7259 115.591 18.1793 115.044 18.6776C115.216 18.3681 115.402 18.0413 115.602 17.6966ZM122.791 17.318C122.528 17.766 122.287 18.1858 122.067 18.5783C122.644 17.9655 123.122 17.4402 123.429 17.0871C123.516 16.9999 123.4 16.7675 123.227 16.9128C123.098 17.031 122.952 17.1672 122.791 17.318ZM106.862 19.9932C107.816 18.453 111.141 14.9368 114.35 13.8906C114.177 14.9949 109.377 19.7026 106.862 19.9932Z" fill="#00225D"/>
</svg>
