<svg width="189" height="43" viewBox="0 0 189 43" fill="none" xmlns="http://www.w3.org/2000/svg">
<path fill-rule="evenodd" clip-rule="evenodd" d="M42.7424 43C43.1441 43 43.586 43 44.0279 42.9596C46.2775 42.7981 52.1827 41.062 56.0793 37.6704C55.6614 37.8769 55.1749 38.1385 54.6313 38.4308L54.6312 38.4309C52.0918 39.7966 48.308 41.8314 44.4698 42.031C44.068 42.0714 43.6663 42.0714 43.2646 42.0714C39.9304 42.0714 37.5603 41.1831 37.5603 37.7108C37.5603 35.7728 38.4842 32.9465 39.8902 30.0798C44.2287 21.2779 54.5528 7.75211 56.9631 7.75211C57.2041 7.75211 57.7263 7.75211 58.0075 8.23662C58.0879 7.18685 55.9588 4.92582 54.8741 4.92582C51.6203 4.92582 33.1012 18.0883 23.7011 29.5549C29.1644 22.3681 38.2834 9.73052 38.2834 5.24883C38.2834 1.93803 36.2346 0 32.4183 0C20.4472 0 0 15.5446 0 22.0451C0 23.2563 0.803428 24.2657 2.04874 24.2657C3.01286 24.2657 5.42314 23.2967 5.42314 22.9333C5.02143 23.0545 3.85646 23.2563 3.45474 23.2563C3.0932 23.2563 2.69148 23.0141 2.69148 22.5296C2.69148 19.9859 21.1302 1.00939 32.4183 1.00939C33.9047 1.00939 35.7927 1.33239 35.7927 3.23005C35.7927 6.17108 30.4228 13.9462 25.1922 21.5197L25.1922 21.5197C20.2261 28.7101 15.3857 35.7187 15.3857 38.2357C15.3857 39.0028 15.9882 39.7296 16.7113 39.7296C17.4746 39.7296 19.6036 39.0836 20.6481 37.7512C20.6951 37.7039 20.522 37.7811 20.2535 37.9009L20.2535 37.9009C19.6045 38.1903 18.3985 38.7281 18.3985 38.3568C18.3985 36.015 32.6594 19.6225 48.9288 10.215C45.6749 13.7681 41.6176 19.5418 38.8056 24.9521C36.5962 29.1512 35.1098 33.431 35.1098 36.6207C35.1098 41.2639 38.4039 43 42.7424 43ZM56.883 17.6846C57.365 16.9982 59.2129 15.3428 59.8958 15.0602C60.248 14.8993 60.5236 14.9692 60.6617 15.0042C60.6969 15.0131 60.7231 15.0198 60.7394 15.0198C60.9001 15.0198 60.6591 14.4141 60.2975 14.0104C59.7753 13.4048 58.8915 12.5972 57.9676 12.7184C56.9231 13.0414 55.3966 15.6658 55.4368 16.8367C55.477 17.5634 56.3206 18.4113 56.883 17.6846ZM54.527 29.104C51.7127 31.8146 48.846 34.199 47.3622 34.3192C47.2015 34.3192 47.081 34.3192 46.8801 34.2788C46.2374 34.077 45.2331 33.0676 45.2331 32.3408C45.2331 29.999 51.058 21.1972 53.6289 19.138C53.8298 18.9361 54.0708 18.8957 54.2315 18.8957C55.1554 18.8957 56.7623 20.5108 56.7623 21.5202C56.7623 21.6127 56.6964 21.586 56.5797 21.5387C56.4927 21.5034 56.3774 21.4567 56.2401 21.4394C54.593 21.2779 49.0896 30.4835 48.6075 32.1389C50.8441 31.5493 55.9253 26.8224 58.6584 24.1906C57.6418 25.285 56.8355 26.3927 56.2312 27.4201C55.7711 27.8853 55.3011 28.3525 54.8282 28.8124L54.527 29.104ZM71.1173 26.3732C67.2148 29.8802 61.6488 34.3193 57.7665 34.3193C56.481 34.3193 55.0349 33.108 54.834 31.816C54.7938 31.493 54.7938 31.0892 54.9144 30.6047C55.0733 29.766 55.5074 28.6507 56.2312 27.4201C57.528 26.1091 58.7471 24.8136 59.735 23.7408C59.8555 23.6197 59.6546 23.2967 59.3734 23.4986C59.1596 23.7064 58.9197 23.9389 58.6584 24.1906C58.8862 23.9454 59.1244 23.701 59.3734 23.4582C62.6674 20.1878 66.7248 18.0883 69.5769 18.0883C70.5009 18.0883 71.8667 19.4611 71.8667 20.0667C71.8667 21.5961 69.9107 23.0854 68.5853 24.0946L68.5726 24.1042C68.4923 24.185 68.2914 24.1042 68.3718 23.9831C69.0145 23.3371 70.6616 20.1474 70.3402 19.8648C66.0418 19.9456 58.1682 29.0704 58.1682 31.8967C58.1682 32.5427 58.9717 32.6235 59.3332 32.5831C62.3302 32.2557 67.3349 28.6094 71.1982 25.5413C71.229 25.6913 71.2655 25.8454 71.3045 26.0018C71.2429 26.1256 71.1804 26.2494 71.1173 26.3732ZM71.1173 26.3732C72.222 25.3804 73.1934 24.4624 73.9556 23.7409C74.0761 23.6197 73.7949 23.4582 73.6744 23.539C72.9377 24.1421 72.099 24.826 71.1982 25.5413C71.1019 25.072 71.0622 24.6426 71.1839 24.3061C71.425 23.66 72.1882 23.337 72.9515 23.1755C75.7233 18.492 78.5755 14.3737 81.1465 10.9417C83.1952 8.19619 84.9226 6.21779 86.2081 5.16803C86.891 4.64314 87.4132 4.44127 87.7346 4.44127C90.0645 4.44127 91.591 6.82342 90.8679 6.37929C89.7833 5.85441 88.2568 7.38868 85.8867 10.1342C85.6934 10.3639 85.2078 10.9799 84.7228 11.6003L84.5845 11.7773C84.0104 12.5128 83.4764 13.2028 83.4764 13.2028C81.0661 16.2713 78.0533 20.8741 75.9242 24.3061C79.0977 20.9145 83.9183 17.1596 85.8867 17.1596C86.7705 17.1596 87.8149 18.8554 87.8149 19.7032C87.8149 22.691 79.6199 27.8995 75.1609 27.4957C76.8883 31.9774 82.1909 38.1549 87.4534 38.1549C88.8594 38.1549 90.2654 37.7107 91.591 36.7014C91.7115 36.5802 92.0329 36.6206 91.832 36.8225C90.1449 38.4375 88.2568 39.1239 86.3286 39.1239C81.1465 39.1239 75.7233 34.1173 72.9917 29.3934C72.8224 29.7123 72.6148 30.0711 72.3973 30.4469L72.3967 30.4479L72.2557 30.6918L72.1551 30.8668L72.0545 31.0429C71.1348 32.6616 70.3002 34.373 71.6258 34.5211C71.1438 34.723 70.7019 34.5615 70.3002 34.3192C70.019 34.1981 69.2155 33.3502 68.8942 32.7042C68.8138 32.3812 68.8138 31.0488 70.0993 28.4244C70.3404 27.886 70.6171 27.3477 70.8938 26.8093L70.8971 26.8029L70.8981 26.8011C70.9714 26.6585 71.0447 26.5158 71.1173 26.3732ZM75.0402 27.0112C74.9598 26.8901 74.8795 26.6075 74.7992 26.2037C75.2009 25.6385 81.6283 19.5821 84.4001 18.8957C83.195 21.3183 78.5753 26.5267 75.0402 27.0112ZM143.653 23.3372C143.332 34.0367 114.689 42.9193 102.357 42.9193C101.553 42.9193 100.79 42.8789 100.107 42.7982C96.8534 42.3944 94.4029 41.1428 94.6038 38.1146C94.9251 32.462 108.302 26.0827 111.275 25.6789C111.306 25.7102 111.289 25.7173 111.149 25.7751L111.149 25.7753C111.108 25.7921 111.057 25.8132 110.994 25.8404C106.736 27.8188 96.2508 33.8752 95.9696 38.1954C95.8893 39.6893 98.8619 39.9315 99.9466 40.0123C100.429 40.0527 100.951 40.0527 101.473 40.0527C114.81 40.0527 140.68 28.9897 141.283 21.9644C141.484 19.2592 136.744 18.371 133.811 18.1691C133.289 18.1287 132.807 18.1287 132.285 18.1287C129.874 18.1287 127.464 18.4921 124.893 19.0977C124.652 19.374 124.372 19.6928 124.063 20.0437L124.063 20.0438L124.063 20.0439C121.441 23.0265 116.778 28.331 116.778 29.5954C116.778 29.7165 116.939 29.7973 117.1 29.7973C117.702 29.8376 119.309 29.2724 119.751 29.0705C118.988 29.7973 117.1 31.0489 116.256 31.0489C115.573 31.0489 114.971 30.7259 115.011 29.6761C115.091 26.325 125.536 11.6686 132.485 6.66204C133.209 6.17753 133.811 5.97566 134.132 6.01603C136.422 6.21791 137.828 8.68082 137.145 8.15594C136.703 7.91368 136.021 8.15594 135.297 8.64044C132.503 10.6627 129.95 13.4839 127.287 16.4275C127.079 16.6574 126.87 16.8882 126.661 17.1193C133.369 14.8987 143.894 9.77096 144.497 6.58129C145.019 3.63387 139.154 2.46298 137.025 2.34185C128.107 1.77659 114.971 8.80195 114.77 12.8395C114.689 13.6874 114.971 14.5757 116.136 14.8179C116.136 14.8583 115.734 15.0198 115.252 15.0198C113.324 15.0198 112.119 13.8085 112.36 11.8301C112.882 7.42918 121.84 0.928707 134.132 0.928707C134.819 0.928707 135.506 0.965136 136.227 1.00339L136.342 1.00946C140.64 1.29209 146.345 3.31087 146.063 8.03481C145.742 13.647 135.98 16.5541 133.128 17.2001C133.32 17.1615 133.841 17.1966 134.412 17.2349L134.494 17.2404C137.949 17.5231 143.814 19.0573 143.653 23.3372ZM145.822 34.3193C150.102 34.3193 156.082 29.3716 159.842 25.9499C158.024 29.209 157.271 31.0834 157.271 31.8563C157.271 32.2453 157.333 32.3555 157.375 32.4312C157.381 32.4419 157.387 32.4519 157.392 32.4619C157.633 33.0675 158.517 33.9154 158.838 34.0769C159.199 34.2788 159.601 34.4403 160.123 34.2384C161.329 33.7943 163.679 31.7351 165.973 29.5044L166.293 29.1922C167.481 28.0267 168.639 26.8331 169.599 25.8136C167.726 29.1568 166.952 31.0726 166.952 31.8563C166.952 32.2453 167.014 32.3555 167.056 32.4312C167.062 32.4419 167.068 32.4519 167.073 32.4619C167.314 33.0675 168.198 33.9154 168.519 34.0769C168.881 34.2788 169.282 34.4403 169.805 34.2384C171.01 33.7943 173.36 31.7351 175.655 29.5044L175.974 29.1922C178.155 27.0529 180.235 24.8187 181.173 23.7408C181.294 23.6197 181.133 23.2966 180.892 23.4985C180.554 23.8097 180.128 24.2106 179.641 24.6686C176.719 27.4193 171.607 32.2312 170.126 32.0582C171.09 29.4741 174.103 24.3464 177.598 19.0168C179.606 16.0694 181.254 13.6873 182.981 11.4666C183.256 11.127 183.552 10.7482 183.861 10.3531C184.061 10.0959 184.268 9.8319 184.477 9.56728L184.655 9.34353C186.142 7.48013 187.761 5.67559 188.766 6.13703C189.529 6.58116 187.922 4.23937 185.672 4.3605C185.311 4.3605 184.789 4.6835 184.186 5.16801C183.182 5.97552 182.057 7.26754 180.852 8.84219C178.763 11.5877 176.192 15.1004 173.701 19.0168C172.488 20.9257 171.462 22.602 170.605 24.0623C170.405 24.2494 170.189 24.4526 169.96 24.6686C167.038 27.4193 161.926 32.2312 160.445 32.0582C161.409 29.4741 164.422 24.3464 167.917 19.0168C169.925 16.0694 171.572 13.6873 173.3 11.4666C173.575 11.127 173.871 10.7482 174.179 10.3532L174.179 10.3531L174.18 10.3522C174.381 10.0953 174.586 9.8316 174.796 9.56728L174.973 9.34353C176.461 7.48013 178.08 5.67559 179.084 6.13703C179.848 6.58116 178.241 4.23937 175.991 4.3605C175.63 4.3605 175.107 4.6835 174.505 5.16801C173.5 5.97552 172.376 7.26754 171.171 8.84219C169.082 11.5877 166.511 15.1004 164.02 19.0168C162.659 21.1585 161.533 23.0075 160.617 24.5871C156.442 27.9715 150.196 32.5427 147.55 32.5427C146.666 32.5427 146.304 32.2601 146.345 31.7756C146.465 30.7258 147.228 29.4338 147.951 28.5859C152.451 28.4648 160.164 22.6507 160.164 20.1474C160.164 19.0169 158.316 18.0883 157.713 18.0883C155.986 18.0883 152.41 19.3399 149.076 22.1258C146.545 24.2657 144.497 26.8094 143.533 29.1108C143.211 29.9991 142.97 30.8066 142.97 31.7756C142.97 32.8657 144.577 34.3193 145.822 34.3193ZM160.617 24.5871C161.068 24.2214 161.495 23.8697 161.891 23.539C162.011 23.4582 162.293 23.6601 162.172 23.7812C162.065 23.8816 161.952 23.9881 161.833 24.1002L161.83 24.1025L161.818 24.1142L161.818 24.1145C161.271 24.6281 160.602 25.2578 159.842 25.9499C160.081 25.5199 160.34 25.0659 160.617 24.5871ZM170.605 24.0623C170.239 24.6849 169.905 25.2682 169.599 25.8136C170.401 24.9617 171.065 24.2315 171.492 23.7408C171.612 23.6197 171.452 23.2966 171.211 23.4985C171.032 23.663 170.829 23.8525 170.605 24.0623ZM148.474 27.7784C149.799 25.6385 154.419 20.7531 158.878 19.2996C158.637 20.8338 151.968 27.3747 148.474 27.7784Z" fill="#00225D"/>
</svg>
