<?xml version="1.0" encoding="UTF-8"?>
<svg width="50px" height="50px" viewBox="0 0 50 50" version="1.1" xmlns="http://www.w3.org/2000/svg" xmlns:xlink="http://www.w3.org/1999/xlink">
    <title>none</title>
    <g id="Free-Strategy-Form" stroke="none" stroke-width="1" fill="none" fill-rule="evenodd">
        <g id="Startegy-Session-Form---Step-3" transform="translate(-1079.000000, -471.000000)" fill-rule="nonzero">
            <g id="none" transform="translate(1079.000000, 471.000000)">
                <path d="M24.955848,43.6999025 C20.9023392,43.6999025 17.1496101,42.412963 14.0833333,40.2258285 L24.9605263,29.3486355 L25.9351852,24.9605263 L24.9605263,20.5637427 L9.69015595,35.8341131 C7.50048733,32.7667641 6.21189084,29.0118908 6.21189084,24.9559454 C6.21189084,14.6038986 14.6038986,6.2119883 24.955848,6.2119883 L24.9604288,6.2119883 L25.9351852,2.83118908 L24.9604288,0 C24.9588694,0 24.9574074,0 24.955848,0 C11.1730994,0 0,11.1730994 0,24.955848 C0,38.7385965 11.1730994,49.9116959 24.955848,49.9116959 C24.9574074,49.9116959 24.9588694,49.9116959 24.9604288,49.9116959 L25.9351852,46.6906433 L24.9604288,43.6997076 C24.9589669,43.6998051 24.9574074,43.6999025 24.955848,43.6999025 Z" id="Path" fill="#FF6C6C"></path>
                <path d="M49.9117934,24.955848 C49.9117934,11.1746589 38.7411306,0.00253411306 24.9605263,0 L24.9605263,6.21189084 C29.0147173,6.2128655 32.7679337,7.50126706 35.8341131,9.69005848 L24.9605263,20.5637427 L24.9605263,29.3486355 L40.2258285,14.0833333 C42.4130604,17.1496101 43.6999025,20.9024366 43.6999025,24.955848 C43.6999025,35.3063353 35.3104288,43.697271 24.9605263,43.6998051 L24.9605263,49.9116959 C38.7411306,49.9091618 49.9117934,38.737037 49.9117934,24.955848 L49.9117934,24.955848 Z" id="Path" fill="#C83C50"></path>
            </g>
        </g>
    </g>
</svg>