<?xml version="1.0" encoding="UTF-8"?>
<svg width="60px" height="50px" viewBox="0 0 60 50" version="1.1" xmlns="http://www.w3.org/2000/svg" xmlns:xlink="http://www.w3.org/1999/xlink">
    <title>print</title>
    <g id="Free-Strategy-Form" stroke="none" stroke-width="1" fill="none" fill-rule="evenodd">
        <g id="Startegy-Session-Form---Step-3" transform="translate(-1073.000000, -340.000000)" fill-rule="nonzero">
            <g id="print" transform="translate(1073.000000, 340.000000)">
                <path d="M60,12.0372545 L60,48.149018 C60,49.171274 59.1730078,50 58.1528906,50 L1.84710938,50 C0.826992188,50 0,49.171274 0,48.149018 L0,1.85098198 C0,0.828726038 0.826992188,0 1.84710938,0 L47.9879297,0 L52.0901953,4.11086633 L55.8097266,7.83819585 L60,12.0372545 Z" id="Path" fill="#E3E3E3"></path>
                <g id="Group" fill="#C8C8C8">
                    <path d="M60,45.215493 L60,48.1367371 C60,49.1584507 59.1730078,49.9867371 58.1528906,49.9867371 L1.84710938,49.9867371 C0.826992188,49.9867371 0,49.1584507 0,48.1367371 L0,45.215493 C0,46.2372066 0.826992188,47.065493 1.84710938,47.065493 L58.1528906,47.065493 C59.1730078,47.065493 60,46.2372066 60,45.215493 Z" id="Path"></path>
                    <path d="M60,12.0441315 L60,13.4950704 L49.8350391,13.4950704 C48.0181641,13.4950704 46.5392578,12.0138498 46.5392578,10.1941315 L46.5392578,0.0132629108 L47.9879297,0.0132629108 L60,12.0441315 Z" id="Path"></path>
                    <path d="M55.8096094,7.8471831 L55.8096094,16.7319249 C55.8096094,17.5323944 55.1613281,18.1828638 54.3609375,18.1828638 L5.6390625,18.1828638 C4.83867187,18.1828638 4.19039062,17.5323944 4.19039062,16.7319249 L4.19039062,5.57288732 C4.19039062,4.77124413 4.83867187,4.12194836 5.6390625,4.12194836 L52.0901953,4.12194836 L55.8096094,7.8471831 Z" id="Path"></path>
                </g>
                <path d="M50.0383922,6 L5.72846725,6 C5.32610724,6 5,6.3201401 5,6.71513768 L5,16.2848623 C5,16.6798599 5.32610724,17 5.72846725,17 L53.2715328,17 C53.6738928,17 54,16.6798599 54,16.2848623 L54,9.88911795 L50.0383922,6 Z" id="Path" fill="#159BFF"></path>
                <g id="Group" transform="translate(16.000000, 8.000000)" fill="#E3E3E3">
                    <path d="M5.67189474,0.011625 C5.16647368,0.011625 4.75697368,0.444 4.75697368,0.977375 L4.75697368,3.6045 L1.67542105,0.299875 C1.41501316,0.0205 1.02031579,-0.065125 0.676539474,0.083625 C0.332881579,0.23225 0.108355263,0.585375 0.108355263,0.977375 L0.108355263,5.962375 C0.108355263,6.49575 0.517973684,6.92812512 1.02327632,6.92812512 C1.52869737,6.92812512 1.93819737,6.49575 1.93819737,5.962375 L1.93819737,3.33525 L5.01975,6.639875 C5.19513158,6.828 5.43138158,6.92825 5.67201316,6.92812512 C5.78865789,6.92812512 5.90636842,6.904625 6.01863158,6.856125 C6.36228947,6.7075 6.58681582,6.354375 6.58681582,5.962375 L6.58681582,0.977375 C6.58693421,0.444 6.17731579,0.011625 5.67189474,0.011625 Z" id="Path"></path>
                    <path d="M11.8666184,1.94325 C12.3720395,1.94325 12.7815395,1.510875 12.7815395,0.9775 C12.7815395,0.444125 12.3719211,0.01175 11.8666184,0.01175 L8.52371053,0.01175 C8.01828947,0.01175 7.60878947,0.444125 7.60878947,0.9775 L7.60878947,5.9625 C7.60878947,6.495875 8.01840789,6.92825 8.52371053,6.92825 L11.8666184,6.92825 C12.3720395,6.92825 12.7815395,6.495875 12.7815395,5.9625 C12.7815395,5.429125 12.3719211,4.99675 11.8666184,4.99675 L9.43863158,4.99675 L9.43863158,4.435875 L10.1951053,4.435875 C10.7005263,4.435875 11.1100263,4.0035 11.1100263,3.470125 C11.1100263,2.93675 10.7004079,2.504375 10.1951053,2.504375 L9.43863158,2.504375 L9.43863158,1.9435 L11.8666184,1.9435 L11.8666184,1.94325 Z" id="Path"></path>
                    <path d="M20.4456316,0.03325 C19.9528816,-0.079 19.4651053,0.25275 19.3587632,0.77425 L18.7928289,3.550625 L18.1072895,2.484 C17.9368816,2.219 17.6533816,2.060375 17.3501053,2.060375 C17.0468289,2.060375 16.7632105,2.219 16.5929211,2.484 L15.9073816,3.550625 L15.3414474,0.77425 C15.2351053,0.25275 14.7473289,-0.079125 14.2545789,0.03325 C13.7605263,0.145375 13.4462368,0.659125 13.5524605,1.180625 L14.5685132,6.165625 C14.6456053,6.543625 14.92875,6.83675 15.2882763,6.9105 C15.6480395,6.98425 16.0145526,6.824625 16.2201316,6.504625 L17.3498684,4.746625 L18.4796053,6.504625 C18.6520263,6.77275 18.9371842,6.92827879 19.2366711,6.92827879 C19.2945789,6.92827879 19.3531974,6.922375 19.4114605,6.9105 C19.7709868,6.836625 20.05425,6.543625 20.1312237,6.165625 L21.1472763,1.180625 C21.2539737,0.659125 20.9396842,0.145375 20.4456316,0.03325 Z" id="Path"></path>
                    <path d="M24.7959474,2.504125 L23.8142368,2.504125 C23.66775,2.504125 23.5486184,2.37825 23.5486184,2.22375 C23.5486184,2.069125 23.66775,1.94325 23.8142368,1.94325 L25.9766053,1.94325 C26.4820263,1.94325 26.8915263,1.510875 26.8915263,0.9775 C26.8915263,0.444125 26.4819079,0.01175 25.9766053,0.01175 L23.8142368,0.01175 C22.6586842,0.01175 21.7186579,1.004125 21.7186579,2.223875 C21.7186579,3.443625 22.6588026,4.435875 23.8142368,4.435875 L24.7959474,4.435875 C24.9424342,4.435875 25.0615658,4.56175 25.0615658,4.716375 C25.0615658,4.871 24.9424342,4.99675 24.7959474,4.99675 L22.6335789,4.99675 C22.1281579,4.99675 21.7186579,5.429125 21.7186579,5.9625 C21.7186579,6.495875 22.1282763,6.92825 22.6335789,6.92825 L24.7959474,6.92825 C25.9515,6.92825 26.8915263,5.935875 26.8915263,4.71625 C26.8916447,3.4965 25.9515,2.504125 24.7959474,2.504125 Z" id="Path"></path>
                </g>
                <path d="M60,12 L49.8457216,12 C48.8263953,12 48,11.1736047 48,10.1542784 L48,0 L60,12 Z" id="Path" fill="#AAAAAA"></path>
                <path d="M4,32.5845146 L4,20.4154854 C4,19.6337738 4.65443404,19 5.46162847,19 L31.5383715,19 C32.345566,19 33,19.6337738 33,20.4154854 L33,32.5845146 C33,33.3662262 32.345566,34 31.5383715,34 L5.46162847,34 C4.6543158,34 4,33.3662262 4,32.5845146 Z" id="Path" fill="#C8C8C8"></path>
                <path d="M32,21.6979121 L32,32.3020879 C32,32.6875712 31.6738049,33 31.2713365,33 L6.72866347,33 C6.32619509,33 6,32.6875712 6,32.3020879 L6,21.6979121 C6,21.3124288 6.32619509,21 6.72866347,21 L31.2713365,21 C31.6738049,21 32,21.3124288 32,21.6979121 Z" id="Path" fill="#89BF4A"></path>
                <path d="M28,33 L10,33 C10,28.0284595 14.030559,24 18.9985741,24 C23.969441,24 28,28.0284595 28,33 Z" id="Path" fill="#FC4747"></path>
                <path d="M23,33 L14,33 C14,30.2380866 16.0152734,28 18.4993588,28 C20.9847266,28 23,30.2380866 23,33 Z" id="Path" fill="#FFDA2C"></path>
                <g id="Group" transform="translate(4.000000, 19.000000)" fill="#AAAAAA">
                    <path d="M11.3712292,19.4388584 L4.81265278,19.4388584 C4.30879167,19.4388584 3.90055556,19.0282009 3.90055556,18.5216164 C3.90055556,18.015032 4.30890972,17.6043744 4.81265278,17.6043744 L11.3712292,17.6043744 C11.8750903,17.6043744 12.2833264,18.015032 12.2833264,18.5216164 C12.2833264,19.0282009 11.8750903,19.4388584 11.3712292,19.4388584 Z" id="Path"></path>
                    <path d="M1.90518056,19.4388584 L0.958611111,19.4388584 C0.45475,19.4388584 0.0465138889,19.0282009 0.0465138889,18.5216164 C0.0465138889,18.015032 0.454868056,17.6043744 0.958611111,17.6043744 L1.90518056,17.6043744 C2.40904167,17.6043744 2.81727778,18.015032 2.81727778,18.5216164 C2.81727778,19.0282009 2.40892361,19.4388584 1.90518056,19.4388584 Z" id="Path"></path>
                    <path d="M11.3712292,22.7026301 L0.958611111,22.7026301 C0.45475,22.7026301 0.0465138889,22.2919726 0.0465138889,21.7853881 C0.0465138889,21.2788037 0.454868056,20.8681461 0.958611111,20.8681461 L11.3712292,20.8681461 C11.8750903,20.8681461 12.2833264,21.2788037 12.2833264,21.7853881 C12.2833264,22.2919726 11.8750903,22.7026301 11.3712292,22.7026301 Z" id="Path"></path>
                    <path d="M11.3712292,25.9665205 L9.88361111,25.9665205 C9.37975,25.9665205 8.97151389,25.555863 8.97151389,25.0492785 C8.97151389,24.5426941 9.37986806,24.1320365 9.88361111,24.1320365 L11.3712292,24.1320365 C11.8750903,24.1320365 12.2833264,24.5426941 12.2833264,25.0492785 C12.2833264,25.555863 11.8750903,25.9665205 11.3712292,25.9665205 Z" id="Path"></path>
                    <path d="M7.17907639,25.9665205 L0.958611111,25.9665205 C0.45475,25.9665205 0.0465138889,25.555863 0.0465138889,25.0492785 C0.0465138889,24.5426941 0.454868056,24.1320365 0.958611111,24.1320365 L7.17907639,24.1320365 C7.6829375,24.1320365 8.09117361,24.5426941 8.09117361,25.0492785 C8.09117361,25.555863 7.68281944,25.9665205 7.17907639,25.9665205 Z" id="Path"></path>
                    <path d="M26.9961181,19.4388584 L20.4375417,19.4388584 C19.9336806,19.4388584 19.5254444,19.0282009 19.5254444,18.5216164 C19.5254444,18.015032 19.9337986,17.6043744 20.4375417,17.6043744 L26.9961181,17.6043744 C27.4999792,17.6043744 27.9082153,18.015032 27.9082153,18.5216164 C27.9082153,19.0282009 27.4999792,19.4388584 26.9961181,19.4388584 Z" id="Path"></path>
                    <path d="M17.5300694,19.4388584 L16.5835,19.4388584 C16.0796389,19.4388584 15.6714028,19.0282009 15.6714028,18.5216164 C15.6714028,18.015032 16.0797569,17.6043744 16.5835,17.6043744 L17.5300694,17.6043744 C18.0339306,17.6043744 18.4421667,18.015032 18.4421667,18.5216164 C18.4421667,19.0282009 18.0339306,19.4388584 17.5300694,19.4388584 Z" id="Path"></path>
                    <path d="M26.9961181,22.7026301 L16.5835,22.7026301 C16.0796389,22.7026301 15.6714028,22.2919726 15.6714028,21.7853881 C15.6714028,21.2788037 16.0797569,20.8681461 16.5835,20.8681461 L26.9961181,20.8681461 C27.4999792,20.8681461 27.9082153,21.2788037 27.9082153,21.7853881 C27.9082153,22.2919726 27.4999792,22.7026301 26.9961181,22.7026301 Z" id="Path"></path>
                    <path d="M26.9961181,25.9665205 L25.5085,25.9665205 C25.0046389,25.9665205 24.5964028,25.555863 24.5964028,25.0492785 C24.5964028,24.5426941 25.0047569,24.1320365 25.5085,24.1320365 L26.9961181,24.1320365 C27.4999792,24.1320365 27.9082153,24.5426941 27.9082153,25.0492785 C27.9082153,25.555863 27.4999792,25.9665205 26.9961181,25.9665205 Z" id="Path"></path>
                    <path d="M22.8039653,25.9665205 L16.5835,25.9665205 C16.0796389,25.9665205 15.6714028,25.555863 15.6714028,25.0492785 C15.6714028,24.5426941 16.0797569,24.1320365 16.5835,24.1320365 L22.8039653,24.1320365 C23.3078264,24.1320365 23.7160625,24.5426941 23.7160625,25.0492785 C23.7160625,25.555863 23.3078264,25.9665205 22.8039653,25.9665205 Z" id="Path"></path>
                    <path d="M50.0413889,1.91960731 L33.343375,1.91960731 C32.8395139,1.91960731 32.4312778,1.50894977 32.4312778,1.0023653 C32.4312778,0.495780822 32.8396319,0.0851232877 33.343375,0.0851232877 L50.0413889,0.0851232877 C50.54525,0.0851232877 50.9534861,0.495780822 50.9534861,1.0023653 C50.9534861,1.50894977 50.54525,1.91960731 50.0413889,1.91960731 Z" id="Path"></path>
                    <path d="M50.0413889,5.18326027 L33.343375,5.18326027 C32.8395139,5.18326027 32.4312778,4.77260274 32.4312778,4.26601826 C32.4312778,3.75943379 32.8396319,3.34877626 33.343375,3.34877626 L50.0413889,3.34877626 C50.54525,3.34877626 50.9534861,3.75943379 50.9534861,4.26601826 C50.9534861,4.77260274 50.54525,5.18326027 50.0413889,5.18326027 Z" id="Path"></path>
                    <path d="M50.0413889,8.44715068 L39.0240903,8.44715068 C38.5202292,8.44715068 38.1119931,8.03649315 38.1119931,7.52990868 C38.1119931,7.0233242 38.5203472,6.61266667 39.0240903,6.61266667 L50.0413889,6.61266667 C50.54525,6.61266667 50.9534861,7.0233242 50.9534861,7.52990868 C50.9534861,8.03649315 50.54525,8.44715068 50.0413889,8.44715068 Z" id="Path"></path>
                    <path d="M35.7773264,8.44715068 L33.3432569,8.44715068 C32.8393958,8.44715068 32.4311597,8.03649315 32.4311597,7.52990868 C32.4311597,7.0233242 32.8395139,6.61266667 33.3432569,6.61266667 L35.7773264,6.61266667 C36.2811875,6.61266667 36.6894236,7.0233242 36.6894236,7.52990868 C36.6895417,8.03649315 36.2811875,8.44715068 35.7773264,8.44715068 Z" id="Path"></path>
                    <path d="M50.0413889,14.2647397 L33.343375,14.2647397 C32.8395139,14.2647397 32.4312778,13.8540822 32.4312778,13.3474977 C32.4312778,12.8409132 32.8396319,12.4302557 33.343375,12.4302557 L50.0413889,12.4302557 C50.54525,12.4302557 50.9534861,12.8409132 50.9534861,13.3474977 C50.9534861,13.8540822 50.54525,14.2647397 50.0413889,14.2647397 Z" id="Path"></path>
                    <path d="M50.0413889,19.4388584 L48.1478958,19.4388584 C47.6440347,19.4388584 47.2357986,19.0282009 47.2357986,18.5216164 C47.2357986,18.015032 47.6441528,17.6043744 48.1478958,17.6043744 L50.0413889,17.6043744 C50.54525,17.6043744 50.9534861,18.015032 50.9534861,18.5216164 C50.9536042,19.0282009 50.54525,19.4388584 50.0413889,19.4388584 Z" id="Path"></path>
                    <path d="M44.7049236,19.4388584 L33.343375,19.4388584 C32.8395139,19.4388584 32.4312778,19.0282009 32.4312778,18.5216164 C32.4312778,18.015032 32.8396319,17.6043744 33.343375,17.6043744 L44.7049236,17.6043744 C45.2087847,17.6043744 45.6170208,18.015032 45.6170208,18.5216164 C45.6170208,19.0282009 45.2087847,19.4388584 44.7049236,19.4388584 Z" id="Path"></path>
                    <path d="M50.0413889,22.6969315 L33.343375,22.6969315 C32.8395139,22.6969315 32.4312778,22.286274 32.4312778,21.7796895 C32.4312778,21.273105 32.8396319,20.8624475 33.343375,20.8624475 L50.0413889,20.8624475 C50.54525,20.8624475 50.9534861,21.273105 50.9534861,21.7796895 C50.9534861,22.2861553 50.54525,22.6969315 50.0413889,22.6969315 Z" id="Path"></path>
                    <path d="M50.0413889,25.9665205 L33.343375,25.9665205 C32.8395139,25.9665205 32.4312778,25.555863 32.4312778,25.0492785 C32.4312778,24.5426941 32.8396319,24.1320365 33.343375,24.1320365 L50.0413889,24.1320365 C50.54525,24.1320365 50.9534861,24.5426941 50.9534861,25.0492785 C50.9534861,25.555863 50.54525,25.9665205 50.0413889,25.9665205 Z" id="Path"></path>
                </g>
            </g>
        </g>
    </g>
</svg>