<?xml version="1.0" encoding="UTF-8"?>
<svg width="36px" height="50px" viewBox="0 0 36 50" version="1.1" xmlns="http://www.w3.org/2000/svg" xmlns:xlink="http://www.w3.org/1999/xlink">
    <title>radio</title>
    <g id="Free-Strategy-Form" stroke="none" stroke-width="1" fill="none" fill-rule="evenodd">
        <g id="Startegy-Session-Form---Step-3" transform="translate(-830.000000, -471.000000)" fill-rule="nonzero">
            <g id="radio" transform="translate(830.000000, 471.000000)">
                <polygon id="Path" fill="#4E588B" points="14.0146484 42.3994141 21.3369141 42.3994141 21.3369141 48.5351563 14.0146484 48.5351563"></polygon>
                <polygon id="Path" fill="#293E65" points="17.6757812 42.3994141 21.3369141 42.3994141 21.3369141 48.5351563 17.6757812 48.5351563"></polygon>
                <polygon id="Path" fill="#6673B5" points="7.38476562 47.0703125 27.9667969 47.0703125 27.9667969 50 7.38476562 50"></polygon>
                <polygon id="Path" fill="#4E588B" points="17.6757812 47.0703125 27.9667969 47.0703125 27.9667969 50 17.6757812 50"></polygon>
                <path d="M29.4375,11.7548828 C29.4375,11.2587891 27.9550781,10.2900391 27.9550781,10.2900391 C27.9550781,10.2900391 29.1894531,9.30273438 29.0664062,8.82519531 C27.7587891,3.75585938 23.1474609,0 17.6757812,0 C12.2041016,0 7.59277344,3.75585938 6.28515625,8.82519531 C6.16503906,9.29296875 7.38476562,10.2617188 7.38476562,10.2617188 C7.38476562,10.2617188 5.91503906,11.25 5.9140625,11.7548828 L5.9140625,14.7089844 L7.2890625,16.1738281 L5.9140625,17.6386719 L5.9140625,20.5927734 L7.2890625,22.0576172 L5.9140625,23.5224609 L5.9140625,26.4765625 C5.9140625,26.9726562 7.38085938,27.9414062 7.38085938,27.9414062 C7.38085938,27.9414062 6.16210938,28.9287109 6.28515625,29.40625 C7.59277344,34.4765625 12.2041016,38.2324219 17.6757812,38.2324219 C23.1474609,38.2324219 27.7587891,34.4765625 29.0664062,29.40625 C29.1875,28.9384766 27.9511719,27.9697266 27.9511719,27.9697266 C27.9511719,27.9697266 29.4365234,26.9814453 29.4375,26.4765625 L29.4375,23.5224609 L28.046875,22.0576172 L29.4375,20.5927734 L29.4375,17.6386719 L28.046875,16.1738281 L29.4375,14.7089844 L29.4375,11.7548828 Z" id="Path" fill="#8AB6F7"></path>
                <path d="M29.4375,14.7089844 L28.046875,16.1738281 L29.4375,17.6386719 L29.4375,20.5927734 L28.046875,22.0576172 L29.4375,23.5224609 L29.4375,26.4765625 C29.4365234,26.9814453 27.9511719,27.9697266 27.9511719,27.9697266 C27.9511719,27.9697266 29.1875,28.9384766 29.0664062,29.40625 C27.7587891,34.4765625 23.1474609,38.2324219 17.6757812,38.2324219 L17.6757812,0 C23.1474609,0 27.7587891,3.75585938 29.0664062,8.82519531 C29.1894531,9.30273438 27.9550781,10.2900391 27.9550781,10.2900391 C27.9550781,10.2900391 29.4375,11.2587891 29.4375,11.7548828 L29.4375,14.7089844 Z" id="Path" fill="#8596F8"></path>
                <path d="M35.3212891,26.4707031 C35.3212891,36.2001953 27.4052734,44.1152344 17.6757812,44.1152344 C7.94628906,44.1152344 0.0302734375,36.2001953 0.0302734375,26.4707031 L2.95996094,26.4707031 C2.95996094,34.5849609 9.56152344,41.1855469 17.6757812,41.1855469 C25.7900391,41.1855469 32.3916016,34.5849609 32.3916016,26.4707031 L35.3212891,26.4707031 Z" id="Path" fill="#6673B5"></path>
                <path d="M35.3212891,26.4707031 C35.3212891,36.2001953 27.4052734,44.1152344 17.6757813,44.1152344 L17.6757813,41.1855469 C25.7900391,41.1855469 32.3916016,34.5849609 32.3916016,26.4707031 L35.3212891,26.4707031 Z" id="Path" fill="#4E588B"></path>
                <path d="M14.734375,26.4765625 L14.734375,29.40625 L6.28515625,29.40625 C6.04296875,28.4697266 5.91503906,27.4873047 5.9140625,26.4765625 L14.734375,26.4765625 Z" id="Path" fill="#BEEAF8"></path>
                <polygon id="Path" fill="#BEEAF8" points="5.9140625 20.5927734 14.734375 20.5927734 14.734375 23.5224609 5.9140625 23.5224609"></polygon>
                <polygon id="Path" fill="#BEEAF8" points="5.9140625 14.7089844 14.734375 14.7089844 14.734375 17.6386719 5.9140625 17.6386719"></polygon>
                <path d="M14.734375,8.82519531 L14.734375,11.7548828 L5.9140625,11.7548828 C5.91503906,10.7441406 6.04394531,9.76171875 6.28515625,8.82519531 L14.734375,8.82519531 Z" id="Path" fill="#BEEAF8"></path>
                <g id="Group" transform="translate(20.605469, 8.789062)" fill="#8AB6F7">
                    <path d="M8.83203125,17.6875 C8.83105469,18.6982422 8.703125,19.6806641 8.4609375,20.6171875 L0.01171875,20.6171875 L0.01171875,17.6875 L8.83203125,17.6875 Z" id="Path"></path>
                    <polygon id="Path" points="0.01171875 11.8037109 8.83203125 11.8037109 8.83203125 14.7333984 0.01171875 14.7333984"></polygon>
                    <polygon id="Path" points="0.01171875 5.91992188 8.83203125 5.91992188 8.83203125 8.84960938 0.01171875 8.84960938"></polygon>
                    <path d="M8.83203125,2.96582031 L0.01171875,2.96582031 L0.01171875,0.0361328125 L8.4609375,0.0361328125 C8.70214844,0.97265625 8.83105469,1.95507813 8.83203125,2.96582031 Z" id="Path"></path>
                </g>
            </g>
        </g>
    </g>
</svg>