<?xml version="1.0" encoding="UTF-8"?>
<svg width="50px" height="50px" viewBox="0 0 50 50" version="1.1" xmlns="http://www.w3.org/2000/svg" xmlns:xlink="http://www.w3.org/1999/xlink">
    <title>search</title>
    <g id="Free-Strategy-Form" stroke="none" stroke-width="1" fill="none" fill-rule="evenodd">
        <g id="Startegy-Session-Form---Step-3" transform="translate(-311.000000, -340.000000)" fill-rule="nonzero">
            <g id="search" transform="translate(311.000000, 340.000000)">
                <path d="M11.0810547,30.215625 L9.340625,36.7128906 L2.97939453,36.8474609 C1.07832031,33.3213867 0,29.2871094 0,25 C0,20.8543945 1.00820312,16.9450195 2.7953125,13.5027344 L2.79667969,13.5027344 L8.45996094,14.5410156 L10.9408203,20.1703125 C10.421582,21.684082 10.1385742,23.309082 10.1385742,25 C10.1387695,26.8351562 10.4711914,28.593457 11.0810547,30.215625 Z" id="Path" fill="#FBBB00"></path>
                <path d="M49.5631836,20.3296875 C49.850293,21.8419922 50,23.4038086 50,25 C50,26.7898437 49.8118164,28.5357422 49.4533203,30.2198242 C48.2363281,35.9505859 45.0563477,40.9546875 40.6511719,44.4958984 L40.6498047,44.4945313 L33.5166016,44.1305664 L32.5070312,37.8283203 C35.4300781,36.1140625 37.7144531,33.4313477 38.9177734,30.2198242 L25.5496094,30.2198242 L25.5496094,20.3296875 L39.112793,20.3296875 L49.5631836,20.3296875 L49.5631836,20.3296875 Z" id="Path" fill="#518EF8"></path>
                <path d="M40.649707,44.4945313 L40.6510742,44.4958984 C36.3667969,47.9395508 30.9244141,50 25,50 C15.4793945,50 7.20195312,44.6786133 2.97939453,36.8475586 L11.0810547,30.2157227 C13.1922852,35.850293 18.6277344,39.8613281 25,39.8613281 C27.7389648,39.8613281 30.3049805,39.1208984 32.5068359,37.8283203 L40.649707,44.4945313 Z" id="Path" fill="#28B446"></path>
                <path d="M40.9574219,5.75546875 L32.8584961,12.3859375 C30.5796875,10.9615234 27.8859375,10.1386719 25,10.1386719 C18.4834961,10.1386719 12.9463867,14.3336914 10.940918,20.1703125 L2.79667969,13.5027344 L2.7953125,13.5027344 C6.95605469,5.48076172 15.3378906,0 25,0 C31.065918,0 36.6277344,2.16074219 40.9574219,5.75546875 Z" id="Path" fill="#F14336"></path>
            </g>
        </g>
    </g>
</svg>