<?xml version="1.0" encoding="UTF-8"?>
<svg width="68px" height="50px" viewBox="0 0 68 50" version="1.1" xmlns="http://www.w3.org/2000/svg" xmlns:xlink="http://www.w3.org/1999/xlink">
    <title>tv</title>
    <g id="Free-Strategy-Form" stroke="none" stroke-width="1" fill="none" fill-rule="evenodd">
        <g id="Startegy-Session-Form---Step-3" transform="translate(-558.000000, -471.000000)" fill-rule="nonzero">
            <g id="tv" transform="translate(558.000000, 471.000000)">
                <g id="Group">
                    <g transform="translate(5.000000, 42.500000)" fill="#B5B1A4" id="Path">
                        <path d="M12.4681579,0.118684211 L6.22157895,6.98986842 C5.92934211,7.31131579 5.51513158,7.49460526 5.08078947,7.49460526 L0.825526316,7.49460526 C0.156315789,7.49460526 -0.195131579,6.70039474 0.255131579,6.20513158 L5.78815789,0.118684211 L12.4681579,0.118684211 Z"></path>
                        <path d="M44.9002632,0.118684211 L51.1468421,6.98986842 C51.4390789,7.31131579 51.8532895,7.49460526 52.2876316,7.49460526 L56.5428947,7.49460526 C57.2121053,7.49460526 57.5635526,6.70039474 57.1132895,6.20513158 L51.5802632,0.118684211 L44.9002632,0.118684211 Z"></path>
                    </g>
                    <g transform="translate(6.447368, 42.500000)" fill="#8F8B81" id="Path">
                        <polygon points="6.70513158 4.86592105 11.0207895 0.118684211 4.34078947 0.118684211 0.0251315789 4.86592105"></polygon>
                        <polygon points="54.4485526 4.86592105 50.1328947 0.118684211 43.4528947 0.118684211 47.7685526 4.86592105"></polygon>
                    </g>
                    <g id="Path">
                        <path d="M65.3947368,45.1273684 L1.97368421,45.1273684 C0.883684211,45.1273684 0,44.2436842 0,43.1536842 L0,1.97934211 C0,0.889342105 0.883684211,0.00565789474 1.97368421,0.00565789474 L65.3947368,0.00565789474 C66.4847368,0.00565789474 67.3684211,0.889342105 67.3684211,1.97934211 L67.3684211,43.1536842 C67.3684211,44.2438158 66.4847368,45.1273684 65.3947368,45.1273684 Z" fill="#706C64"></path>
                        <path d="M65.3947368,45.1273684 L1.97368421,45.1273684 C0.883684211,45.1273684 0,44.2436842 0,43.1536842 L0,1.97934211 C0,0.889342105 0.883684211,0.00565789474 1.97368421,0.00565789474 L65.3947368,0.00565789474 C66.4847368,0.00565789474 67.3684211,0.889342105 67.3684211,1.97934211 L67.3684211,43.1536842 C67.3684211,44.2438158 66.4847368,45.1273684 65.3947368,45.1273684 Z" fill="#706C64"></path>
                        <path d="M67.3684211,1.97907895 L67.3684211,43.1540789 C67.3684211,44.2435526 66.4842105,45.1277632 65.3947368,45.1277632 L34.0315789,45.1277632 C50.2947368,40.9553947 62.3157895,26.1988158 62.3157895,8.63434211 C62.3157895,5.66460526 61.9723684,2.77644737 61.3223684,0.00539473684 L65.3947368,0.00539473684 C66.4842105,0.00539473684 67.3684211,0.889605263 67.3684211,1.97907895 Z" fill="#595751"></path>
                        <path d="M67.3684211,38.9221053 L0,38.9221053 L0,1.97934211 C0,0.889342105 0.883684211,0.00565789474 1.97368421,0.00565789474 L65.3947368,0.00565789474 C66.4847368,0.00565789474 67.3684211,0.889342105 67.3684211,1.97934211 L67.3684211,38.9221053 Z" fill="#E8E4D8"></path>
                        <g>
                            <path d="M13.4736842,38.9221053 L0,38.9221053 L0,1.97934211 C0,0.889342105 0.883684211,0.00565789474 1.97368421,0.00565789474 L13.4736842,0.00565789474 L13.4736842,38.9221053 Z" fill="#FE255F"></path>
                            <polygon fill="#FFE059" points="13.4736842 0.00539473684 26.9473684 0.00539473684 26.9473684 38.9225 13.4736842 38.9225"></polygon>
                            <polygon fill="#29E088" points="26.9473684 0.00565789474 40.4210526 0.00565789474 40.4210526 38.9221053 26.9473684 38.9221053"></polygon>
                            <polygon fill="#5CCEFF" points="40.4210526 0.00539473684 53.8947368 0.00539473684 53.8947368 38.9225 40.4210526 38.9225"></polygon>
                            <path d="M67.3684211,38.9221053 L53.8947368,38.9221053 L53.8947368,0.00565789474 L65.3947368,0.00565789474 C66.4847368,0.00565789474 67.3684211,0.889342105 67.3684211,1.97934211 L67.3684211,38.9221053 Z" fill="#48ACFF"></path>
                        </g>
                    </g>
                    <path d="M46.7821053,12.0576316 C45.8309211,11.58 44.6726316,11.9640789 44.195,12.9155263 L39.5507895,22.1678947 L34.9067105,12.9155263 C34.5797368,12.2640789 33.9131579,11.8527632 33.1842105,11.8527632 L21.4506579,11.8527632 C20.3863158,11.8527632 19.5234211,12.7156579 19.5234211,13.78 C19.5234211,14.8443421 20.3863158,15.7072368 21.4506579,15.7072368 L25.3901316,15.7072368 L25.3901316,26.4639474 C25.3901316,27.5284211 26.2530263,28.3913158 27.3173684,28.3913158 C28.3817105,28.3913158 29.2446053,27.5284211 29.2446053,26.4639474 L29.2446053,15.7072368 L31.9951316,15.7072368 L37.8282895,27.3285526 C38.1552632,27.98 38.8218421,28.3913158 39.5507895,28.3913158 C40.2797368,28.3913158 40.9461842,27.9801316 41.2732895,27.3285526 L47.64,14.6446053 C48.1173684,13.6932895 47.7332895,12.535 46.7821053,12.0576316 Z" id="Path" fill="#FFFFFF"></path>
                </g>
                <path d="M13.4736842,6.46605263 L10.4453947,6.46605263 C8.66144737,6.46605263 7.21526316,5.01986842 7.21526316,3.23592105 C7.21526316,1.45197368 8.66144737,0.00578947368 10.4453947,0.00578947368 L13.4736842,0.00578947368 L13.4736842,6.46605263 Z" id="Path" fill="#FC709B"></path>
                <polygon id="Path" fill="#FFF370" points="13.4736842 0.00539473684 26.9473684 0.00539473684 26.9473684 6.46592105 13.4736842 6.46592105"></polygon>
                <path d="M38.3631579,3.23565789 C38.3631579,5.01973684 36.9169737,6.46592105 35.1328947,6.46592105 L26.9473684,6.46592105 L26.9473684,0.00539473684 L35.1328947,0.00539473684 C36.9168421,0.00539473684 38.3631579,1.45157895 38.3631579,3.23565789 Z" id="Path" fill="#79FF79"></path>
                <path d="M29.7477632,6.46592105 L24.5286842,6.46592105 C22.7446053,6.46592105 21.2984211,5.01973684 21.2984211,3.23565789 C21.2984211,1.45157895 22.7446053,0.00539473684 24.5286842,0.00539473684 L29.7477632,0.00539473684 C31.5318421,0.00539473684 32.9780263,1.45157895 32.9780263,3.23565789 C32.9780263,5.01973684 31.5318421,6.46592105 29.7477632,6.46592105 Z" id="Path" fill="#C2FFC2"></path>
                <path d="M26.9473684,6.46592105 L24.5286842,6.46592105 C22.7446053,6.46592105 21.2984211,5.01973684 21.2984211,3.23565789 C21.2984211,1.45157895 22.7446053,0.00539473684 24.5286842,0.00539473684 L26.9473684,0.00539473684 L26.9473684,6.46592105 Z" id="Path" fill="#FFF7C7"></path>
                <path d="M67.3684211,1.97907895 L67.3684211,38.9225 L53.8947368,38.9225 L53.8947368,32.3751316 C59.1605263,25.8961842 62.3157895,17.6343421 62.3157895,8.63434211 C62.3157895,5.66460526 61.9723684,2.77644737 61.3223684,0.00539473684 L65.3947368,0.00539473684 C66.4842105,0.00539473684 67.3684211,0.889605263 67.3684211,1.97907895 Z" id="Path" fill="#229BFF"></path>
                <path d="M53.8947368,32.3751316 L53.8947368,38.9225 L47.0486842,38.9225 C49.5960526,37.0343421 51.8973684,34.8330263 53.8947368,32.3751316 Z" id="Path" fill="#27B2FF"></path>
                <path d="M21.0360526,45.1273684 L6.38618421,45.1273684 C4.67276316,45.1273684 3.28368421,43.7382895 3.28368421,42.0248684 C3.28368421,40.3114474 4.67276316,38.9223684 6.38618421,38.9223684 L21.0360526,38.9223684 C22.7494737,38.9223684 24.1385526,40.3114474 24.1385526,42.0248684 C24.1385526,43.7384211 22.7494737,45.1273684 21.0360526,45.1273684 Z" id="Path" fill="#8F8B81"></path>
                <path d="M14.2751316,38.9225 L10.4342105,38.9225 C8.72078947,38.9225 7.33171053,40.3115789 7.33171053,42.025 C7.33171053,43.7384211 8.72078947,45.1275 10.4342105,45.1275 L14.2752632,45.1275 C15.9886842,45.1275 17.3777632,43.7384211 17.3777632,42.025 C17.3776316,40.3115789 15.9885526,38.9225 14.2751316,38.9225 Z" id="Path" fill="#B5B1A4"></path>
            </g>
        </g>
    </g>
</svg>