<svg width="40" height="40" viewBox="0 0 40 40" fill="none" xmlns="http://www.w3.org/2000/svg">
<g id="img_next">
<circle id="Oval" cx="19.6775" cy="20.1986" r="19.5317" fill="white"/>
<path id="Rectangle" fill-rule="evenodd" clip-rule="evenodd" d="M24.3487 19.5191C25.1555 18.9112 26.3183 19.2134 26.7271 20.1373C27.0221 20.804 26.8188 21.5862 26.2364 22.0249L18.0855 28.1656C17.2786 28.7735 16.1159 28.4713 15.7071 27.5474C15.4121 26.8806 15.6154 26.0985 16.1977 25.6598L24.3487 19.5191Z" fill="#3E75C7"/>
<path id="Rectangle_2" fill-rule="evenodd" clip-rule="evenodd" d="M16.1977 15.0089C15.6154 14.5702 15.4121 13.788 15.7071 13.1213C16.1159 12.1974 17.2786 11.8952 18.0855 12.5031L26.2364 18.6438C26.8188 19.0825 27.0221 19.8646 26.7271 20.5314C26.3183 21.4553 25.1556 21.7575 24.3487 21.1496L16.1977 15.0089Z" fill="#3E74C5"/>
</g>
</svg>
