<svg fill="none" height="30" viewBox="0 0 27 30" width="27" xmlns="http://www.w3.org/2000/svg"><g fill="#427fe0"><path clip-rule="evenodd" d="m5.47072 10.0874c1.25925 2.6179 4.16056 4.7717 5.46138 5.6428v2.3332l-5.16771 3.1506h12.80051l-5.2071-3.1745v-2.3093c1.3008-.8714 4.2021-3.0252 5.4613-5.6431 4.2935-.45871 5.4544-5.73764 5.4544-8.59014 0-.680586-.543-1.232312-1.2129-1.232312h-21.83139c-.669838 0-1.2128526.551726-1.2128526 1.232312 0 2.8525 1.1608526 8.13143 5.4543626 8.59044zm13.95158-2.70629v-4.65075h2.332c-.1839 1.47585-.728 3.8462-2.332 4.65075zm-14.5541 0v-4.65075h-2.33202c.18375 1.47523.72787 3.8462 2.33202 4.65075z" fill-rule="evenodd"/><path d="m26.2214 21.362c-1.0348-.0011-1.8733-.7903-1.8744-1.7642 0-.3247-.2798-.588-.6248-.588-.3451 0-.6248.2633-.6248.588-.0012.9739-.8397 1.7631-1.8745 1.7642-.345 0-.6248.2633-.6248.588 0 .3248.2798.5881.6248.5881 1.0348.001 1.8733.7903 1.8745 1.7641 0 .3248.2797.5881.6248.5881.345 0 .6248-.2633.6248-.5881.0011-.9738.8396-1.7631 1.8744-1.7641.3451 0 .6248-.2633.6248-.5881 0-.3247-.2797-.588-.6248-.588z"/><path d="m23.7222 10.1897c-.3451 0-.6248.2633-.6248.5881-.0012.9739-.8397 1.7631-1.8745 1.7641-.345 0-.6248.2633-.6248.5881s.2798.5881.6248.5881c1.0348.001 1.8733.7902 1.8745 1.7641 0 .3248.2797.5881.6248.5881.345 0 .6248-.2633.6248-.5881.0011-.9739.8396-1.7631 1.8744-1.7641.3451 0 .6248-.2633.6248-.5881s-.2797-.5881-.6248-.5881c-1.0348-.001-1.8733-.7902-1.8744-1.7641 0-.3248-.2798-.5881-.6248-.5881z"/><path d="m6.26416 16.8041c0-.3247-.27973-.588-.6248-.588-1.03475-.0011-1.8733-.7903-1.87442-1.7642 0-.3247-.27973-.588-.6248-.588s-.62481.2633-.62481.588c-.00112.9739-.83967 1.7631-1.874412 1.7642-.34507 0-.6248047.2633-.6248047.588 0 .3248.2797347.5881.6248047.5881 1.034742.0011 1.873292.7903 1.874412 1.7642 0 .3247.27974.588.62481.588s.6248-.2633.6248-.588c.00112-.9739.83967-1.7631 1.87442-1.7642.34507 0 .6248-.2633.6248-.5881z"/><path d="m4.79395 28.4422c0 .6766.54849 1.2251 1.2251 1.2251h12.25105c.6766 0 1.2251-.5485 1.2251-1.2251v-6.1256h-14.70125z"/></g></svg>