<svg width="35" height="34" viewBox="0 0 35 34" fill="none" xmlns="http://www.w3.org/2000/svg">
<g clip-path="url(#clip0)">
<path d="M18.6879 11.444H7.50856V10.0466H18.6879V11.444ZM18.6879 14.2388H7.50856V12.8414H18.6879V14.2388ZM14.4956 17.0336H7.50856V15.6362H14.4956V17.0336ZM30.1076 33.8026L19.7849 23.4799C17.8453 24.7013 15.5591 25.4181 13.0982 25.4181C6.15167 25.4181 0.521484 19.7879 0.521484 12.8414C0.521484 5.89484 6.15167 0.264648 13.0982 0.264648C20.0448 0.264648 25.675 5.89484 25.675 12.8414C25.675 15.3022 24.9567 17.5898 23.7368 19.528L34.0595 29.8507L30.1076 33.8026ZM13.0982 22.6233C18.4909 22.6233 22.8801 18.2354 22.8801 12.8414C22.8801 7.44737 18.4909 3.05948 13.0982 3.05948C7.7056 3.05948 3.31632 7.44737 3.31632 12.8414C3.31632 18.2354 7.7056 22.6233 13.0982 22.6233Z" fill="#427FE0"/>
</g>
<defs>
<clipPath id="clip0">
<rect width="33.538" height="33.538" fill="white" transform="translate(0.521484 0.264648)"/>
</clipPath>
</defs>
</svg>
