<svg width="41" height="32" viewBox="0 0 41 32" fill="none" xmlns="http://www.w3.org/2000/svg">
<path d="M20.3777 27.0103C20.9042 27.3943 21.0199 28.1355 20.6292 28.6603L19.276 30.4915C18.9154 30.9845 18.1323 31.1187 17.6225 30.7447C17.096 30.3573 16.9803 29.6178 17.3676 29.0913L18.7243 27.2601C19.1083 26.7403 19.8478 26.6195 20.3777 27.0103ZM12.1122 25.2562L13.4655 23.4334C13.8512 22.9069 13.7405 22.1674 13.2106 21.7783C12.6807 21.3893 11.9429 21.505 11.5572 22.0315L10.2056 23.856C9.81992 24.3809 9.93227 25.1237 10.4588 25.5111C10.9585 25.8767 11.7467 25.7559 12.1122 25.2562ZM16.3313 25.5212L14.9814 27.3423C14.5941 27.8705 14.7098 28.6117 15.2346 28.9991C15.7394 29.3696 16.5258 29.2422 16.8897 28.7458L18.2396 26.9214C18.627 26.3965 18.513 25.6553 17.9864 25.2663C17.4616 24.8806 16.7237 24.9929 16.3313 25.5212ZM22.3061 29.0712C22.0915 29.5776 21.5146 30.2886 21.1205 30.8218C21.3805 30.956 21.6387 31.0113 21.8768 31.0113C22.7857 31.0113 23.3894 30.1544 22.5727 29.3378L22.3061 29.0712ZM13.9451 23.7772L12.5835 25.6151C12.1978 26.1416 12.3202 26.866 12.845 27.2551C13.3615 27.6324 14.1329 27.5066 14.4901 27.0153L15.8517 25.1757C16.2408 24.6525 16.1251 23.9097 15.5968 23.5223C15.0686 23.1366 14.3308 23.2523 13.9451 23.7772ZM35.3189 22.4172L40.2456 21.1076L37.5911 10.8885L32.5956 12.391L35.3189 22.4172ZM31.1568 13.4928C28.7203 13.6705 26.4045 12.7734 23.8606 11.4604C23.3005 11.1719 22.6549 10.9372 22.0244 10.9372C21.4442 10.9372 20.8757 11.1367 20.3995 11.6767C18.6823 13.6236 17.6846 15.3441 15.6388 16.5363C14.6309 17.1249 15.8132 18.9678 17.9797 18.2116C19.0831 17.8242 20.5789 16.8248 21.798 15.8421C22.7572 15.0691 23.3307 15.1814 24.1624 16.0131C25.7186 17.571 30.9589 22.7425 30.9589 22.7425C31.7689 22.2428 32.552 21.8387 33.3284 21.4916L31.1568 13.4928ZM7.65001 12.391L2.65453 10.8885L0 21.1076L4.92673 22.4172L7.65001 12.391ZM30.1305 24.3406C29.3189 23.4435 23.864 18.0808 22.8947 17.1132C21.2497 18.3474 19.0831 20.0662 16.9903 20.0662C15.409 20.0662 14.0524 19.1322 13.6902 17.7957C13.4001 16.7309 13.8462 15.6409 14.797 15.0858C15.9876 14.3916 16.7774 13.4408 17.7399 12.2502C14.7986 10.3922 12.29 13.4106 9.10556 13.4391L6.97087 21.2954C7.90323 21.5167 8.71485 21.7515 9.46777 22.0349L10.2056 21.0371C11.5337 19.2244 14.304 19.6 15.1525 21.6257C16.2257 21.7196 17.1413 22.4122 17.5404 23.3697C18.5784 23.4603 19.509 24.1193 19.9249 25.112C21.4945 25.2478 22.7756 26.6715 22.4906 28.4188L23.5873 29.5155C24.0484 29.9784 24.7997 29.9767 25.2591 29.5155C25.722 29.0527 25.722 28.3031 25.2591 27.8403L23.1395 25.719C23.0238 25.6033 23.0238 25.4122 23.1446 25.2965C23.2603 25.1858 23.4447 25.1875 23.5588 25.2998L26.1127 27.8554C26.5738 28.3182 27.3251 28.3182 27.7862 27.8554C28.249 27.3926 28.249 26.6447 27.7862 26.1819L24.642 23.036C24.5213 22.9169 24.5263 22.7207 24.6521 22.6084C24.7678 22.5028 24.9506 22.5044 25.0596 22.6168L28.4553 26.0125C28.9165 26.4753 29.6677 26.4753 30.1288 26.0125C30.5917 25.5513 30.5917 24.8035 30.1305 24.3406ZM17.7449 0.827148L16.0949 1.11893L16.9685 6.07249L18.6186 5.78071L17.7449 0.827148ZM24.1507 1.11893L22.5006 0.827148L21.627 5.78071L23.2804 6.07249L24.1507 1.11893ZM30.1842 3.17816L28.7303 2.33971L26.215 6.6963L27.6688 7.53475L30.1842 3.17816ZM11.5153 2.33971L10.0614 3.17816L12.5767 7.53475L14.0306 6.6963L11.5153 2.33971Z" fill="#427FE0"/>
</svg>
